<svg width="800" height="600" xmlns="http://www.w3.org/2000/svg">
 <metadata id="metadata81">image/svg+xml</metadata>

 <g>
  <title>background</title>
  <rect fill="none" id="canvas_background" height="602" width="802" y="-1" x="-1"/>
 </g>
 <g>
  <title>Layer 1</title>
  <g stroke="null" id="Layer1000">
   <path stroke="null" fill="#0076be" fill-rule="evenodd" id="path2" d="m730.1811,234.7548c37.0075,0 67.1905,30.1829 67.1905,67.1902c0,37.0074 -30.183,67.1902 -67.1905,67.1902c-37.0075,0 -67.1905,-30.1828 -67.1905,-67.1902c0,-37.0073 30.183,-67.1902 67.1905,-67.1902zm-43.8661,90.1848l-7.0069,3.5704l1.0466,2.0544l-1.4281,0.7278l-2.7998,-5.4952l1.4281,-0.7277l1.0435,2.0483l7.0075,-3.5699l0.7091,1.3919zm-4.111,-10.3034l0.5266,1.6209l-1.8363,1.3102l0.9577,2.947l2.2436,-0.0563l0.5148,1.5847l-9.9375,0.0511l-0.5132,-1.5779l8.0443,-5.8797zm-2.6701,3.9012l-3.0122,2.1005l3.6666,-0.0853l-0.6544,-2.0152zm2.5931,-4.4924l-9.2248,2.1294l-0.3514,-1.5227l9.2242,-2.1299l0.352,1.5232zm-0.9578,-4.9928l-3.9554,0.4858l-5.0946,3.4882l-0.2238,-1.8203l3.4944,-2.27l-3.9358,-1.3267l-0.2197,-1.7873l5.8022,2.1635l3.9425,-0.4843l0.1902,1.5511zm-10.1499,-5.308l0.0543,-1.5619l5.1241,0.1788c0.7975,0.0279 1.3159,0.0284 1.5572,-0.003c0.4207,-0.0538 0.7484,-0.2078 0.9862,-0.4595c0.2362,-0.2517 0.3628,-0.5913 0.3773,-1.0171c0.0129,-0.3608 -0.0584,-0.659 -0.2114,-0.8937c-0.1525,-0.2326 -0.3716,-0.3969 -0.6554,-0.4905c-0.2811,-0.0935 -0.8947,-0.1571 -1.8374,-0.1896l-5.2336,-0.183l0.0548,-1.5686l4.9695,0.1736c1.2689,0.044 2.1852,0.1447 2.7445,0.2988c0.5613,0.156 1.0089,0.4765 1.3422,0.9644c0.336,0.4879 0.4879,1.1216 0.4611,1.8999c-0.0285,0.8084 -0.1959,1.4353 -0.5024,1.8788c-0.3044,0.4439 -0.7257,0.7577 -1.2591,0.9443c-0.5334,0.1865 -1.5087,0.2537 -2.9248,0.2046l-5.0471,-0.1763zm11.1164,-14.341l-0.3251,1.6725l-2.241,0.2559l-0.5913,3.0421l1.9894,1.0379l-0.3179,1.6358l-8.7167,-4.7731l0.3169,-1.6291l9.8857,-1.242zm-4.2268,2.1175l-3.6525,0.3768l3.2484,1.7025l0.4041,-2.0793zm4.3902,-2.9072l-8.9514,-3.082l0.4967,-1.4425l7.0111,-0.9448l-5.9768,-2.0581l0.4749,-1.38l8.9514,3.082l-0.5133,1.4906l-6.8549,0.9453l5.8373,2.01l-0.475,1.3795zm-4.4067,-14.0319l0.7815,-1.3537l4.4397,2.5636c0.6916,0.399 1.1485,0.6424 1.3769,0.7282c0.3964,0.1504 0.7582,0.168 1.0864,0.0574c0.3262,-0.1116 0.5975,-0.352 0.8105,-0.721c0.1808,-0.3127 0.2573,-0.6088 0.2331,-0.8879c-0.0259,-0.2771 -0.1422,-0.5252 -0.3489,-0.7412c-0.2042,-0.2145 -0.7159,-0.5582 -1.533,-1.0301l-4.5354,-2.6183l0.7851,-1.3593l4.3064,2.486c1.0994,0.6352 1.8612,1.1541 2.2824,1.5526c0.4228,0.4016 0.6673,0.8942 0.7329,1.4818c0.0672,0.5882 -0.0961,1.2193 -0.4853,1.8932c-0.4042,0.7009 -0.8466,1.1759 -1.3252,1.4234c-0.4776,0.2491 -0.9965,0.3282 -1.5552,0.2429c-0.5587,-0.0858 -1.4513,-0.4842 -2.6788,-1.1928l-4.3731,-2.5248zm12.1067,-1.9486l-7.1449,-6.2109l1.0006,-1.151l6.8545,1.75l-4.7706,-4.1472l0.9572,-1.1014l7.145,6.211l-1.0343,1.1898l-6.7097,-1.6917l4.6594,4.05l-0.9572,1.1014zm5.2362,-5.7168l-6.4565,-6.9237l1.1428,-1.0663l6.457,6.9242l-1.1433,1.0658zm3.6371,-3.3156l-8.0122,-5.7541l1.3391,-1.0461l5.8601,4.3142l-2.8189,-6.6901l1.3133,-1.0265l3.6417,9.1689l-1.3231,1.0337zm4.0629,-3.175l-4.5901,-8.2804l5.0398,-2.793l0.7768,1.4016l-3.6722,2.0359l1.0172,1.8348l3.4117,-1.8911l0.7727,1.3939l-3.4117,1.8912l1.2487,2.2534l3.7957,-2.1041l0.7743,1.396l-5.1629,2.8618zm6.2601,-3.4701l-3.3926,-8.8381l3.0804,-1.1825c0.7882,-0.3029 1.3831,-0.4388 1.7816,-0.4099c0.398,0.0289 0.7815,0.1979 1.148,0.506c0.369,0.3096 0.6564,0.7375 0.8657,1.2823c0.2651,0.6915 0.3142,1.3128 0.1452,1.8617c-0.1716,0.5494 -0.5411,0.9959 -1.1091,1.3371c0.3995,0.1059 0.753,0.2517 1.0595,0.4408c0.3086,0.1887 0.7722,0.5603 1.3919,1.1159l1.5407,1.3872l-1.7413,0.6683l-1.8002,-1.5159c-0.6471,-0.5479 -1.0735,-0.8849 -1.2786,-1.0063c-0.2032,-0.123 -0.3949,-0.1861 -0.5737,-0.1959c-0.1768,-0.007 -0.4347,0.0538 -0.7722,0.183l-0.3024,0.1163l1.4162,3.6897l-1.4591,0.5603zm-0.4987,-5.6616l1.0864,-0.417c0.6626,-0.2543 1.073,-0.4451 1.2322,-0.5717c0.1591,-0.1276 0.2599,-0.3013 0.3054,-0.521c0.0429,-0.2196 0.0098,-0.4791 -0.1023,-0.7706c-0.108,-0.2827 -0.2533,-0.4863 -0.4295,-0.6145c-0.1783,-0.1277 -0.3763,-0.1866 -0.5939,-0.1757c-0.153,0.007 -0.5582,0.1385 -1.2125,0.3902l-1.1464,0.4398l0.8606,2.2405zm6.6549,0.0791l1.4498,-0.5225c0.4398,1.1407 1.1257,1.6043 2.0576,1.3893c0.46,-0.1065 0.7954,-0.3101 1.0032,-0.6135c0.2108,-0.3024 0.2729,-0.6316 0.1907,-0.9877c-0.0486,-0.2109 -0.1349,-0.3789 -0.261,-0.5034c-0.1266,-0.1267 -0.2962,-0.214 -0.507,-0.2646c-0.2104,-0.0512 -0.7019,-0.1029 -1.4798,-0.1587c-0.6962,-0.0471 -1.2223,-0.1499 -1.5764,-0.3122c-0.3556,-0.1602 -0.6667,-0.4078 -0.9313,-0.7422c-0.2652,-0.3344 -0.4461,-0.7179 -0.5458,-1.1495c-0.1158,-0.5029 -0.107,-0.9825 0.0274,-1.4389c0.1369,-0.4543 0.3824,-0.8321 0.7365,-1.1308c0.3566,-0.2972 0.829,-0.5153 1.4213,-0.6518c0.8895,-0.2057 1.6384,-0.1251 2.2488,0.2429c0.6109,0.3655 1.0353,0.9965 1.2699,1.8876l-1.5082,0.4341c-0.1829,-0.4801 -0.4067,-0.7923 -0.676,-0.9386c-0.2662,-0.1447 -0.6068,-0.17 -1.0172,-0.0749c-0.4098,0.0946 -0.7075,0.2538 -0.8889,0.4765c-0.184,0.2233 -0.2471,0.4616 -0.1871,0.7195c0.0579,0.2517 0.2077,0.4388 0.4491,0.5639c0.2414,0.1271 0.7489,0.2067 1.5206,0.246c0.8202,0.0455 1.4286,0.1519 1.8265,0.3178c0.398,0.1665 0.7329,0.4238 1.0032,0.7681c0.2698,0.3473 0.4688,0.7969 0.5965,1.351c0.185,0.8011 0.093,1.5304 -0.2724,2.1894c-0.368,0.66 -1.0766,1.1102 -2.1243,1.3526c-1.8539,0.4279 -3.13,-0.3882 -3.8257,-2.4494zm8.0525,1.4121l-1.1536,-9.3969l1.5511,-0.1902l1.1541,9.3963l-1.5516,0.1908zm4.7225,-0.351l-0.137,-7.8628l-2.3056,0.0398l-0.0279,-1.6022l6.166,-0.1075l0.0284,1.6022l-2.2989,0.0403l0.1374,7.8633l-1.5624,0.0269zm6.8038,0.1246l0.4859,-3.956l-2.1527,-5.7871l1.8208,0.2238l1.3573,3.9399l2.2395,-3.4985l1.7873,0.2196l-3.5032,5.1065l-0.4838,3.942l-1.5511,-0.1902zm8.3244,-3.4526c0.3489,-1.074 0.7929,-1.9051 1.3371,-2.4953c0.5417,-0.5913 1.1252,-0.9743 1.7469,-1.1479c0.6218,-0.1732 1.2973,-0.1411 2.0271,0.0956c1.0565,0.3437 1.7852,1.0254 2.1899,2.0493c0.4016,1.0228 0.3623,2.2798 -0.122,3.7704c-0.4889,1.5051 -1.2244,2.5687 -2.2038,3.1864c-0.8621,0.5499 -1.8219,0.6502 -2.883,0.3059c-1.0688,-0.3478 -1.7909,-0.9923 -2.1687,-1.933c-0.4295,-1.0761 -0.4037,-2.3542 0.0765,-3.8314zm1.5542,0.4373c-0.3365,1.0357 -0.3913,1.8756 -0.1675,2.5207c0.2259,0.6455 0.628,1.0636 1.2105,1.2528c0.585,0.1902 1.1526,0.0899 1.7056,-0.2982c0.5525,-0.3887 0.9996,-1.1149 1.3453,-2.1796c0.3396,-1.044 0.4032,-1.8761 0.1908,-2.4989c-0.2109,-0.6203 -0.6203,-1.0291 -1.2265,-1.226c-0.6053,-0.1969 -1.1821,-0.106 -1.7253,0.2734c-0.5452,0.3814 -0.9897,1.0999 -1.3329,2.1558zm5.2098,6.8694l4.2981,-8.4355l4.7411,2.4158l-0.7277,1.428l-3.3482,-1.7061l-1.0171,1.9956l2.8948,1.4751l-0.7272,1.4275l-2.8948,-1.4751l-1.8261,3.5843l-1.3929,-0.7096zm9.3064,5.4305l4.8419,-6.197l-1.8168,-1.4198l0.9867,-1.2626l4.8599,3.7967l-0.9871,1.2632l-1.8116,-1.4156l-4.8413,6.197l-1.2317,-0.9619zm3.6598,2.9466l6.4565,-6.9237l4.2139,3.9296l-1.0931,1.1722l-3.0706,-2.8639l-1.4312,1.5346l2.853,2.6607l-1.0869,1.1655l-2.853,-2.6608l-1.7573,1.8845l3.174,2.96l-1.0885,1.167l-4.3168,-4.0257zm10.9087,6.9666l0.4186,1.5727c-0.998,0.4306 -1.855,0.5681 -2.5744,0.4099c-0.7179,-0.1592 -1.3149,-0.5649 -1.7878,-1.2156c-0.5944,-0.8187 -0.7608,-1.7113 -0.5008,-2.6773c0.3013,-1.1148 1.0714,-2.1211 2.3072,-3.0189c1.3071,-0.95 2.5429,-1.3981 3.7094,-1.3438c1.012,0.0465 1.8323,0.4998 2.4602,1.3645c0.5107,0.7029 0.6973,1.4663 0.5624,2.2886c-0.0977,0.5861 -0.4239,1.2016 -0.982,1.8477l-1.2767,-0.9887c0.3577,-0.382 0.5598,-0.7712 0.6073,-1.1707c0.0476,-0.4 -0.047,-0.7618 -0.2811,-1.0849c-0.337,-0.4631 -0.8136,-0.6951 -1.4307,-0.6936c-0.615,0.001 -1.3882,0.3391 -2.3191,1.0151c-0.9649,0.7009 -1.5479,1.3423 -1.7469,1.9227c-0.2011,0.5825 -0.1349,1.1014 0.1969,1.5578c0.2434,0.3349 0.583,0.5292 1.0177,0.584c0.4383,0.0553 0.9784,-0.0672 1.6198,-0.3695zm-1.2679,4.434l8.3591,-4.4444l0.7334,1.38l-3.2893,1.749l1.4436,2.715l3.2892,-1.749l0.7371,1.3857l-8.3591,4.4449l-0.737,-1.3862l3.6552,-1.9434l-1.4436,-2.715l-3.6552,1.9434l-0.7334,-1.38zm3.5244,6.9397l8.9514,-3.0819l0.4967,1.442l-4.9432,5.0609l5.9774,-2.0581l0.475,1.38l-8.9514,3.0825l-0.5132,-1.4906l4.8201,-4.9653l-5.8378,2.01l-0.475,-1.3795zm6.8623,6.088c1.1081,-0.2156 2.0503,-0.23 2.8307,-0.0398c0.78,0.1866 1.3976,0.5117 1.8509,0.9711c0.4527,0.46 0.7525,1.0663 0.8988,1.8193c0.2119,1.0906 -0.031,2.0581 -0.7303,2.9089c-0.6998,0.8471 -1.8188,1.4223 -3.357,1.7211c-1.5536,0.3023 -2.8401,0.1747 -3.8552,-0.3825c-0.8988,-0.4879 -1.4523,-1.2782 -1.6647,-2.3734c-0.2145,-1.1034 -0.0005,-2.0472 0.6388,-2.8339c0.7329,-0.8972 1.8632,-1.4942 3.388,-1.7908zm0.3711,1.5717c-1.0694,0.2078 -1.8302,0.567 -2.2856,1.0756c-0.4553,0.5101 -0.6264,1.0647 -0.5096,1.6658c0.1179,0.6036 0.4807,1.0518 1.088,1.3474c0.6078,0.2951 1.4601,0.3339 2.5589,0.1199c1.0777,-0.2093 1.8359,-0.5566 2.2778,-1.0446c0.4403,-0.4853 0.5995,-1.0414 0.4781,-1.6668c-0.1215,-0.6254 -0.4807,-1.0859 -1.0761,-1.3764c-0.598,-0.2925 -1.4415,-0.3328 -2.5315,-0.1209zm-3.6847,7.8835l9.384,-0.3277l0.0547,1.5619l-7.7889,0.2719l0.1359,3.897l-1.595,0.0558l-0.1907,-5.4589zm4.7385,6.8239c1.1205,0.138 2.0209,0.4151 2.7047,0.8368c0.6838,0.4186 1.1707,0.919 1.4596,1.4958c0.2889,0.5773 0.3866,1.2466 0.293,2.0079c-0.1354,1.103 -0.6657,1.948 -1.5934,2.5408c-0.9278,0.5898 -2.1692,0.7908 -3.7244,0.5996c-1.5713,-0.1928 -2.7554,-0.7117 -3.5487,-1.5552c-0.704,-0.7412 -0.9862,-1.6643 -0.8503,-2.7714c0.137,-1.1158 0.6327,-1.9474 1.4839,-2.4979c0.9743,-0.6269 2.2333,-0.8455 3.7756,-0.6564zm-0.1333,1.6095c-1.0808,-0.1328 -1.9155,-0.0264 -2.5057,0.3168c-0.5908,0.3448 -0.9247,0.8192 -0.9991,1.427c-0.0749,0.6104 0.1318,1.149 0.6182,1.6172c0.4868,0.4688 1.2854,0.7686 2.3961,0.905c1.09,0.1339 1.9185,0.0378 2.4896,-0.2894c0.5686,-0.3256 0.8916,-0.8052 0.9696,-1.4379c0.0776,-0.6321 -0.1219,-1.181 -0.5979,-1.6415c-0.4787,-0.4625 -1.2684,-0.7618 -2.3708,-0.8972zm-3.542,10.9422l1.518,0.493l-1.0435,3.2112l-3.587,-1.1655c-0.2765,-0.446 -0.4548,-1.0114 -0.536,-1.6942c-0.0821,-0.6822 -0.0248,-1.3221 0.1701,-1.9216c0.2362,-0.7278 0.6233,-1.3133 1.1619,-1.7522c0.5401,-0.4413 1.2203,-0.7096 2.041,-0.8021c0.8202,-0.0925 1.7118,0.0165 2.6783,0.3308c0.9913,0.322 1.7847,0.7628 2.3822,1.3205c0.5975,0.5582 0.9846,1.1567 1.1613,1.7961c0.1773,0.6393 0.1463,1.3267 -0.0914,2.0586c-0.2864,0.8802 -0.7396,1.5138 -1.3609,1.8984c-0.6213,0.3845 -1.3872,0.5111 -2.3062,0.3793l0.1411,-1.5836c0.4988,0.0419 0.919,-0.047 1.2601,-0.2626c0.3406,-0.2139 0.5789,-0.5256 0.7127,-0.9365c0.2057,-0.6331 0.1256,-1.229 -0.2393,-1.781c-0.3649,-0.5546 -1.0543,-0.9939 -2.0669,-1.3227c-1.0833,-0.3519 -1.9785,-0.4093 -2.6803,-0.1669c-0.6073,0.2062 -1.011,0.6223 -1.2126,1.2425c-0.0946,0.2915 -0.1235,0.6161 -0.0894,0.9748c0.0367,0.3571 0.1328,0.6962 0.2895,1.0213l1.1422,0.3711l0.5551,-1.7087zm-5.8626,5.1912l3.5507,1.809l6.1743,-0.0429l-0.8326,1.6342l-4.1664,-0.0723l2.5212,3.3011l-0.8171,1.6043l-3.6004,-5.0383l-3.5394,-1.8032l0.7097,-1.3919zm-44.7184,-85.9011c35.5861,0 64.6062,29.0199 64.6062,64.6059c0,35.586 -29.0201,64.606 -64.6062,64.606c-35.5862,0 -64.6063,-29.02 -64.6063,-64.606c0,-35.586 29.0201,-64.6059 64.6063,-64.6059zm0,21.966c23.4882,0 42.6401,19.1518 42.6401,42.6399c0,23.4882 -19.1519,42.64 -42.6401,42.64c-23.4883,0 -42.6401,-19.1518 -42.6401,-42.64c0,-23.4881 19.1518,-42.6399 42.6401,-42.6399zm28.7094,14.755c0.3949,4.3006 1.2782,20.9416 -6.5438,37.3505c-4.8816,12.3134 -12.5553,21.689 -23.0928,29.391c0,0 -6.2322,-6.3696 -11.9295,-12.9046c-7.4777,-8.5781 -11.0177,-16.1463 -16.9666,-52.6425c-6.3557,7.0932 -10.2326,16.4528 -10.2326,26.6905c0,22.0648 17.991,40.0557 40.0559,40.0557c22.0648,0 40.0559,-17.9909 40.0559,-40.0557c0,-10.8233 -4.3312,-20.6646 -11.3465,-27.8849zm-56.3454,-1.0653l26.1754,0l0,-11.0755c-10.1231,0.3665 -19.3085,4.5157 -26.1754,11.0755zm30.3179,-11.013l0,11.013l24.9561,0c-6.5903,-6.2952 -15.3158,-10.3705 -24.9561,-11.013zm-28.5161,14.4227c16.8312,0 33.6624,0 50.4941,0c1.2756,9.1983 -0.9711,18.9843 -2.3361,27.5955l-43.6123,0l-4.5457,-27.5955zm13.5192,10.8915l0,8.6247c-0.0382,0.4837 0.1416,0.7049 0.5432,0.6636l1.027,0l0,0.5432l-4.9468,0l0,-0.5432l0.9655,0c0.3602,0 0.5427,-0.2006 0.5427,-0.6021l0,-6.7563c-0.6435,0.4016 -1.2482,0.6616 -1.809,0.7825l-0.2424,-0.4217c1.2074,-0.5613 2.2318,-1.3257 3.0758,-2.2907l0.844,0zm5.5505,9.9524l-0.3603,-0.4222c1.7682,-0.5634 2.8954,-1.871 3.3766,-3.9224c-0.5225,0.4042 -1.0451,0.5846 -1.5676,0.5432c-1.6906,-0.0796 -2.5734,-1.045 -2.6561,-2.8954c0.1209,-2.01 1.1686,-3.0964 3.1373,-3.2556c2.0927,0.1592 3.1967,1.5263 3.3176,4.0997c-0.2005,3.1786 -1.9506,5.1297 -5.2475,5.8527zm0.785,-6.9981c-0.0801,1.7299 0.2802,2.5532 1.0859,2.4736c0.3603,0.0409 0.7826,-0.1209 1.2663,-0.4811c0.0796,-0.6053 0.121,-1.148 0.121,-1.6297c-0.0414,-1.8089 -0.4838,-2.7356 -1.3283,-2.7744c-0.8027,0 -1.1862,0.8032 -1.1449,2.4116zm6.8163,2.0514c0.0796,-3.0959 1.1453,-4.7664 3.1962,-5.0057c2.0105,0.2393 3.0757,1.9098 3.1967,5.0057c-0.0796,3.1373 -1.1454,4.7844 -3.1967,4.9467c-2.0509,-0.1209 -3.1166,-1.7707 -3.1962,-4.9467zm1.9893,-2.1103l0,4.0407c-0.0796,1.7681 0.3215,2.6147 1.2069,2.5326c0.8445,0.1209 1.2461,-0.8032 1.2073,-2.7745l0,-3.4386c0,-1.8094 -0.4016,-2.7129 -1.2073,-2.7129c-0.8441,-0.0408 -1.2456,0.7443 -1.2069,2.3527zm6.5769,6.9361l0,-0.5432c0.2393,-0.2419 0.4611,-0.5019 0.6616,-0.7851c2.5739,-2.5734 3.7218,-4.3209 3.4386,-5.2476c-0.0801,-1.2456 -0.6021,-1.9097 -1.5676,-1.9893c-0.9241,0.0796 -1.5082,0.6636 -1.7501,1.75l-0.6021,0c0.3215,-1.8916 1.3459,-2.8953 3.0753,-3.0163c1.6885,0.121 2.5946,1.0244 2.7155,2.7124c0,1.0063 -0.7231,2.1723 -2.1723,3.5006c-0.8854,0.8027 -1.5469,1.4669 -1.9894,1.9894l2.8954,0c0.6823,0.0796 1.0658,-0.3013 1.1454,-1.1453l0.4811,0l-0.3008,2.7744l-6.0306,0zm-40.2833,38.177c-0.0124,0.5282 -0.1162,1.3587 -0.6868,2.0053c-0.5686,0.6461 -0.9123,0.3628 -1.4803,1.0105c-0.568,0.6424 -0.7432,0.8104 -0.0093,0.9882c0.735,0.1798 1.0327,0.1938 0.6181,0.6967c-0.415,0.5065 -0.4532,0.9732 -1.5066,0.9494c-1.058,-0.0222 -2.1175,-0.3178 -3.5699,0.3308c-1.4544,0.6487 -1.4544,0.6487 -1.4544,0.6487c0,0 -1.7872,0.8703 -2.3031,0.9851c-0.5122,0.1116 -0.4641,0.6124 -0.3287,1.1469c0.1385,0.5323 0.4543,1.8301 -0.1049,2.3687c-0.5577,0.539 -1.3929,-0.6849 -0.4853,-1.931c0.4378,-0.6 0.3861,-1.028 -0.3019,-0.751c-0.6899,0.2786 -0.9463,0.2611 -1.3438,-0.3721c-0.4016,-0.6362 0.6084,-0.8802 1.3418,-1.1221c0.7375,-0.2413 2.1583,-0.7602 2.7191,-1.0673c0.5587,-0.3101 0.8306,-0.7349 -0.0444,-1.0703c-0.874,-0.3334 -2.9011,-0.8099 -4.4966,-2.2731c-0.5019,-0.459 -0.092,-1.15 0.9174,-0.5097c1.0094,0.6353 4.2749,1.5139 6.7728,1.8359c0.5065,0.0672 0.5913,-0.2047 1.0244,-0.7298c0.4316,-0.5267 1.2208,-1.4901 3.2479,-2.9321c1.0848,-0.7716 1.4864,-0.7365 1.4745,-0.2077zm-6.8477,9.1818c-0.0512,0.2336 -0.1199,0.8796 -0.2527,1.4352c-0.169,0.7143 -0.3686,1.3687 0.0413,1.763c1.0709,1.0327 2.2623,0.9386 2.2902,-0.4962c0.0258,-1.4373 -1.5718,-5.0475 -2.0788,-2.702zm14.5788,-0.7154c-0.0848,0.4078 0.2584,0.659 0.9706,0.8678c0.7138,0.2073 0.9092,0.582 0.0843,1.0456c-0.8213,0.4667 -1.227,0.9577 -1.9532,1.686c-0.7267,0.7246 -3.8309,4.1663 -6.7692,5.9199c-0.4362,0.2574 -0.9158,0.6249 -0.4781,1.1412c0.4378,0.5153 0.7159,0.4817 1.839,-0.4072c1.1247,-0.8844 2.4442,-2.1258 4.1431,-3.7689c0.2708,-0.261 0.6476,-0.017 0.9587,0.046c0.2512,0.0517 0.4833,-0.1644 1.4095,-1.0998c0.3251,-0.3282 0.1933,-0.3525 -0.3939,0.0103c-0.5913,0.3608 -1.1091,-0.352 -0.2269,-0.9572c0.8818,-0.6006 3.9255,-2.0002 4.8574,-3.712c0.2842,-0.5241 0.1437,-0.3949 0.0413,-0.9298c-0.1013,-0.537 -0.3178,-0.2166 -0.8187,0.0114c-0.5039,0.2263 -0.9649,0.4052 -2.7672,-0.091c-0.7437,-0.2031 -0.813,-0.1685 -0.8967,0.2377zm2.4767,4.8434c0.2895,0.0605 0.4342,0.2419 0.0176,0.7892c-0.4171,0.5505 -0.459,0.7536 -1.1004,0.6203c-0.6372,-0.1324 -0.8791,-0.4244 -0.8993,0.2667c-0.0227,0.6915 -0.1778,2.0684 -0.6585,1.8606c-0.14,-0.0558 -0.1679,0.5101 -0.2062,0.8357c-0.0362,0.3272 0.0424,0.827 -0.9717,1.0399c-1.0119,0.213 -2.4917,-0.3948 -2.8266,0.9262c-0.1602,0.6337 0.1871,0.8296 0.5758,0.8239c0.4227,-0.004 0.8481,-0.3256 1.3546,-0.7851c0.3014,-0.2765 0.7164,-0.2465 1.0709,-0.2031c0.3546,0.0429 0.9774,-0.1892 1.3826,-0.6817c0.4057,-0.4895 0.8394,-0.1928 0.7288,0.4238c-0.1742,0.9944 -1.2797,1.0688 -0.4962,1.2316c0.783,0.1618 1.0632,-0.0238 2.193,-1.0895c0.5179,-0.4889 0.2512,-0.7665 0.0765,-1.105c-0.1701,-0.3365 -1.1159,-0.2776 -2.2426,-0.1323c-0.7153,0.0925 -0.4125,-0.9335 0.1039,-1.5216c0.5184,-0.5903 0.554,-0.9154 1.1877,-0.9045c0.6352,0.0114 1.6756,-1.2249 2.2012,-1.9966c0.5236,-0.7691 0.2404,-1.1588 -0.4233,-1.0254c-0.6646,0.1364 -0.7168,0.245 -1.0078,0.1845c-0.5789,-0.1204 -0.5256,0.3468 -0.06,0.4424zm10.8415,0.2243c-0.475,0.3277 -1.5997,1.2461 -2.0431,1.6627c-0.4466,0.414 -0.505,0.5913 -0.1499,0.9474c0.3571,0.3535 0.951,-0.2662 1.2446,0.8869c0.2977,1.1562 0.1793,1.2746 -0.4151,1.8695c-0.5928,0.5928 -0.8879,0.769 -0.0868,2.0151c0.4755,0.7386 0.1768,1.0668 -0.1793,1.4813c-0.3536,0.414 -1.211,1.5428 -0.2368,2.0447c1.181,0.6073 0.9908,0.2 1.2756,-0.6512c0.2967,-0.8901 0.6507,-2.1057 1.1237,-3.556c0.4966,-1.5138 2.3139,-4.5947 3.0551,-5.2191c0.7411,-0.6202 0.7086,0.3277 0.7411,1.0988c0.0284,0.7701 0.0884,1.5402 -0.2977,1.6586c-0.385,0.1194 -0.1183,1.0378 -0.1488,1.6022c-0.028,0.5618 -0.1463,1.2131 -0.5339,1.6281c-0.3841,0.4161 -0.2952,0.5928 0,0.8905c0.2977,0.2972 0.2005,0.475 0.2082,0.8301c0.0311,1.303 -1.0357,0.9179 -0.2935,1.4813c0.7411,0.5628 2.7238,0.5029 2.7832,0.0594c0.0589,-0.446 -0.5923,-0.92 -1.1247,-0.92c-0.5349,0 -0.859,-0.444 -0.4165,-0.86c0.447,-0.4145 0.1788,-1.7764 -0.0879,-2.0416c-0.2677,-0.2682 -0.0305,-0.5649 0.1783,-0.891c0.2083,-0.3267 -0.1183,-1.5413 0.829,-2.6675c0.9474,-1.1277 1.6286,-0.6527 2.9941,-2.6969c0.4554,-0.6817 -0.0304,-1.3944 -1.3934,-1.2735c-1.3645,0.1173 -2.2307,0.1354 -3.4686,1.4513c-1.0471,1.1149 -1.7852,2.8055 -2.2291,3.4893c-0.2187,0.34 -0.5365,0.1442 -0.735,-0.1691c-0.6502,-1.0383 -0.9774,-1.4812 -0.3535,-2.0746c0.6202,-0.5954 1.7759,-1.2456 1.3614,-2.0462c-0.413,-0.8001 -1.1263,-0.3571 -1.6007,-0.0305zm-0.828,5.9877c0,0.2652 0.0873,1.0663 -0.2073,1.0663c-0.2972,0 -0.3706,-0.474 -0.3876,-0.8585c-0.0274,-0.7412 0.5949,-0.6223 0.5949,-0.2078zm6.074,-5.1566c0.4083,-0.1287 1.3645,-0.8595 1.3645,-0.1778c0,0.2796 -0.215,0.6187 -0.3411,0.8978c-0.183,0.3959 -0.3484,0.6626 -0.7836,0.4362c-0.7417,-0.3845 -0.8016,-0.9794 -0.2398,-1.1562zm11.4162,-0.2527c0.185,0.2827 0.6502,0.7696 1.1836,0.8895c0.5328,0.1189 0.8001,0.1468 0.5328,1.2156c-0.2666,1.0668 -0.5912,2.4287 -0.7401,3.5564c-0.1483,1.1257 -0.3861,1.5408 -1.8358,2.9026c-1.4529,1.364 -2.0163,1.779 -2.4892,2.0462c-0.475,0.2667 -0.8321,0.4425 0.3535,0.7092c0.5531,0.1245 0.6869,0.1157 1.058,-0.1453c0.4311,-0.2992 1.0803,-0.8874 1.4622,-1.1877c0.7091,-0.5618 3.0231,-2.2229 3.4975,-2.6659c0.4745,-0.4434 0.5019,0.9169 1.4824,-0.0315c0.9752,-0.9474 1.9831,-1.9253 2.3098,-2.5476c0.3276,-0.6217 -0.3536,-1.1856 -1.7191,-0.3266c-1.3634,0.86 -2.3284,1.9878 -2.2808,0.6833c0.0589,-1.6906 1.274,-3.114 1.274,-4.1798c0,-1.0668 -1.8674,-1.6312 -2.8473,-1.3035c-0.9764,0.3256 -1.6591,-0.2377 -1.2415,0.3851zm15.3882,-6.3526c0.2568,0.4404 0.8218,1.2751 0.8595,2.4902c0.0413,1.2203 0.0796,2.0927 -0.0631,2.8101c-0.1447,0.7143 -0.6176,0.891 -1.3748,1.4885c-0.7603,0.597 -1.9387,1.5087 -2.4767,1.1701c-0.536,-0.338 -0.6487,-0.0454 -0.0796,0.6306c0.5639,0.6776 1.3262,1.2787 2.2633,0.1395c0.9375,-1.137 1.7603,-1.2223 1.7934,-0.5364c0.03,0.6843 -0.1111,3.3987 -1.0797,4.5074c-0.7313,0.8404 -1.4797,2.2261 -0.0501,1.4751c1.0192,-0.5381 2.4654,-2.2116 2.6163,-7.1677c0.0269,-0.8104 0.446,-1.2699 1.1433,-2.0369c0.6956,-0.7634 1.1107,-0.9623 1.3365,-1.7604c0.152,-0.5292 -0.217,-0.3292 -1.1345,-1.1903c-0.4749,-0.4444 -0.3075,0.1143 -0.2403,0.4688c0.0682,0.352 0.0729,1.7072 -0.7598,1.3573c-0.6,-0.2543 -0.1623,-0.353 -0.401,-2.4442c-0.1106,-0.9717 -0.153,-0.6709 -0.7552,-1.2699c-0.601,-0.597 -0.7349,-0.7065 -1.1282,-0.9086c-0.3918,-0.2026 -0.7288,0.3333 -0.4693,0.7768zm3.2727,8.6479c0.4765,0.2553 1.3293,1.8622 2.762,2.578c0.8647,0.4275 1.7542,-0.9251 2.1088,-1.5422c0.3375,-0.5789 -0.1861,-0.2455 -0.5169,-0.1236c-0.3365,0.1251 -1.8865,0.5422 -3.4407,-1.0006c-0.4708,-0.4682 -1.6632,-0.3116 -0.9132,0.0884zm10.8471,-10.5985c-0.0445,0.2373 -0.137,1.2477 -0.2724,1.8653c-0.0982,0.4455 -0.2724,0.4915 -0.2166,0.7991c0.1427,0.7375 0.0533,1.8772 -1.5526,-0.2879c-0.3628,-0.4884 0.3076,-0.8988 0.6265,-0.7944c0.3214,0.1049 0.7179,-0.1938 0.9752,-1.5816c0.0874,-0.476 0.5122,-0.4057 0.4399,-0.0005zm-0.998,-8.9663c0.3561,0.2797 0.9551,0.9805 1.1008,1.3035c0.1499,0.3246 -0.2274,0.5867 -0.3959,0.3024c-0.1669,-0.2863 -0.6517,-1.0234 -0.9685,-1.2895c-0.3138,-0.2678 -0.0889,-0.598 0.2636,-0.3164zm0.0165,4.0599c0.1308,0.3628 0.4135,1.2358 0.6393,1.5955c0.2233,0.3602 0.7639,-0.1483 0.4383,-0.4398c-0.3261,-0.2957 -0.4584,-0.4032 -0.614,-1.0084c-0.1566,-0.6052 -0.5959,-0.5096 -0.4636,-0.1473zm0.7608,-0.6848c0.2124,0.2372 0.5298,0.5969 0.5964,1.043c0.0683,0.4512 0.2884,0.7204 0.5923,0.0728c0.1804,-0.3793 -0.706,-0.707 -0.7695,-1.2673c-0.0595,-0.5132 -0.6321,-0.0889 -0.4192,0.1515zm1.7997,-6.6353c1.1282,0.6016 1.8637,0.3674 0.4284,3.3729c-0.3354,0.7014 -0.0584,0.7174 0.3877,0.5551c0.447,-0.1607 1.0538,-0.2227 1.2482,0.1463c0.1995,0.3675 0.5328,0.69 0.7018,-0.0615c0.1696,-0.7577 0.3298,-0.9784 0.0398,-1.119c-0.324,-0.1576 0.1391,-0.8383 0.7257,-0.6088c0.5887,0.2305 0.4466,0.9742 -0.0253,2.8157c-0.1763,0.6978 -0.0202,0.7314 0.9515,0.9774c0.9737,0.2476 1.2658,0.7112 0.5504,1.7883c-0.7148,1.0771 -1.3458,1.7748 -1.8963,2.164c-0.5535,0.3887 -0.429,0.9112 0.0863,1.1991c0.5117,0.2869 0.32,1.1428 0.8011,0.9081c0.72,-0.3535 1.8385,-0.6631 2.0685,-0.0212c0.232,0.6409 -0.3401,0.6275 -0.6208,0.7293c-0.2749,0.0977 -1.2182,0.3732 -1.7593,1.2296c-0.5417,0.858 -0.4099,1.2197 -0.0465,1.5299c0.3649,0.3111 0.5489,0.9985 0.8316,1.7789c0.1468,0.4058 0.4321,0.7562 -0.185,1.0105c-0.3158,0.1271 -0.9221,0.0238 -1.7878,-0.3597c-0.5205,-0.2321 0.0232,-0.2001 0.3773,-0.2631c0.3561,-0.0651 1.0285,-0.4667 0.7215,-1.2384c-0.3086,-0.7685 -0.567,-0.9593 -0.7634,-1.2378c-0.1928,-0.2755 -0.3458,-0.3453 -1.0999,0.2698c-0.7515,0.6202 -0.8388,1.3438 -3.0949,1.4663c-0.4506,0.0232 0.2564,-0.6926 1.5547,-1.7242c1.2947,-1.0358 1.8369,-1.4503 2.3321,-1.8225c0.4992,-0.3685 0.0956,-1.1339 -0.3608,-0.6553c-0.4584,0.4786 -0.5391,0.951 -1.2844,0.7163c-0.7473,-0.2372 -0.5783,-0.5514 0.0993,-1.2988c0.676,-0.7458 2.3615,-3.4965 2.8907,-4.8227c0.2279,-0.567 -0.0005,-0.7892 -0.5923,-0.0703c-0.5897,0.7179 -1.6146,1.4647 -2.3791,2.4033c-0.5969,0.7298 -0.7086,1.2632 -1.6823,0.9211c-0.9763,-0.3401 -0.3789,-0.5246 0.0108,-0.6652c0.3903,-0.1416 1.2141,-1.0043 1.5614,-1.6994c0.3489,-0.6921 0.092,-0.8828 -0.3897,-0.6456c-0.4822,0.2378 -0.4269,-0.1307 -0.553,-0.3995c-0.1302,-0.2682 0.0455,-0.3949 0.4367,-0.5349c0.3903,-0.1406 0.274,-0.4455 0.4208,-0.8435c0.1571,-0.4362 0.1602,-0.5949 0.3721,-0.7991c0.2114,-0.1995 0.1246,-0.7055 -0.6833,-0.4134c-0.8088,0.2909 -0.751,0.3654 -1.0166,-0.1065c-0.2631,-0.4724 -0.7779,-0.3809 -0.3422,-0.6011c0.215,-0.108 0.6161,0.661 0.7825,-0.185c0.1003,-0.5143 0.7469,-1.5542 0.8378,-2.3036c0.0626,-0.5003 -0.1659,-0.7076 -0.6284,-1.0513c-0.4544,-0.3359 -0.4662,-0.661 -0.0274,-0.4305zm1.8575,5.5044c-0.007,0.4145 0.0791,1.1965 -0.5778,1.2787c-0.5412,0.0718 -0.3525,-0.629 -0.1013,-1.1598c0.2465,-0.5293 0.6869,-0.5308 0.6791,-0.1189z"/>
   <path stroke="null" fill="#0076be" fill-rule="evenodd" id="path4" d="m831.9732,333.59l-0.5615,0c-0.05,-0.1974 -0.1363,-0.4283 -0.264,-0.6978c-0.128,-0.2668 -0.2695,-0.5225 -0.4282,-0.7617c-0.164,-0.2502 -0.3417,-0.4673 -0.5335,-0.656c-0.1919,-0.1864 -0.3783,-0.2947 -0.5587,-0.3199c-0.1671,-0.0221 -0.3783,-0.039 -0.634,-0.0501c-0.2557,-0.011 -0.4921,-0.0165 -0.7088,-0.0165l-0.4729,0l0,9.2431c0,0.1808 0.039,0.3448 0.1143,0.4949c0.0749,0.1473 0.2084,0.2644 0.4003,0.3447c0.0973,0.039 0.3003,0.0891 0.6143,0.1557c0.3113,0.0642 0.5532,0.1 0.7281,0.1056l0,0.5784l-5.4571,0l0,-0.5784c0.1533,-0.0111 0.3838,-0.0331 0.6978,-0.0639c0.3117,-0.0331 0.5257,-0.0748 0.645,-0.1221c0.1809,-0.0725 0.3113,-0.1726 0.3976,-0.3058c0.0835,-0.1335 0.1253,-0.3116 0.1253,-0.5339l0,-9.3183l-0.4728,0c-0.1694,0 -0.3779,0.005 -0.6281,0.0138c-0.2474,0.008 -0.4866,0.0252 -0.7147,0.0528c-0.1805,0.0224 -0.3668,0.128 -0.5587,0.3199c-0.1919,0.1947 -0.3696,0.4114 -0.5335,0.656c-0.1643,0.2447 -0.3058,0.5032 -0.4311,0.7782c-0.1249,0.2754 -0.2112,0.5004 -0.2612,0.6813l-0.5701,0l0,-3.136l10.0662,0l0,3.136z"/>
   <path stroke="null" fill="#0076be" fill-rule="evenodd" id="path6" d="m845.0993,342.0104l-4.812,0l0,-0.5784c0.4224,-0.0276 0.7726,-0.0804 1.0536,-0.1639c0.2809,-0.0804 0.4196,-0.1805 0.4196,-0.3003c0,-0.05 -0.006,-0.1083 -0.0166,-0.1777c-0.011,-0.0725 -0.0275,-0.1336 -0.05,-0.1891l-0.959,-2.5883l-4.0477,0c-0.1529,0.3783 -0.275,0.7089 -0.3724,0.9925c-0.0945,0.281 -0.1808,0.5422 -0.2557,0.7814c-0.0697,0.2332 -0.1198,0.4251 -0.1473,0.5697c-0.0253,0.1474 -0.0391,0.2668 -0.0391,0.3586c0,0.2167 0.1695,0.3865 0.5115,0.5059c0.342,0.1197 0.7285,0.1891 1.1564,0.2112l0,0.5784l-4.3479,0l0,-0.5784c0.1418,-0.0111 0.3172,-0.0414 0.5283,-0.0942c0.2112,-0.05 0.3866,-0.1198 0.5225,-0.2061c0.2171,-0.1469 0.3838,-0.3002 0.5032,-0.4614c0.1197,-0.1611 0.2364,-0.3806 0.3502,-0.6643c0.5812,-1.4484 1.2234,-3.0772 1.924,-4.8873c0.7006,-1.8069 1.3231,-3.4164 1.8735,-4.8286l0.6505,0l3.8531,9.9689c0.0808,0.2112 0.1726,0.3838 0.2754,0.5142c0.1056,0.1308 0.2475,0.2557 0.4334,0.381c0.1253,0.0776 0.2865,0.1418 0.4866,0.1919c0.203,0.0528 0.3696,0.0803 0.5059,0.0859l0,0.5784zm-4.6592,-4.723l-1.7513,-4.4815l-1.7179,4.4815l3.4692,0z"/>
   <path stroke="null" fill="#0076be" fill-rule="evenodd" id="path8" d="m851.9871,342.0104l-5.2069,0l0,-0.5784c0.1474,-0.0111 0.3586,-0.0276 0.6367,-0.0501c0.2778,-0.0193 0.4725,-0.0528 0.5863,-0.0969c0.1781,-0.0697 0.3085,-0.1671 0.3921,-0.2892c0.0807,-0.1225 0.1193,-0.292 0.1193,-0.5087l0,-8.3735c0,-0.1887 -0.0275,-0.3475 -0.0886,-0.4752c-0.0583,-0.128 -0.2002,-0.2336 -0.4228,-0.3227c-0.1639,-0.0638 -0.3668,-0.1249 -0.6142,-0.1832c-0.2475,-0.0555 -0.4504,-0.089 -0.6088,-0.1001l0,-0.5784l5.2069,0l0,0.5784c-0.1698,0.005 -0.37,0.0249 -0.6033,0.0611c-0.2336,0.0335 -0.4365,0.0808 -0.6115,0.1336c-0.206,0.0666 -0.3447,0.1722 -0.4145,0.3168c-0.0721,0.1473 -0.1056,0.3112 -0.1056,0.4893l0,8.3649c0,0.1777 0.0391,0.3365 0.1167,0.4752c0.078,0.139 0.2143,0.2501 0.4034,0.3309c0.1139,0.0445 0.3003,0.0918 0.5588,0.1419c0.2557,0.0528 0.4751,0.0803 0.656,0.0859l0,0.5784z"/>
   <path stroke="null" fill="#0076be" fill-rule="evenodd" id="path10" d="m864.7629,331.0324c-0.0945,0.005 -0.2391,0.0418 -0.442,0.1084c-0.2002,0.0693 -0.3448,0.1363 -0.4311,0.2001c-0.2112,0.1309 -0.3558,0.2309 -0.4306,0.303c-0.0753,0.0694 -0.2227,0.253 -0.4394,0.5532c-0.4255,0.5977 -0.8144,1.201 -1.1733,1.8152c-0.3586,0.6147 -0.8062,1.3929 -1.3452,2.3381c-0.2002,0.3475 -0.3337,0.6253 -0.3976,0.8396c-0.0669,0.2112 -0.0973,0.517 -0.0973,0.9201l0,2.2072c0,0.1946 0.0386,0.3641 0.1167,0.5087c0.078,0.1418 0.2139,0.2588 0.403,0.3447c0.1139,0.0446 0.3168,0.0974 0.6115,0.1584c0.292,0.0642 0.5284,0.0973 0.7089,0.1029l0,0.5784l-5.4098,0l0,-0.5784c0.1532,-0.0111 0.381,-0.0304 0.6867,-0.0611c0.303,-0.0304 0.5142,-0.0694 0.634,-0.1166c0.1946,-0.0836 0.3306,-0.1947 0.4031,-0.3365c0.0721,-0.1391 0.1111,-0.3141 0.1111,-0.5197l0,-2.8105c0,-0.0863 -0.0528,-0.2447 -0.1584,-0.4756c-0.1084,-0.2305 -0.2337,-0.4893 -0.381,-0.7699c-0.3251,-0.6312 -0.6864,-1.312 -1.0812,-2.0433c-0.3975,-0.7341 -0.7423,-1.3621 -1.0343,-1.8822c-0.1808,-0.3113 -0.3392,-0.5418 -0.4779,-0.7006c-0.1391,-0.1584 -0.2975,-0.297 -0.4756,-0.4168c-0.1308,-0.0804 -0.2864,-0.1419 -0.4696,-0.1864c-0.1809,-0.0441 -0.3448,-0.0693 -0.4922,-0.0804l0,-0.5784l4.9287,0l0,0.5784c-0.5559,0.0111 -0.9452,0.0473 -1.1729,0.1139c-0.2282,0.0638 -0.342,0.1556 -0.342,0.2754c0,0.0331 0.0165,0.0914 0.0472,0.1722c0.0335,0.0808 0.0808,0.1836 0.1391,0.3085c0.0694,0.1419 0.1557,0.303 0.253,0.4866c0.0973,0.1809 0.1891,0.3558 0.275,0.5252c0.2557,0.4811 0.5173,0.965 0.7841,1.4457c0.264,0.4783 0.6115,1.1036 1.0425,1.8766c0.8507,-1.3735 1.5012,-2.4464 1.9488,-3.2135c0.4476,-0.7676 0.6726,-1.2289 0.6726,-1.3818c0,-0.1222 -0.0473,-0.2254 -0.1391,-0.3003c-0.0918,-0.0752 -0.2139,-0.1363 -0.3668,-0.1781c-0.1556,-0.0441 -0.3282,-0.0721 -0.5114,-0.0858c-0.1864,-0.0142 -0.3558,-0.028 -0.5146,-0.0446l0,-0.5784l4.0173,0l0,0.5784z"/>
   <path stroke="null" fill="#0076be" fill-rule="evenodd" id="path12" d="m878.2279,331.0324c-0.1501,0.005 -0.3751,0.0363 -0.667,0.0974c-0.292,0.0583 -0.5312,0.1501 -0.7171,0.2695c-0.1836,0.1253 -0.3117,0.381 -0.3838,0.773c-0.0693,0.3917 -0.1056,0.8672 -0.1056,1.4342l0,5.0236c0,0.6419 -0.1308,1.1978 -0.3976,1.6707c-0.2667,0.4724 -0.617,0.8589 -1.0508,1.1647c-0.4283,0.2919 -0.8814,0.5031 -1.3566,0.6312c-0.4755,0.1276 -0.9287,0.1918 -1.3648,0.1918c-0.6951,0 -1.3125,-0.0918 -1.857,-0.2754c-0.5422,-0.1808 -0.998,-0.4251 -1.368,-0.7368c-0.3641,-0.3085 -0.6364,-0.6615 -0.8227,-1.0618c-0.1836,-0.4003 -0.2754,-0.8145 -0.2754,-1.251l0,-6.833c0,-0.1891 -0.0331,-0.3475 -0.0946,-0.4755c-0.0611,-0.1277 -0.1887,-0.2447 -0.3779,-0.3558c-0.1363,-0.0749 -0.3112,-0.1364 -0.5228,-0.1805c-0.2112,-0.0473 -0.3834,-0.0752 -0.5197,-0.0863l0,-0.5784l4.8121,0l0,0.5784c-0.1502,0.005 -0.342,0.0304 -0.5725,0.0721c-0.2309,0.0446 -0.4004,0.0836 -0.5087,0.1226c-0.1864,0.0666 -0.3089,0.1749 -0.3727,0.325c-0.0611,0.1529 -0.0919,0.32 -0.0919,0.4977l0,6.3857c0,0.3085 0.0335,0.6336 0.1001,0.9728c0.0698,0.3393 0.2029,0.656 0.4031,0.948c0.2116,0.3002 0.5004,0.5449 0.8649,0.7341c0.364,0.1887 0.8617,0.2832 1.498,0.2832c0.5977,0 1.0981,-0.0945 1.5012,-0.2832c0.4062,-0.1892 0.7258,-0.4394 0.9594,-0.7506c0.2222,-0.292 0.3779,-0.5978 0.4724,-0.9204c0.0918,-0.3196 0.1364,-0.6423 0.1364,-0.9673l0,-4.74c0,-0.6032 -0.0418,-1.0953 -0.1309,-1.4787c-0.0862,-0.3838 -0.2139,-0.634 -0.3806,-0.7534c-0.1919,-0.1363 -0.4503,-0.2419 -0.7785,-0.3172c-0.3283,-0.0776 -0.5785,-0.1193 -0.7534,-0.1304l0,-0.5784l4.723,0l0,0.5784z"/>
   <path stroke="null" fill="#0076be" fill-rule="evenodd" id="path14" d="m891.3541,342.0104l-4.8121,0l0,-0.5784c0.4224,-0.0276 0.7727,-0.0804 1.0536,-0.1639c0.2809,-0.0804 0.4196,-0.1805 0.4196,-0.3003c0,-0.05 -0.005,-0.1083 -0.0165,-0.1777c-0.0111,-0.0725 -0.0276,-0.1336 -0.0501,-0.1891l-0.959,-2.5883l-4.0477,0c-0.1529,0.3783 -0.275,0.7089 -0.3723,0.9925c-0.0946,0.281 -0.1809,0.5422 -0.2557,0.7814c-0.0698,0.2332 -0.1198,0.4251 -0.1474,0.5697c-0.0252,0.1474 -0.039,0.2668 -0.039,0.3586c0,0.2167 0.1694,0.3865 0.5114,0.5059c0.342,0.1197 0.7285,0.1891 1.1564,0.2112l0,0.5784l-4.3479,0l0,-0.5784c0.1419,-0.0111 0.3172,-0.0414 0.5284,-0.0942c0.2112,-0.05 0.3865,-0.1198 0.5224,-0.2061c0.2171,-0.1469 0.3838,-0.3002 0.5032,-0.4614c0.1198,-0.1611 0.2364,-0.3806 0.3503,-0.6643c0.5811,-1.4484 1.2234,-3.0772 1.9239,-4.8873c0.7006,-1.8069 1.3231,-3.4164 1.8736,-4.8286l0.6505,0l3.853,9.9689c0.0808,0.2112 0.1726,0.3838 0.2754,0.5142c0.1056,0.1308 0.2475,0.2557 0.4335,0.381c0.1253,0.0776 0.2864,0.1418 0.4866,0.1919c0.2029,0.0528 0.3696,0.0803 0.5059,0.0859l0,0.5784zm-4.6592,-4.723l-1.7514,-4.4815l-1.7179,4.4815l3.4693,0z"/>
   <path stroke="null" fill="#0076be" fill-rule="evenodd" id="path16" d="m905.05,331.0324c-0.1529,0.005 -0.3866,0.0473 -0.7006,0.1304c-0.3144,0.0808 -0.5422,0.1644 -0.6757,0.2502c-0.1974,0.1364 -0.3278,0.3976 -0.3948,0.7841c-0.0694,0.3838 -0.1029,0.8732 -0.1029,1.465l0,8.4621l-0.7088,0l-7.0028,-9.4543l0,5.9602c0,0.6671 0.0418,1.1813 0.1253,1.5398c0.0832,0.3586 0.214,0.6147 0.3865,0.7648c0.1249,0.1194 0.3834,0.2305 0.7727,0.3334c0.392,0.1055 0.6505,0.1583 0.7754,0.1639l0,0.5784l-4.7396,0l0,-0.5784c0.1446,-0.0111 0.3921,-0.0639 0.7396,-0.1584c0.3475,-0.0946 0.5642,-0.1805 0.6533,-0.2557c0.1887,-0.1529 0.3195,-0.3866 0.3889,-0.6978c0.0725,-0.3113 0.106,-0.8452 0.106,-1.6013l0,-5.6903c0,-0.2502 -0.0418,-0.5004 -0.1309,-0.7506c-0.0862,-0.2502 -0.2029,-0.4421 -0.3502,-0.5784c-0.1947,-0.1777 -0.4587,-0.3337 -0.7924,-0.4614c-0.3337,-0.1253 -0.6032,-0.1946 -0.8117,-0.2057l0,-0.5784l3.2999,0l6.4996,8.8125l0,-5.4988c0,-0.6726 -0.0445,-1.1896 -0.1308,-1.5513c-0.0863,-0.3613 -0.2112,-0.6004 -0.3755,-0.7198c-0.1529,-0.1029 -0.4003,-0.2029 -0.7447,-0.303c-0.3447,-0.0973 -0.6063,-0.1501 -0.7868,-0.1612l0,-0.5784l4.701,0l0,0.5784z"/>
   <path stroke="null" fill="#0076be" fill-rule="evenodd" id="path18" d="m924.5516,331.0324c-0.1501,0.005 -0.3751,0.0363 -0.667,0.0974c-0.292,0.0583 -0.5312,0.1501 -0.7171,0.2695c-0.1837,0.1253 -0.3117,0.381 -0.3838,0.773c-0.0694,0.3917 -0.1056,0.8672 -0.1056,1.4342l0,5.0236c0,0.6419 -0.1308,1.1978 -0.3976,1.6707c-0.2667,0.4724 -0.617,0.8589 -1.0508,1.1647c-0.4283,0.2919 -0.8814,0.5031 -1.3566,0.6312c-0.4756,0.1276 -0.9287,0.1918 -1.3648,0.1918c-0.6951,0 -1.3125,-0.0918 -1.857,-0.2754c-0.5422,-0.1808 -0.9981,-0.4251 -1.368,-0.7368c-0.3641,-0.3085 -0.6364,-0.6615 -0.8227,-1.0618c-0.1836,-0.4003 -0.2755,-0.8145 -0.2755,-1.251l0,-6.833c0,-0.1891 -0.033,-0.3475 -0.0945,-0.4755c-0.0611,-0.1277 -0.1887,-0.2447 -0.3779,-0.3558c-0.1363,-0.0749 -0.3112,-0.1364 -0.5228,-0.1805c-0.2112,-0.0473 -0.3834,-0.0752 -0.5197,-0.0863l0,-0.5784l4.812,0l0,0.5784c-0.1501,0.005 -0.342,0.0304 -0.5725,0.0721c-0.2308,0.0446 -0.4003,0.0836 -0.5086,0.1226c-0.1864,0.0666 -0.3089,0.1749 -0.3728,0.325c-0.061,0.1529 -0.0918,0.32 -0.0918,0.4977l0,6.3857c0,0.3085 0.0335,0.6336 0.1001,0.9728c0.0698,0.3393 0.2029,0.656 0.4031,0.948c0.2116,0.3002 0.5004,0.5449 0.8648,0.7341c0.3641,0.1887 0.8618,0.2832 1.4981,0.2832c0.5977,0 1.0981,-0.0945 1.5012,-0.2832c0.4062,-0.1892 0.7257,-0.4394 0.9594,-0.7506c0.2222,-0.292 0.3779,-0.5978 0.4724,-0.9204c0.0918,-0.3196 0.1363,-0.6423 0.1363,-0.9673l0,-4.74c0,-0.6032 -0.0417,-1.0953 -0.1308,-1.4787c-0.0863,-0.3838 -0.2139,-0.634 -0.3806,-0.7534c-0.1919,-0.1363 -0.4503,-0.2419 -0.7786,-0.3172c-0.3282,-0.0776 -0.5784,-0.1193 -0.7533,-0.1304l0,-0.5784l4.723,0l0,0.5784z"/>
   <path stroke="null" fill="#0076be" fill-rule="evenodd" id="path20" d="m938.2684,331.0324c-0.1529,0.005 -0.3865,0.0473 -0.7006,0.1304c-0.3144,0.0808 -0.5421,0.1644 -0.6757,0.2502c-0.1974,0.1364 -0.3278,0.3976 -0.3948,0.7841c-0.0693,0.3838 -0.1028,0.8732 -0.1028,1.465l0,8.4621l-0.7089,0l-7.0028,-9.4543l0,5.9602c0,0.6671 0.0418,1.1813 0.1253,1.5398c0.0832,0.3586 0.214,0.6147 0.3866,0.7648c0.1249,0.1194 0.3833,0.2305 0.7726,0.3334c0.3921,0.1055 0.6505,0.1583 0.7754,0.1639l0,0.5784l-4.7395,0l0,-0.5784c0.1446,-0.0111 0.392,-0.0639 0.7395,-0.1584c0.3475,-0.0946 0.5643,-0.1805 0.6533,-0.2557c0.1887,-0.1529 0.3195,-0.3866 0.3889,-0.6978c0.0725,-0.3113 0.106,-0.8452 0.106,-1.6013l0,-5.6903c0,-0.2502 -0.0418,-0.5004 -0.1308,-0.7506c-0.0863,-0.2502 -0.2029,-0.4421 -0.3503,-0.5784c-0.1946,-0.1777 -0.4586,-0.3337 -0.7924,-0.4614c-0.3337,-0.1253 -0.6032,-0.1946 -0.8116,-0.2057l0,-0.5784l3.2998,0l6.4997,8.8125l0,-5.4988c0,-0.6726 -0.0446,-1.1896 -0.1309,-1.5513c-0.0862,-0.3613 -0.2111,-0.6004 -0.3754,-0.7198c-0.1529,-0.1029 -0.4004,-0.2029 -0.7447,-0.303c-0.3448,-0.0973 -0.6064,-0.1501 -0.7869,-0.1612l0,-0.5784l4.701,0l0,0.5784z"/>
   <path stroke="null" fill="#0076be" fill-rule="evenodd" id="path22" d="m945.1849,342.0104l-5.2069,0l0,-0.5784c0.1474,-0.0111 0.3586,-0.0276 0.6367,-0.0501c0.2778,-0.0193 0.4725,-0.0528 0.5863,-0.0969c0.1781,-0.0697 0.3085,-0.1671 0.3921,-0.2892c0.0807,-0.1225 0.1194,-0.292 0.1194,-0.5087l0,-8.3735c0,-0.1887 -0.0276,-0.3475 -0.0887,-0.4752c-0.0583,-0.128 -0.2002,-0.2336 -0.4228,-0.3227c-0.1639,-0.0638 -0.3668,-0.1249 -0.6142,-0.1832c-0.2475,-0.0555 -0.4504,-0.089 -0.6088,-0.1001l0,-0.5784l5.2069,0l0,0.5784c-0.1698,0.005 -0.37,0.0249 -0.6032,0.0611c-0.2337,0.0335 -0.4366,0.0808 -0.6116,0.1336c-0.206,0.0666 -0.3447,0.1722 -0.4145,0.3168c-0.0721,0.1473 -0.1055,0.3112 -0.1055,0.4893l0,8.3649c0,0.1777 0.039,0.3365 0.1166,0.4752c0.078,0.139 0.2143,0.2501 0.4034,0.3309c0.1139,0.0445 0.3003,0.0918 0.5588,0.1419c0.2557,0.0528 0.4751,0.0803 0.656,0.0859l0,0.5784z"/>
   <path stroke="null" fill="#0076be" fill-rule="evenodd" id="path24" d="m958.2232,331.0324c-0.1419,0.005 -0.3113,0.0363 -0.5115,0.0918c-0.2029,0.0584 -0.3672,0.1277 -0.4976,0.2085c-0.1864,0.1138 -0.3337,0.2612 -0.4448,0.4393c-0.1112,0.1804 -0.2199,0.3916 -0.331,0.6363c-0.3613,0.8621 -0.909,2.2073 -1.6344,4.0367c-0.7285,1.8262 -1.4791,3.7305 -2.249,5.7127l-0.6757,0c-0.781,-2.1016 -1.5375,-4.128 -2.2656,-6.0768c-0.7258,-1.9488 -1.2203,-3.2667 -1.4819,-3.9504c-0.0638,-0.167 -0.1501,-0.3144 -0.2612,-0.442c-0.1084,-0.1281 -0.2502,-0.2502 -0.4311,-0.3641c-0.1469,-0.0918 -0.3085,-0.1616 -0.4889,-0.2057c-0.1781,-0.0473 -0.3448,-0.0752 -0.4949,-0.0863l0,-0.5784l4.7786,0l0,0.5784c-0.4059,0.0221 -0.7506,0.0611 -1.0284,0.1222c-0.2809,0.0583 -0.42,0.1643 -0.42,0.3172c0,0.0583 0.0114,0.1304 0.0335,0.2111c0.0193,0.0804 0.039,0.1474 0.0555,0.1947c0.2002,0.5335 0.5284,1.4011 0.9788,2.602c0.4503,1.2037 1.0894,2.9161 1.9208,5.1372c0.4141,-1.0064 0.8869,-2.1908 1.4259,-3.5611c0.5366,-1.3676 0.898,-2.3073 1.0816,-2.816c0.1808,-0.4949 0.2864,-0.8369 0.314,-1.026c0.0307,-0.1915 0.0445,-0.3444 0.0445,-0.4642c0,-0.1249 -0.0555,-0.2305 -0.1667,-0.314c-0.1111,-0.0835 -0.2584,-0.1556 -0.442,-0.2167c-0.1809,-0.0532 -0.3613,-0.0946 -0.5477,-0.1225c-0.1836,-0.0276 -0.3696,-0.0473 -0.5615,-0.0639l0,-0.5784l4.3007,0l0,0.5784z"/>
   <path stroke="null" fill="#0076be" fill-rule="evenodd" id="path26" d="m969.3237,338.6049l-0.2195,3.4055l-9.5938,0l0,-0.5784c0.1639,-0.0111 0.381,-0.0331 0.6505,-0.0694c0.2723,-0.0362 0.4476,-0.0721 0.5312,-0.1083c0.1721,-0.0836 0.2943,-0.1892 0.3613,-0.3196c0.0693,-0.1308 0.1028,-0.2947 0.1028,-0.4949l0,-8.3093c0,-0.1781 -0.0307,-0.3364 -0.089,-0.4755c-0.0611,-0.1391 -0.1864,-0.2502 -0.3751,-0.3393c-0.1474,-0.0693 -0.3448,-0.1331 -0.5923,-0.1859c-0.2474,-0.0556 -0.442,-0.0863 -0.5894,-0.0974l0,-0.5784l8.9433,0l0,2.7857l-0.6119,0c-0.1083,-0.4141 -0.3448,-0.8507 -0.7033,-1.3148c-0.3613,-0.4646 -0.7061,-0.7203 -1.0311,-0.7621c-0.1699,-0.022 -0.37,-0.0386 -0.6033,-0.05c-0.2336,-0.011 -0.4976,-0.0165 -0.7978,-0.0165l-1.8157,0l0,4.5953l1.3042,0c0.4169,0 0.7226,-0.0418 0.9145,-0.1198c0.1919,-0.0776 0.3613,-0.2112 0.5087,-0.3944c0.1194,-0.1588 0.2222,-0.3672 0.3058,-0.6312c0.0835,-0.264 0.139,-0.5114 0.1666,-0.7451l0.6119,0l0,4.5201l-0.6119,0c-0.022,-0.2612 -0.0804,-0.5362 -0.1749,-0.8282c-0.0946,-0.2892 -0.1947,-0.5004 -0.2975,-0.6312c-0.1667,-0.2112 -0.3586,-0.3502 -0.5729,-0.4141c-0.2139,-0.0638 -0.5004,-0.0973 -0.8503,-0.0973l-1.3042,0l0,3.4693c0,0.3475 0.0253,0.6229 0.0725,0.8231c0.0501,0.2001 0.1446,0.353 0.2865,0.4558c0.1387,0.1029 0.3333,0.1695 0.578,0.2002c0.2447,0.0276 0.5922,0.0445 1.0426,0.0445c0.1781,0 0.4141,0 0.7088,0c0.292,0 0.5394,-0.0114 0.7396,-0.0335c0.2056,-0.022 0.4196,-0.0611 0.6394,-0.1166c0.2195,-0.0583 0.3751,-0.1363 0.4697,-0.2337c0.2474,-0.2612 0.5114,-0.656 0.7841,-1.1844c0.275,-0.5307 0.4503,-0.92 0.5252,-1.1702l0.5867,0z"/>
   <path stroke="null" fill="#0076be" fill-rule="evenodd" id="path28" d="m982.6902,342.0104l-3.1108,0c-0.6895,-1.0816 -1.3124,-2.0154 -1.8711,-2.8022c-0.556,-0.7869 -1.1592,-1.5985 -1.8097,-2.4354l-1.1817,0l0,3.667c0,0.1888 0.0308,0.3558 0.0891,0.5004c0.0583,0.1415 0.1863,0.253 0.3837,0.3279c0.0974,0.039 0.2668,0.0752 0.5115,0.1055c0.2447,0.0335 0.4503,0.0528 0.6198,0.0584l0,0.5784l-4.887,0l0,-0.5784c0.1308,-0.0111 0.3196,-0.0304 0.567,-0.0584c0.2474,-0.0248 0.42,-0.061 0.5173,-0.1055c0.1612,-0.0694 0.2806,-0.1722 0.3531,-0.3086c0.0748,-0.1363 0.1111,-0.3085 0.1111,-0.5197l0,-8.3565c0,-0.1919 -0.028,-0.3586 -0.0835,-0.506c-0.0528,-0.1473 -0.1805,-0.2584 -0.3807,-0.3337c-0.1363,-0.05 -0.3144,-0.0945 -0.5311,-0.1335c-0.2167,-0.0414 -0.4003,-0.0666 -0.5532,-0.0777l0,-0.5784l5.3346,0c0.4893,0 0.948,0.0501 1.3762,0.1501c0.4279,0.1001 0.8172,0.2613 1.1647,0.4839c0.3365,0.2167 0.606,0.5004 0.8062,0.8507c0.2002,0.3502 0.303,0.7726 0.303,1.2675c0,0.4448 -0.0694,0.8396 -0.2057,1.1816c-0.1363,0.342 -0.3365,0.6368 -0.6005,0.8869c-0.2446,0.2333 -0.5394,0.4362 -0.881,0.606c-0.342,0.1722 -0.7202,0.3168 -1.1316,0.4362c0.5698,0.7561 1.0426,1.3901 1.4204,1.907c0.3783,0.5146 0.8397,1.1427 1.3901,1.8795c0.2392,0.3278 0.4531,0.5669 0.6478,0.7226c0.1919,0.1528 0.3837,0.2809 0.5729,0.3782c0.1414,0.0694 0.3168,0.1249 0.5307,0.1639c0.2112,0.0363 0.3865,0.0583 0.5284,0.0639l0,0.5784zm-4.2841,-8.6178c0,-0.7006 -0.2002,-1.2538 -0.6033,-1.6651c-0.4003,-0.4086 -0.97,-0.6147 -1.7013,-0.6147l-1.3846,0l0,4.9594l1.0678,0c0.7478,0 1.3731,-0.2387 1.8708,-0.7198c0.5004,-0.4811 0.7506,-1.1344 0.7506,-1.9598z"/>
   <path stroke="null" fill="#0076be" fill-rule="evenodd" id="path30" d="m991.2584,336.7089c0.2443,0.2699 0.4251,0.567 0.5417,0.8925c0.1171,0.3223 0.1754,0.6978 0.1754,1.1257c0,1.0232 -0.3783,1.8629 -1.1316,2.5272c-0.7561,0.6615 -1.6931,0.9925 -2.8105,0.9925c-0.517,0 -1.0311,-0.0808 -1.5485,-0.2392c-0.5142,-0.1611 -0.959,-0.3558 -1.3341,-0.5839l-0.3503,0.5949l-0.6533,0l-0.1142,-3.9586l0.6615,0c0.1363,0.4894 0.2947,0.9315 0.4756,1.3235c0.1836,0.3944 0.4224,0.7616 0.7199,1.1036c0.2836,0.3196 0.6146,0.5753 0.9897,0.7672c0.3783,0.1891 0.8172,0.2836 1.3148,0.2836c0.3755,0 0.7033,-0.05 0.9815,-0.1473c0.281,-0.0973 0.5087,-0.2364 0.6813,-0.4145c0.1749,-0.1805 0.303,-0.3889 0.3861,-0.6308c0.0863,-0.2419 0.1281,-0.5201 0.1281,-0.8341c0,-0.4614 -0.1309,-0.8925 -0.3921,-1.2928c-0.2612,-0.3976 -0.6477,-0.7005 -1.1647,-0.9062c-0.353,-0.1419 -0.7561,-0.2975 -1.212,-0.4697c-0.4562,-0.1698 -0.8506,-0.3337 -1.1816,-0.4838c-0.6533,-0.2947 -1.1592,-0.6781 -1.5205,-1.1537c-0.359,-0.4752 -0.5394,-1.0953 -0.5394,-1.8597c0,-0.4393 0.089,-0.8507 0.2667,-1.2317c0.1809,-0.3779 0.4366,-0.7171 0.7672,-1.0173c0.3144,-0.2806 0.6867,-0.5032 1.115,-0.6643c0.4279,-0.1584 0.8755,-0.2392 1.3428,-0.2392c0.5335,0 1.0091,0.0808 1.4315,0.2447c0.4196,0.1611 0.8034,0.353 1.1509,0.5697l0.3337,-0.5532l0.6533,0l0.0638,3.8365l-0.6588,0c-0.1194,-0.4421 -0.2557,-0.8617 -0.403,-1.262c-0.1502,-0.4031 -0.3448,-0.7675 -0.584,-1.0926c-0.2332,-0.314 -0.5169,-0.567 -0.8534,-0.7533c-0.3365,-0.1864 -0.7506,-0.281 -1.24,-0.281c-0.5142,0 -0.9535,0.1639 -1.3175,0.4977c-0.3641,0.3309 -0.5477,0.734 -0.5477,1.2119c0,0.5004 0.117,0.9149 0.3503,1.2427c0.2336,0.3283 0.5729,0.5978 1.0204,0.809c0.3945,0.1918 0.7837,0.3557 1.1675,0.4948c0.3838,0.1364 0.7534,0.2865 1.1119,0.4421c0.3255,0.1419 0.6395,0.303 0.9397,0.4811c0.303,0.1805 0.5643,0.3889 0.7869,0.628z"/>
   <path stroke="null" fill="#0076be" fill-rule="evenodd" id="path32" d="m999.4038,342.0104l-5.2069,0l0,-0.5784c0.1474,-0.0111 0.3586,-0.0276 0.6367,-0.0501c0.2778,-0.0193 0.4725,-0.0528 0.5863,-0.0969c0.1781,-0.0697 0.3086,-0.1671 0.3921,-0.2892c0.0808,-0.1225 0.1194,-0.292 0.1194,-0.5087l0,-8.3735c0,-0.1887 -0.0276,-0.3475 -0.0887,-0.4752c-0.0583,-0.128 -0.2001,-0.2336 -0.4228,-0.3227c-0.1639,-0.0638 -0.3668,-0.1249 -0.6142,-0.1832c-0.2475,-0.0555 -0.4504,-0.089 -0.6088,-0.1001l0,-0.5784l5.2069,0l0,0.5784c-0.1698,0.005 -0.37,0.0249 -0.6032,0.0611c-0.2337,0.0335 -0.4366,0.0808 -0.6115,0.1336c-0.2061,0.0666 -0.3448,0.1722 -0.4145,0.3168c-0.0721,0.1473 -0.1056,0.3112 -0.1056,0.4893l0,8.3649c0,0.1777 0.039,0.3365 0.1166,0.4752c0.078,0.139 0.2143,0.2501 0.4035,0.3309c0.1138,0.0445 0.3002,0.0918 0.5587,0.1419c0.2557,0.0528 0.4752,0.0803 0.656,0.0859l0,0.5784z"/>
   <path stroke="null" fill="#0076be" fill-rule="evenodd" id="path34" d="m1011.1714,333.59l-0.5615,0c-0.05,-0.1974 -0.1363,-0.4283 -0.264,-0.6978c-0.128,-0.2668 -0.2695,-0.5225 -0.4283,-0.7617c-0.1639,-0.2502 -0.3416,-0.4673 -0.5335,-0.656c-0.1918,-0.1864 -0.3782,-0.2947 -0.5587,-0.3199c-0.167,-0.0221 -0.3782,-0.039 -0.6339,-0.0501c-0.2557,-0.011 -0.4922,-0.0165 -0.7089,-0.0165l-0.4728,0l0,9.2431c0,0.1808 0.039,0.3448 0.1143,0.4949c0.0749,0.1473 0.2084,0.2644 0.4003,0.3447c0.0973,0.039 0.3002,0.0891 0.6143,0.1557c0.3112,0.0642 0.5532,0.1 0.7281,0.1056l0,0.5784l-5.4571,0l0,-0.5784c0.1533,-0.0111 0.3838,-0.0331 0.6978,-0.0639c0.3117,-0.0331 0.5256,-0.0748 0.645,-0.1221c0.1809,-0.0725 0.3113,-0.1726 0.3976,-0.3058c0.0835,-0.1335 0.1253,-0.3116 0.1253,-0.5339l0,-9.3183l-0.4728,0c-0.1695,0 -0.3779,0.005 -0.6281,0.0138c-0.2474,0.008 -0.4866,0.0252 -0.7147,0.0528c-0.1805,0.0224 -0.3669,0.128 -0.5587,0.3199c-0.1919,0.1947 -0.3696,0.4114 -0.5335,0.656c-0.1643,0.2447 -0.3058,0.5032 -0.4311,0.7782c-0.1249,0.2754 -0.2112,0.5004 -0.2612,0.6813l-0.5701,0l0,-3.136l10.0662,0l0,3.136z"/>
   <path stroke="null" fill="#0076be" fill-rule="evenodd" id="path36" d="m1022.9339,331.0324c-0.0946,0.005 -0.2392,0.0418 -0.4421,0.1084c-0.2002,0.0693 -0.3448,0.1363 -0.4311,0.2001c-0.2112,0.1309 -0.3558,0.2309 -0.4306,0.303c-0.0753,0.0694 -0.2227,0.253 -0.4394,0.5532c-0.4255,0.5977 -0.8144,1.201 -1.1733,1.8152c-0.3586,0.6147 -0.8062,1.3929 -1.3452,2.3381c-0.2001,0.3475 -0.3337,0.6253 -0.3975,0.8396c-0.067,0.2112 -0.0974,0.517 -0.0974,0.9201l0,2.2072c0,0.1946 0.0386,0.3641 0.1167,0.5087c0.078,0.1418 0.2139,0.2588 0.403,0.3447c0.1139,0.0446 0.3168,0.0974 0.6115,0.1584c0.292,0.0642 0.5284,0.0973 0.7089,0.1029l0,0.5784l-5.4098,0l0,-0.5784c0.1532,-0.0111 0.381,-0.0304 0.6867,-0.0611c0.303,-0.0304 0.5142,-0.0694 0.634,-0.1166c0.1946,-0.0836 0.3306,-0.1947 0.4031,-0.3365c0.0721,-0.1391 0.1111,-0.3141 0.1111,-0.5197l0,-2.8105c0,-0.0863 -0.0528,-0.2447 -0.1584,-0.4756c-0.1084,-0.2305 -0.2337,-0.4893 -0.381,-0.7699c-0.3251,-0.6312 -0.6864,-1.312 -1.0812,-2.0433c-0.3975,-0.7341 -0.7423,-1.3621 -1.0343,-1.8822c-0.1808,-0.3113 -0.3392,-0.5418 -0.4779,-0.7006c-0.1391,-0.1584 -0.2975,-0.297 -0.4756,-0.4168c-0.1308,-0.0804 -0.2864,-0.1419 -0.4696,-0.1864c-0.1809,-0.0441 -0.3448,-0.0693 -0.4922,-0.0804l0,-0.5784l4.9287,0l0,0.5784c-0.5559,0.0111 -0.9452,0.0473 -1.1729,0.1139c-0.2282,0.0638 -0.342,0.1556 -0.342,0.2754c0,0.0331 0.0165,0.0914 0.0472,0.1722c0.0335,0.0808 0.0808,0.1836 0.1391,0.3085c0.0694,0.1419 0.1557,0.303 0.253,0.4866c0.0973,0.1809 0.1891,0.3558 0.275,0.5252c0.2557,0.4811 0.5173,0.965 0.7841,1.4457c0.264,0.4783 0.6115,1.1036 1.0426,1.8766c0.8506,-1.3735 1.5011,-2.4464 1.9487,-3.2135c0.4476,-0.7676 0.6726,-1.2289 0.6726,-1.3818c0,-0.1222 -0.0473,-0.2254 -0.1391,-0.3003c-0.0918,-0.0752 -0.2139,-0.1363 -0.3668,-0.1781c-0.1556,-0.0441 -0.3282,-0.0721 -0.5114,-0.0858c-0.1864,-0.0142 -0.3558,-0.028 -0.5146,-0.0446l0,-0.5784l4.0174,0l0,0.5784z"/>
   <path stroke="null" fill="#0076be" fill-rule="evenodd" id="path38" d="m1041.2606,331.822c0.5086,0.5308 0.909,1.173 1.1954,1.9264c0.2892,0.7505 0.4311,1.5847 0.4311,2.4964c0,0.9173 -0.1447,1.7514 -0.4394,2.4992c-0.2919,0.7506 -0.7005,1.3869 -1.2202,1.9153c-0.5059,0.5197 -1.0926,0.9228 -1.7597,1.2037c-0.6674,0.2837 -1.379,0.4255 -2.1351,0.4255c-0.8034,0 -1.5458,-0.1532 -2.227,-0.4531c-0.6809,-0.3002 -1.2648,-0.7202 -1.7542,-1.2596c-0.4889,-0.5252 -0.8727,-1.1647 -1.1536,-1.9181c-0.2778,-0.7506 -0.4196,-1.5567 -0.4196,-2.4129c0,-0.9397 0.1473,-1.7766 0.442,-2.513c0.292,-0.7368 0.6978,-1.3735 1.212,-1.9098c0.5114,-0.5311 1.1037,-0.9397 1.7794,-1.2234c0.6753,-0.2805 1.3841,-0.4224 2.121,-0.4224c0.7671,0 1.4901,0.1446 2.1682,0.4307c0.6785,0.2892 1.2648,0.6923 1.7597,1.2151zm-1.2148,8.1923c0.303,-0.4949 0.5256,-1.0536 0.6643,-1.6761c0.1391,-0.6257 0.2057,-1.3235 0.2057,-2.0934c0,-0.7924 -0.0749,-1.5205 -0.2305,-2.1824c-0.1556,-0.6643 -0.381,-1.2285 -0.6812,-1.6958c-0.2975,-0.4614 -0.6726,-0.82 -1.123,-1.0785c-0.4503,-0.2584 -0.9677,-0.3865 -1.5484,-0.3865c-0.6506,0 -1.2038,0.1501 -1.6596,0.4476c-0.4559,0.2975 -0.8286,0.6978 -1.1178,1.1982c-0.2695,0.4783 -0.4725,1.037 -0.606,1.6765c-0.1332,0.6419 -0.2002,1.3148 -0.2002,2.0209c0,0.7809 0.0725,1.4874 0.2143,2.1155c0.1387,0.6312 0.3614,1.1899 0.6671,1.6792c0.292,0.478 0.6616,0.8507 1.1064,1.1202c0.4448,0.2695 0.9787,0.4031 1.5958,0.4031c0.5807,0 1.1063,-0.1364 1.5732,-0.4086c0.4673,-0.2695 0.848,-0.6505 1.1399,-1.1399z"/>
   <path stroke="null" fill="#0076be" fill-rule="evenodd" id="path40" d="m1053.6936,333.3453l-0.6115,0c-0.1142,-0.4283 -0.3502,-0.8897 -0.7116,-1.3759c-0.3617,-0.4894 -0.7092,-0.7593 -1.0398,-0.8066c-0.167,-0.022 -0.3672,-0.0386 -0.5977,-0.05c-0.2309,-0.011 -0.4921,-0.0165 -0.7868,-0.0165l-1.9378,0l0,4.6426l1.3263,0c0.4031,0 0.7143,-0.0418 0.9369,-0.1253c0.2223,-0.0859 0.4141,-0.2139 0.5698,-0.3861c0.1083,-0.1198 0.2084,-0.3062 0.2975,-0.5591c0.089,-0.253 0.1473,-0.5225 0.1749,-0.8117l0.6202,0l0,4.537l-0.6202,0c-0.0165,-0.2391 -0.0721,-0.5086 -0.1667,-0.8144c-0.0945,-0.3034 -0.1974,-0.5228 -0.3057,-0.6592c-0.1612,-0.2001 -0.3668,-0.3388 -0.6143,-0.4113c-0.2474,-0.0721 -0.5449,-0.1111 -0.8924,-0.1111l-1.3263,0l0,3.9834c0,0.1809 0.0335,0.3393 0.106,0.4811c0.0694,0.1419 0.1943,0.2557 0.3751,0.342c0.0808,0.039 0.2557,0.0836 0.5284,0.1391c0.2723,0.0528 0.4779,0.0831 0.6198,0.0887l0,0.5784l-5.0095,0l0,-0.5784c0.1639,-0.0111 0.381,-0.0276 0.6505,-0.0528c0.2723,-0.0249 0.4476,-0.0556 0.5311,-0.0942c0.1612,-0.0697 0.2806,-0.1753 0.3531,-0.3144c0.0748,-0.136 0.1111,-0.303 0.1111,-0.5004l0,-8.3397c0,-0.1781 -0.0307,-0.3364 -0.0891,-0.4755c-0.061,-0.1391 -0.1863,-0.2502 -0.3751,-0.3393c-0.1473,-0.0693 -0.3447,-0.1331 -0.5922,-0.1859c-0.2474,-0.0556 -0.442,-0.0863 -0.5894,-0.0974l0,-0.5784l9.0654,0l0,2.8913z"/>
   <path stroke="null" fill="#0076be" fill-rule="evenodd" id="path42" d="m1071.5759,333.59l-0.5615,0c-0.05,-0.1974 -0.1363,-0.4283 -0.2639,-0.6978c-0.1281,-0.2668 -0.2696,-0.5225 -0.4283,-0.7617c-0.164,-0.2502 -0.3417,-0.4673 -0.5335,-0.656c-0.1919,-0.1864 -0.3783,-0.2947 -0.5587,-0.3199c-0.1671,-0.0221 -0.3783,-0.039 -0.634,-0.0501c-0.2557,-0.011 -0.4921,-0.0165 -0.7088,-0.0165l-0.4729,0l0,9.2431c0,0.1808 0.0391,0.3448 0.1143,0.4949c0.0749,0.1473 0.2084,0.2644 0.4003,0.3447c0.0973,0.039 0.3003,0.0891 0.6143,0.1557c0.3113,0.0642 0.5532,0.1 0.7281,0.1056l0,0.5784l-5.457,0l0,-0.5784c0.1532,-0.0111 0.3837,-0.0331 0.6977,-0.0639c0.3117,-0.0331 0.5257,-0.0748 0.645,-0.1221c0.1809,-0.0725 0.3113,-0.1726 0.3976,-0.3058c0.0835,-0.1335 0.1253,-0.3116 0.1253,-0.5339l0,-9.3183l-0.4728,0c-0.1694,0 -0.3779,0.005 -0.6281,0.0138c-0.2474,0.008 -0.4866,0.0252 -0.7147,0.0528c-0.1805,0.0224 -0.3668,0.128 -0.5587,0.3199c-0.1919,0.1947 -0.3696,0.4114 -0.5335,0.656c-0.1643,0.2447 -0.3058,0.5032 -0.4311,0.7782c-0.1249,0.2754 -0.2112,0.5004 -0.2612,0.6813l-0.5701,0l0,-3.136l10.0662,0l0,3.136z"/>
   <path stroke="null" fill="#0076be" fill-rule="evenodd" id="path44" d="m1083.2304,338.6049l-0.2195,3.4055l-9.5938,0l0,-0.5784c0.1639,-0.0111 0.381,-0.0331 0.6505,-0.0694c0.2723,-0.0362 0.4476,-0.0721 0.5312,-0.1083c0.1722,-0.0836 0.2943,-0.1892 0.3613,-0.3196c0.0693,-0.1308 0.1028,-0.2947 0.1028,-0.4949l0,-8.3093c0,-0.1781 -0.0307,-0.3364 -0.089,-0.4755c-0.0611,-0.1391 -0.1864,-0.2502 -0.3751,-0.3393c-0.1474,-0.0693 -0.3448,-0.1331 -0.5922,-0.1859c-0.2475,-0.0556 -0.4421,-0.0863 -0.5895,-0.0974l0,-0.5784l8.9433,0l0,2.7857l-0.6119,0c-0.1083,-0.4141 -0.3447,-0.8507 -0.7033,-1.3148c-0.3613,-0.4646 -0.7061,-0.7203 -1.0311,-0.7621c-0.1698,-0.022 -0.37,-0.0386 -0.6032,-0.05c-0.2337,-0.011 -0.4977,-0.0165 -0.7979,-0.0165l-1.8156,0l0,4.5953l1.3041,0c0.4169,0 0.7227,-0.0418 0.9146,-0.1198c0.1918,-0.0776 0.3613,-0.2112 0.5086,-0.3944c0.1194,-0.1588 0.2222,-0.3672 0.3058,-0.6312c0.0835,-0.264 0.1391,-0.5114 0.1666,-0.7451l0.6119,0l0,4.5201l-0.6119,0c-0.022,-0.2612 -0.0803,-0.5362 -0.1749,-0.8282c-0.0946,-0.2892 -0.1946,-0.5004 -0.2975,-0.6312c-0.1666,-0.2112 -0.3585,-0.3502 -0.5729,-0.4141c-0.2139,-0.0638 -0.5004,-0.0973 -0.8503,-0.0973l-1.3041,0l0,3.4693c0,0.3475 0.0252,0.6229 0.0725,0.8231c0.05,0.2001 0.1446,0.353 0.2864,0.4558c0.1387,0.1029 0.3333,0.1695 0.578,0.2002c0.2447,0.0276 0.5922,0.0445 1.0426,0.0445c0.1781,0 0.4141,0 0.7088,0c0.292,0 0.5394,-0.0114 0.7396,-0.0335c0.2057,-0.022 0.4196,-0.0611 0.6395,-0.1166c0.2194,-0.0583 0.3751,-0.1363 0.4696,-0.2337c0.2475,-0.2612 0.5114,-0.656 0.7841,-1.1844c0.275,-0.5307 0.4504,-0.92 0.5252,-1.1702l0.5867,0z"/>
   <path stroke="null" fill="#0076be" fill-rule="evenodd" id="path46" d="m1090.5122,342.2799c-0.6896,0 -1.3511,-0.136 -1.9823,-0.4086c-0.634,-0.2695 -1.1927,-0.6616 -1.6821,-1.173c-0.4834,-0.5087 -0.8699,-1.1316 -1.1564,-1.868c-0.2888,-0.7368 -0.4306,-1.5654 -0.4306,-2.4882c0,-0.9231 0.1387,-1.7596 0.4223,-2.513c0.281,-0.7506 0.673,-1.3983 1.1734,-1.9432c0.4917,-0.5367 1.0757,-0.9508 1.7514,-1.2455c0.6726,-0.292 1.3924,-0.4393 2.1572,-0.4393c0.5698,0 1.0867,0.0697 1.5485,0.2112c0.4614,0.1418 0.9003,0.3392 1.3176,0.5949l0.3333,-0.5532l0.6537,0l0.0721,4.1202l-0.6671,0c-0.0863,-0.4003 -0.2171,-0.8369 -0.392,-1.3069c-0.1726,-0.4697 -0.3783,-0.8673 -0.6088,-1.1923c-0.2616,-0.37 -0.5729,-0.6592 -0.9287,-0.8676c-0.3585,-0.2085 -0.7699,-0.3141 -1.2313,-0.3141c-0.5256,0 -1.0177,0.1167 -1.4708,0.3503c-0.4531,0.2337 -0.8452,0.5784 -1.1757,1.0343c-0.3145,0.4389 -0.5619,0.998 -0.7424,1.6789c-0.1781,0.6785 -0.2667,1.4346 -0.2667,2.2715c0,0.7391 0.0914,1.4148 0.2805,2.0319c0.1864,0.617 0.4531,1.1564 0.8007,1.6237c0.3475,0.4614 0.7588,0.8227 1.2344,1.0839c0.4752,0.2612 1.0063,0.3921 1.593,0.3921c0.4389,0 0.8448,-0.0694 1.212,-0.2085c0.3696,-0.1391 0.6923,-0.3227 0.9618,-0.5504c0.2722,-0.2392 0.5114,-0.5087 0.7171,-0.8144c0.2056,-0.303 0.3755,-0.634 0.5059,-0.9925l0.6091,0.2919c-0.4673,1.145 -1.0843,1.9653 -1.8574,2.4575c-0.7699,0.4889 -1.6871,0.7364 -2.7517,0.7364z"/>
   <path stroke="null" fill="#0076be" fill-rule="evenodd" id="path48" d="m1109.108,342.0104l-4.7983,0l0,-0.5784c0.1308,-0.0111 0.3195,-0.0276 0.567,-0.0501c0.2474,-0.0193 0.4172,-0.0528 0.5087,-0.0969c0.1643,-0.0642 0.2836,-0.1643 0.3589,-0.2975c0.0749,-0.1336 0.1139,-0.3061 0.1139,-0.5173l0,-4.1115l-5.4323,0l0,4.0224c0,0.1892 0.0307,0.3503 0.0918,0.4811c0.0642,0.1308 0.1864,0.2447 0.3728,0.342c0.0918,0.0501 0.2557,0.0973 0.4921,0.1474c0.236,0.0473 0.4224,0.0748 0.5587,0.0804l0,0.5784l-4.7983,0l0,-0.5784c0.1308,-0.0111 0.3195,-0.0276 0.567,-0.0501c0.2474,-0.0193 0.4172,-0.0528 0.5087,-0.0969c0.1615,-0.0642 0.2809,-0.1643 0.3589,-0.2975c0.0749,-0.1336 0.1139,-0.3061 0.1139,-0.5173l0,-8.3397c0,-0.1725 -0.0363,-0.3309 -0.1056,-0.4755c-0.0725,-0.1446 -0.1947,-0.2557 -0.3672,-0.3393c-0.1474,-0.0693 -0.3251,-0.1331 -0.5335,-0.1859c-0.2085,-0.0556 -0.3893,-0.0863 -0.5422,-0.0974l0,-0.5784l4.7983,0l0,0.5784c-0.1529,0.005 -0.3393,0.0304 -0.5587,0.0721c-0.2199,0.0446 -0.3838,0.0836 -0.4921,0.1226c-0.1864,0.0666 -0.3086,0.1749 -0.3728,0.325c-0.0611,0.1529 -0.0918,0.32 -0.0918,0.4977l0,3.5835l5.4323,0l0,-3.5028c0,-0.1725 -0.0363,-0.3309 -0.1056,-0.4755c-0.0725,-0.1446 -0.1947,-0.2557 -0.3672,-0.3393c-0.147,-0.0693 -0.3251,-0.1331 -0.5335,-0.1859c-0.2085,-0.0556 -0.3893,-0.0863 -0.5422,-0.0974l0,-0.5784l4.7983,0l0,0.5784c-0.1529,0.005 -0.3393,0.0304 -0.5587,0.0721c-0.2199,0.0446 -0.3838,0.0836 -0.4921,0.1226c-0.1864,0.0666 -0.3086,0.1749 -0.37,0.325c-0.0639,0.1529 -0.0942,0.32 -0.0942,0.4977l0,8.3313c0,0.1892 0.0303,0.3503 0.0942,0.4811c0.0614,0.1308 0.1836,0.2447 0.37,0.342c0.0918,0.0501 0.2557,0.0973 0.4921,0.1474c0.236,0.0473 0.4224,0.0748 0.5587,0.0804l0,0.5784z"/>
   <path stroke="null" fill="#0076be" fill-rule="evenodd" id="path50" d="m1123.6061,331.0324c-0.1529,0.005 -0.3865,0.0473 -0.7006,0.1304c-0.3144,0.0808 -0.5421,0.1644 -0.6757,0.2502c-0.1974,0.1364 -0.3278,0.3976 -0.3948,0.7841c-0.0694,0.3838 -0.1028,0.8732 -0.1028,1.465l0,8.4621l-0.7089,0l-7.0028,-9.4543l0,5.9602c0,0.6671 0.0418,1.1813 0.1253,1.5398c0.0832,0.3586 0.214,0.6147 0.3866,0.7648c0.1249,0.1194 0.3833,0.2305 0.7726,0.3334c0.3921,0.1055 0.6505,0.1583 0.7754,0.1639l0,0.5784l-4.7395,0l0,-0.5784c0.1446,-0.0111 0.392,-0.0639 0.7395,-0.1584c0.3475,-0.0946 0.5642,-0.1805 0.6533,-0.2557c0.1887,-0.1529 0.3195,-0.3866 0.3889,-0.6978c0.0725,-0.3113 0.106,-0.8452 0.106,-1.6013l0,-5.6903c0,-0.2502 -0.0418,-0.5004 -0.1308,-0.7506c-0.0863,-0.2502 -0.203,-0.4421 -0.3503,-0.5784c-0.1947,-0.1777 -0.4586,-0.3337 -0.7924,-0.4614c-0.3337,-0.1253 -0.6032,-0.1946 -0.8116,-0.2057l0,-0.5784l3.2998,0l6.4996,8.8125l0,-5.4988c0,-0.6726 -0.0445,-1.1896 -0.1308,-1.5513c-0.0863,-0.3613 -0.2112,-0.6004 -0.3755,-0.7198c-0.1528,-0.1029 -0.4003,-0.2029 -0.7446,-0.303c-0.3448,-0.0973 -0.6064,-0.1501 -0.7869,-0.1612l0,-0.5784l4.701,0l0,0.5784z"/>
   <path stroke="null" fill="#0076be" fill-rule="evenodd" id="path52" d="m1134.8875,331.822c0.5086,0.5308 0.9089,1.173 1.1954,1.9264c0.2892,0.7505 0.431,1.5847 0.431,2.4964c0,0.9173 -0.1446,1.7514 -0.4393,2.4992c-0.292,0.7506 -0.7005,1.3869 -1.2202,1.9153c-0.506,0.5197 -1.0926,0.9228 -1.7597,1.2037c-0.6675,0.2837 -1.379,0.4255 -2.1352,0.4255c-0.8034,0 -1.5457,-0.1532 -2.2269,-0.4531c-0.6809,-0.3002 -1.2648,-0.7202 -1.7542,-1.2596c-0.4889,-0.5252 -0.8727,-1.1647 -1.1536,-1.9181c-0.2778,-0.7506 -0.4197,-1.5567 -0.4197,-2.4129c0,-0.9397 0.1474,-1.7766 0.4421,-2.513c0.292,-0.7368 0.6978,-1.3735 1.212,-1.9098c0.5114,-0.5311 1.1036,-0.9397 1.7794,-1.2234c0.6753,-0.2805 1.3841,-0.4224 2.1209,-0.4224c0.7672,0 1.4902,0.1446 2.1683,0.4307c0.6785,0.2892 1.2648,0.6923 1.7597,1.2151zm-1.2148,8.1923c0.303,-0.4949 0.5256,-1.0536 0.6643,-1.6761c0.1391,-0.6257 0.2057,-1.3235 0.2057,-2.0934c0,-0.7924 -0.0749,-1.5205 -0.2305,-2.1824c-0.1556,-0.6643 -0.381,-1.2285 -0.6813,-1.6958c-0.2974,-0.4614 -0.6725,-0.82 -1.1229,-1.0785c-0.4503,-0.2584 -0.9677,-0.3865 -1.5485,-0.3865c-0.6505,0 -1.2037,0.1501 -1.6595,0.4476c-0.4559,0.2975 -0.8287,0.6978 -1.1179,1.1982c-0.2695,0.4783 -0.4724,1.037 -0.6059,1.6765c-0.1332,0.6419 -0.2002,1.3148 -0.2002,2.0209c0,0.7809 0.0725,1.4874 0.2143,2.1155c0.1387,0.6312 0.3613,1.1899 0.6671,1.6792c0.292,0.478 0.6615,0.8507 1.1064,1.1202c0.4448,0.2695 0.9787,0.4031 1.5957,0.4031c0.5808,0 1.1064,-0.1364 1.5733,-0.4086c0.4673,-0.2695 0.8479,-0.6505 1.1399,-1.1399z"/>
   <path stroke="null" fill="#0076be" fill-rule="evenodd" id="path54" d="m1148.2516,338.5742l-0.2447,3.4362l-9.032,0l0,-0.5784c0.1309,-0.0111 0.3196,-0.0304 0.567,-0.0584c0.2475,-0.0248 0.42,-0.061 0.5174,-0.1055c0.1611,-0.0694 0.2805,-0.1722 0.353,-0.3086c0.0749,-0.1363 0.1111,-0.3085 0.1111,-0.5197l0,-8.2762c0,-0.1832 -0.0307,-0.3475 -0.0946,-0.4889c-0.061,-0.1419 -0.1863,-0.2557 -0.3695,-0.342c-0.1253,-0.0639 -0.3003,-0.1281 -0.5256,-0.1919c-0.225,-0.0611 -0.4114,-0.0973 -0.5588,-0.1084l0,-0.5784l4.8787,0l0,0.5784c-0.1529,0.005 -0.3475,0.0304 -0.589,0.0804c-0.242,0.05 -0.4173,0.0918 -0.5257,0.1308c-0.1863,0.0639 -0.3112,0.1754 -0.381,0.3337c-0.0666,0.1584 -0.1,0.3251 -0.1,0.506l0,7.7616c0,0.3585 0.0169,0.6363 0.0531,0.8337c0.0359,0.1974 0.1167,0.3503 0.2471,0.4618c0.1253,0.0973 0.3117,0.1611 0.5591,0.1887c0.2474,0.0308 0.5918,0.0445 1.0366,0.0445c0.203,0 0.4118,-0.003 0.6285,-0.0137c0.2167,-0.0111 0.4224,-0.0335 0.6198,-0.0666c0.1891,-0.0335 0.3644,-0.078 0.5256,-0.1336c0.1584,-0.0583 0.2778,-0.1308 0.353,-0.2167c0.2222,-0.2502 0.4807,-0.6285 0.7782,-1.1344c0.2947,-0.5086 0.5004,-0.92 0.6147,-1.2344l0.578,0z"/>
   <path stroke="null" fill="#0076be" fill-rule="evenodd" id="path56" d="m1159.386,331.822c0.5087,0.5308 0.909,1.173 1.1954,1.9264c0.2892,0.7505 0.4311,1.5847 0.4311,2.4964c0,0.9173 -0.1446,1.7514 -0.4394,2.4992c-0.2919,0.7506 -0.7005,1.3869 -1.2202,1.9153c-0.5059,0.5197 -1.0926,0.9228 -1.7597,1.2037c-0.6674,0.2837 -1.379,0.4255 -2.1351,0.4255c-0.8034,0 -1.5457,-0.1532 -2.227,-0.4531c-0.6808,-0.3002 -1.2648,-0.7202 -1.7541,-1.2596c-0.489,-0.5252 -0.8728,-1.1647 -1.1537,-1.9181c-0.2778,-0.7506 -0.4196,-1.5567 -0.4196,-2.4129c0,-0.9397 0.1473,-1.7766 0.4421,-2.513c0.2919,-0.7368 0.6978,-1.3735 1.2119,-1.9098c0.5115,-0.5311 1.1037,-0.9397 1.7794,-1.2234c0.6753,-0.2805 1.3842,-0.4224 2.121,-0.4224c0.7671,0 1.4901,0.1446 2.1682,0.4307c0.6785,0.2892 1.2648,0.6923 1.7597,1.2151zm-1.2148,8.1923c0.303,-0.4949 0.5257,-1.0536 0.6643,-1.6761c0.1391,-0.6257 0.2057,-1.3235 0.2057,-2.0934c0,-0.7924 -0.0748,-1.5205 -0.2305,-2.1824c-0.1556,-0.6643 -0.381,-1.2285 -0.6812,-1.6958c-0.2975,-0.4614 -0.6726,-0.82 -1.123,-1.0785c-0.4503,-0.2584 -0.9677,-0.3865 -1.5484,-0.3865c-0.6505,0 -1.2037,0.1501 -1.6596,0.4476c-0.4559,0.2975 -0.8286,0.6978 -1.1178,1.1982c-0.2695,0.4783 -0.4724,1.037 -0.606,1.6765c-0.1332,0.6419 -0.2002,1.3148 -0.2002,2.0209c0,0.7809 0.0725,1.4874 0.2144,2.1155c0.1387,0.6312 0.3613,1.1899 0.667,1.6792c0.292,0.478 0.6616,0.8507 1.1064,1.1202c0.4449,0.2695 0.9787,0.4031 1.5958,0.4031c0.5807,0 1.1064,-0.1364 1.5733,-0.4086c0.4673,-0.2695 0.8479,-0.6505 1.1398,-1.1399z"/>
   <path stroke="null" fill="#0076be" fill-rule="evenodd" id="path58" d="m1174.6571,337.393c-0.1304,0.0165 -0.3057,0.0417 -0.5252,0.0776c-0.2198,0.0335 -0.3975,0.0835 -0.5339,0.1501c-0.1639,0.0808 -0.2778,0.1974 -0.3475,0.3448c-0.0666,0.1501 -0.1001,0.3254 -0.1001,0.5256l0,0.8979c0,0.6505 0.003,1.0895 0.0111,1.3176c0.009,0.2281 0.0169,0.4168 0.0279,0.5615c-0.723,0.3282 -1.4401,0.5756 -2.1572,0.7505c-0.7171,0.1726 -1.4208,0.2613 -2.1099,0.2613c-0.7396,0 -1.4484,-0.1387 -2.1324,-0.4169c-0.6868,-0.275 -1.2814,-0.6698 -1.7932,-1.1816c-0.5169,-0.5142 -0.9255,-1.1423 -1.2285,-1.8791c-0.3058,-0.7395 -0.4559,-1.565 -0.4559,-2.4767c0,-0.8787 0.1446,-1.6958 0.4334,-2.4464c0.292,-0.7534 0.7033,-1.4067 1.2345,-1.9598c0.5169,-0.5422 1.1316,-0.965 1.8459,-1.2652c0.7144,-0.303 1.476,-0.4531 2.2908,-0.4531c0.6533,0 1.2203,0.078 1.7041,0.2364c0.4835,0.1584 0.909,0.3475 1.2786,0.5697l0.3337,-0.5532l0.6505,0l0.0749,4.0394l-0.6698,0c-0.1139,-0.4448 -0.2557,-0.8841 -0.4228,-1.3148c-0.1694,-0.4338 -0.3861,-0.8203 -0.6505,-1.1623c-0.2668,-0.3416 -0.5918,-0.6143 -0.9756,-0.8172c-0.381,-0.2029 -0.8396,-0.3058 -1.3704,-0.3058c-0.5811,0 -1.1008,0.1167 -1.5567,0.3531c-0.4563,0.2364 -0.8507,0.5894 -1.1872,1.0563c-0.3337,0.4504 -0.5867,1.0118 -0.7671,1.6848c-0.1781,0.6726 -0.2699,1.4259 -0.2699,2.2573c0,0.7309 0.089,1.4232 0.2667,2.0709c0.1754,0.6505 0.4311,1.2092 0.7703,1.6821c0.3365,0.4834 0.7561,0.8644 1.2621,1.1426c0.5031,0.275 1.076,0.4141 1.7178,0.4141c0.4784,0 0.9122,-0.0725 1.3066,-0.2195c0.3948,-0.1473 0.673,-0.3034 0.8341,-0.4645c0.0445,-0.2833 0.0666,-0.567 0.0694,-0.8562c0.003,-0.2864 0.006,-0.5307 0.006,-0.7309l0,-0.6367c0,-0.2281 -0.0335,-0.4311 -0.0946,-0.606c-0.0642,-0.1781 -0.1919,-0.3057 -0.3865,-0.3865c-0.1809,-0.0835 -0.4224,-0.1446 -0.7285,-0.1836c-0.3086,-0.0414 -0.5473,-0.0666 -0.7227,-0.0776l0,-0.595l5.0678,0l-0.0001,0.595z"/>
   <path stroke="null" fill="#0076be" fill-rule="evenodd" id="path60" d="m1186.4838,331.0324c-0.0945,0.005 -0.2391,0.0418 -0.4421,0.1084c-0.2001,0.0693 -0.3447,0.1363 -0.431,0.2001c-0.2112,0.1309 -0.3558,0.2309 -0.4307,0.303c-0.0752,0.0694 -0.2226,0.253 -0.4393,0.5532c-0.4255,0.5977 -0.8144,1.201 -1.1734,1.8152c-0.3585,0.6147 -0.8061,1.3929 -1.3451,2.3381c-0.2002,0.3475 -0.3338,0.6253 -0.3976,0.8396c-0.067,0.2112 -0.0973,0.517 -0.0973,0.9201l0,2.2072c0,0.1946 0.0386,0.3641 0.1166,0.5087c0.078,0.1418 0.214,0.2588 0.4031,0.3447c0.1139,0.0446 0.3168,0.0974 0.6115,0.1584c0.292,0.0642 0.5284,0.0973 0.7088,0.1029l0,0.5784l-5.4098,0l0,-0.5784c0.1533,-0.0111 0.381,-0.0304 0.6868,-0.0611c0.303,-0.0304 0.5142,-0.0694 0.634,-0.1166c0.1946,-0.0836 0.3305,-0.1947 0.403,-0.3365c0.0721,-0.1391 0.1112,-0.3141 0.1112,-0.5197l0,-2.8105c0,-0.0863 -0.0528,-0.2447 -0.1584,-0.4756c-0.1084,-0.2305 -0.2337,-0.4893 -0.381,-0.7699c-0.3251,-0.6312 -0.6864,-1.312 -1.0812,-2.0433c-0.3976,-0.7341 -0.7423,-1.3621 -1.0343,-1.8822c-0.1809,-0.3113 -0.3392,-0.5418 -0.4779,-0.7006c-0.1391,-0.1584 -0.2975,-0.297 -0.4756,-0.4168c-0.1308,-0.0804 -0.2865,-0.1419 -0.4697,-0.1864c-0.1808,-0.0441 -0.3447,-0.0693 -0.4921,-0.0804l0,-0.5784l4.9287,0l0,0.5784c-0.5559,0.0111 -0.9452,0.0473 -1.173,0.1139c-0.2281,0.0638 -0.342,0.1556 -0.342,0.2754c0,0.0331 0.0166,0.0914 0.0473,0.1722c0.0335,0.0808 0.0808,0.1836 0.1391,0.3085c0.0693,0.1419 0.1556,0.303 0.253,0.4866c0.0973,0.1809 0.1891,0.3558 0.275,0.5252c0.2557,0.4811 0.5173,0.965 0.7841,1.4457c0.2639,0.4783 0.6115,1.1036 1.0425,1.8766c0.8507,-1.3735 1.5012,-2.4464 1.9488,-3.2135c0.4476,-0.7676 0.6726,-1.2289 0.6726,-1.3818c0,-0.1222 -0.0473,-0.2254 -0.1391,-0.3003c-0.0918,-0.0752 -0.214,-0.1363 -0.3668,-0.1781c-0.1557,-0.0441 -0.3282,-0.0721 -0.5115,-0.0858c-0.1863,-0.0142 -0.3557,-0.028 -0.5145,-0.0446l0,-0.5784l4.0173,0l0,0.5784z"/>
   <path stroke="null" fill="#0076be" fill-rule="evenodd" id="path62" d="m853.9608,256.1862c1.3662,1.7382 3.2287,4.7189 3.1049,8.3205c-0.1242,3.6012 -1.9871,3.6012 -2.1113,7.2024c-0.1242,3.6016 -0.2484,4.5951 2.6076,3.229c2.8565,-1.3661 3.8501,-2.1113 3.8501,0.621c0,2.7322 1.1177,4.3463 -2.3597,7.0786c-3.477,2.7318 -7.6992,4.5947 -10.6799,10.5556c-2.9806,5.9604 -2.9806,5.9604 -2.9806,5.9604c0,0 -3.477,7.5754 -4.8432,9.3141c-1.3661,1.7387 0.1242,3.2286 1.9871,4.5947c1.863,1.3661 6.3335,4.7194 5.9609,7.948c-0.3725,3.229 -6.3334,1.4903 -6.706,-4.9673c-0.1787,-3.0998 -1.4903,-4.3468 -2.9807,-1.6146c-1.4899,2.7323 -2.3592,3.3533 -5.3399,2.3597c-2.9802,-0.9935 -0.3726,-4.4709 1.3661,-7.2028c1.7388,-2.7322 4.9674,-8.1963 5.9609,-10.6802c0.9936,-2.483 0.7452,-4.5943 -2.9806,-3.3524c-3.7254,1.242 -11.5492,5.0911 -20.6145,4.5943c-2.8523,-0.1562 -3.3533,-3.4765 1.6141,-4.0975c4.9677,-0.621 17.8831,-6.4576 26.8242,-12.0459c1.8118,-1.1325 1.3661,-2.2355 1.3661,-5.0919c0,-2.8561 0,-8.0718 2.7323,-18.131c1.4616,-5.3821 2.856,-6.3335 4.2221,-4.5947zm2.2355,47.9352c0.4592,0.8939 1.9512,3.167 3.0031,5.3256c1.3446,2.7601 2.4425,5.4125 4.8207,5.6026c6.2093,0.4968 9.8105,-2.9806 6.0851,-7.6996c-3.7258,-4.7189 -18.504,-12.1696 -13.9089,-3.2286z"/>
   <path stroke="null" fill="#0076be" fill-rule="evenodd" id="path64" d="m913.5701,262.768c0,1.7387 1.6146,2.4834 4.719,2.7318c3.1048,0.2484 4.2226,1.6145 1.2419,4.2226c-2.9802,2.6076 -4.2221,4.9673 -6.5818,8.5689c-2.3593,3.6012 -12.1702,20.3656 -22.7258,30.0523c-1.5664,1.4371 -3.2291,3.3528 -0.9936,5.0915c2.2351,1.7387 3.3528,1.3661 7.2028,-3.2286c3.8496,-4.5952 8.2112,-10.8129 13.7847,-19.0003c0.8854,-1.3007 2.6398,-0.6126 3.9721,-0.621c1.0831,-0.007 1.8384,-1.0907 4.8449,-5.7125c1.0602,-1.6293 0.4967,-1.6141 -1.6141,0.3726c-2.1113,1.9871 -4.8436,-0.4968 -1.7388,-3.7254c3.1049,-3.2286 14.4057,-11.5491 16.765,-19.3729c0.7219,-2.3926 0.2483,-1.7387 -0.6206,-3.85c-0.8698,-2.1108 -1.4903,-0.6209 -3.3532,0.7452c-1.8629,1.3661 -3.6012,2.4839 -11.425,1.9871c-3.2248,-0.2045 -3.4775,0 -3.4775,1.7387zm14.2815,17.7584c1.2419,0 1.9871,0.6209 0.7452,3.2286c-1.242,2.608 -1.242,3.4774 -3.9742,3.4774c-2.7319,0 -3.9738,-0.9935 -3.477,1.8629c0.4967,2.856 1.04,8.6272 -1.1178,8.1959c-0.621,-0.1242 -0.2484,2.2351 -0.1242,3.6012c0.1242,1.3661 0.8694,3.3528 -3.1044,5.0915c-3.9742,1.7387 -10.5561,0.4968 -10.8045,6.2093c-0.1187,2.7331 1.4709,3.2459 3.0588,2.8957c1.7307,-0.3819 3.2058,-2.0627 4.8892,-4.3856c1.0037,-1.3847 2.7323,-1.6145 4.2226,-1.7387c1.4899,-0.1242 3.8496,-1.6146 5.0915,-3.9742c1.242,-2.3593 3.2756,-1.5123 3.3529,1.1177c0.1242,4.2226 -4.3464,5.4641 -0.9936,5.4641c3.3532,0 4.3468,-0.9931 8.0718,-6.3334c1.7083,-2.4484 0.3726,-3.3528 -0.6206,-4.5948c-0.9935,-1.2419 -4.8182,-0.1977 -9.3137,1.3662c-2.8564,0.9935 -2.4839,-3.4775 -0.8693,-6.3331c1.6145,-2.8564 1.4903,-4.2225 4.0979,-4.7189c2.6081,-0.4972 5.8367,-6.4581 7.3266,-10.0592c1.4904,-3.6012 0,-4.9674 -2.6076,-3.85c-2.6077,1.1177 -2.7319,1.6145 -3.9738,1.6145c-2.4847,0 -1.8637,1.8629 0.1242,1.8629z"/>
   <path stroke="null" fill="#0076be" fill-rule="evenodd" id="path66" d="m965.4794,267.1143c-1.9867,1.3662 -6.706,5.2157 -8.5685,6.9544c-1.8629,1.7388 -2.1113,2.4839 -0.621,3.9738c1.4899,1.4903 3.9738,-1.1173 5.2157,3.7258c1.242,4.8431 0.7452,5.3399 -1.7387,7.8238c-2.4834,2.4834 -3.7254,3.2286 -0.3726,8.4443c1.9935,3.1006 0.7452,4.4705 -0.7447,6.2088c-1.4903,1.7387 -5.0784,6.4652 -0.9936,8.5689c4.9437,2.546 4.1512,0.8339 5.34,-2.7318c1.2419,-3.7258 2.7322,-8.8173 4.7189,-14.9019c2.0703,-6.3407 9.6867,-19.2488 12.7911,-21.8568c3.1049,-2.6081 2.9807,1.3661 3.1049,4.5951c0.1242,3.2286 0.3726,6.4577 -1.242,6.954c-1.6145,0.4968 -0.4967,4.3468 -0.6209,6.706c-0.1242,2.3597 -0.621,5.092 -2.2355,6.8303c-1.6145,1.7382 -1.242,2.4834 0,3.7253c1.2419,1.242 0.8356,1.9876 0.8693,3.477c0.1242,5.4645 -4.3463,3.85 -1.2415,6.2097c3.1045,2.3593 11.425,2.1109 11.6734,0.248c0.2484,-1.8625 -2.4839,-3.8496 -4.7194,-3.8496c-2.235,0 -3.6012,-1.8629 -1.7382,-3.6016c1.8624,-1.7383 0.7447,-7.4508 -0.3726,-8.5681c-1.1178,-1.1177 -0.1242,-2.3597 0.7451,-3.7258c0.869,-1.3657 -0.4967,-6.4576 3.477,-11.1766c3.9742,-4.7189 6.8303,-2.7322 12.5428,-11.3007c1.9056,-2.8582 -0.1242,-5.8371 -5.8367,-5.3399c-5.7125,0.4963 -9.3488,0.5796 -14.5299,6.085c-4.389,4.6641 -7.4909,11.7465 -9.3436,14.6266c-0.9146,1.4219 -2.2457,0.6011 -3.0749,-0.7182c-2.7323,-4.3463 -4.098,-6.2088 -1.4903,-8.6926c2.608,-2.4839 7.4512,-5.2158 5.7125,-8.569c-1.7383,-3.3528 -4.719,-1.4903 -6.7061,-0.1242zm-3.477,25.0854c0,1.1178 0.3726,4.471 -0.8694,4.471c-1.2419,0 -1.5498,-1.9884 -1.6145,-3.6016c-0.1242,-3.1044 2.4839,-2.6081 2.4839,-0.8694zm25.4581,-21.608c1.7079,-0.5394 5.7125,-3.6016 5.7125,-0.7451c0,1.1748 -0.8939,2.6013 -1.4316,3.7617c-0.7693,1.6614 -1.4595,2.777 -3.2874,1.8266c-3.1048,-1.6145 -3.3532,-4.0984 -0.9935,-4.8432z"/>
   <path stroke="null" fill="#0076be" fill-rule="evenodd" id="path68" d="m1028.6903,266.9901c0.7853,1.1782 2.7323,3.2291 4.9674,3.7254c2.2355,0.4972 3.3532,0.621 2.2355,5.092c-1.1178,4.4705 -2.4839,10.183 -3.1045,14.9023c-0.6209,4.7189 -1.6145,6.4572 -7.6996,12.1697c-6.085,5.7125 -8.4447,7.4512 -10.4318,8.5689c-1.9871,1.1173 -3.477,1.8625 1.4903,2.9802c2.3115,0.5201 2.8704,0.4778 4.4355,-0.6175c1.7978,-1.2589 4.5267,-3.7094 6.1201,-4.9707c2.9807,-2.3597 12.667,-9.3141 14.6541,-11.1766c1.9871,-1.8625 2.1113,3.8496 6.2093,-0.1246c4.0979,-3.9734 8.3205,-8.0713 9.6867,-10.6794c1.3661,-2.6076 -1.4904,-4.9673 -7.2029,-1.3661c-5.7125,3.6016 -9.7543,8.3231 -9.5625,2.8564c0.2484,-7.0786 5.3404,-13.0394 5.3404,-17.51c0,-4.4709 -7.8238,-6.8306 -11.9222,-5.4645c-4.098,1.3662 -6.9545,-0.9935 -5.2158,1.6145z"/>
   <path stroke="null" fill="#0076be" fill-rule="evenodd" id="path70" d="m1100.594,258.0486c0.3726,2.1113 1.3661,6.2097 -0.2484,11.0528c-1.6141,4.8431 -2.7318,8.3201 -4.3464,10.9282c-1.6145,2.6081 -3.7258,2.6081 -7.5754,3.85c-3.8496,1.2415 -9.8104,3.1044 -11.425,0.9931c-1.6145,-2.1108 -2.4838,-1.1177 -1.2419,2.3597c1.2419,3.4774 3.3532,6.9544 8.6931,3.85c5.34,-3.1048 8.6932,-2.2355 7.8234,0.4963c-0.8689,2.7323 -5.391,13.1916 -10.804,16.1439c-4.098,2.2355 -9.0653,6.5819 -2.3593,5.7125c4.8043,-0.6227 12.9149,-5.0915 20.7391,-24.3398c1.2771,-3.1424 3.6013,-4.3468 7.4508,-6.3334c3.8501,-1.9871 5.7662,-2.1616 7.8238,-4.9678c1.3662,-1.8625 -0.3725,-1.6141 -2.7322,-6.3334c-1.2179,-2.4357 -1.3657,0 -1.6141,1.4903c-0.2484,1.4903 -2.2017,6.8154 -4.9678,4.2226c-1.9867,-1.8629 -0.1242,-1.6145 1.9871,-10.1835c0.9805,-3.9792 0.3726,-2.856 -1.1177,-6.085c-1.4899,-3.229 -1.8625,-3.8496 -3.1045,-5.2157c-1.2419,-1.3661 -3.3532,0.2484 -2.9806,2.3592zm0.2484,38.7463c1.4988,1.6947 2.5143,9.2604 7.1056,14.1525c2.764,2.9452 8.234,-1.0818 10.5291,-2.9764c2.167,-1.789 -0.3726,-1.2419 -1.8629,-1.2419c-1.4904,0 -8.1964,-0.621 -12.046,-8.9411c-1.1718,-2.5325 -6.0809,-3.6578 -3.7258,-0.9931z"/>
   <path stroke="null" fill="#0076be" fill-rule="evenodd" id="path72" d="m1153.0005,292.9449c-0.5053,0.8664 -2.3095,4.7295 -3.7254,6.9666c-1.0202,1.612 -1.7789,1.5436 -1.9871,2.8438c-0.4964,3.1044 -2.456,7.4694 -5.7125,-3.3532c-0.73,-2.426 2.4838,-3.104 3.6016,-2.2351c1.1173,0.8694 3.1044,0.2484 6.0851,-4.8431c1.0286,-1.7577 2.6076,-0.8693 1.7383,0.621zm8.8173,-36.7587c0.9936,1.6145 2.3597,5.2157 2.4839,6.706c0.1242,1.4899 -1.7387,1.9871 -1.9871,0.6209c-0.2484,-1.3661 -1.1178,-4.9677 -1.9871,-6.4576c-0.869,-1.4903 0.4968,-2.4839 1.4903,-0.8693zm-5.7125,16.0196c0,1.6146 -0.1242,5.4646 0.2484,7.2028c0.3726,1.7387 3.229,0.4968 2.3597,-1.1173c-0.8694,-1.6145 -1.242,-2.2355 -0.9936,-4.8435c0.2484,-2.6077 -1.6145,-2.8561 -1.6145,-1.242zm3.9738,-1.6141c0.4968,1.2416 1.2419,3.1045 0.8694,4.9674c-0.3726,1.8624 0.1098,3.2434 2.2354,1.1177c1.242,-1.2419 -1.7822,-3.7883 -1.2419,-6.0851c0.4968,-2.1112 -2.3593,-1.2419 -1.8629,0zm16.5169,-23.5954c3.6012,3.9737 6.8303,4.0983 -3.1048,13.9088c-2.3124,2.2836 -1.2415,2.7318 0.7452,2.7318c1.9871,0 4.4709,0.6214 4.7193,2.3597c0.2484,1.7387 1.1174,3.4774 2.8561,0.7452c1.7387,-2.7323 2.6803,-3.3888 1.7387,-4.3464c-1.0624,-1.081 1.7387,-3.1048 3.7254,-1.3661c1.9871,1.7387 0.3726,4.4705 -4.098,11.0523c-1.7037,2.508 -1.1177,2.8565 2.3597,5.2162c3.477,2.3592 3.9738,4.5947 -0.373,7.8233c-4.3464,3.229 -7.8234,5.0919 -10.5557,5.8371c-2.7318,0.7452 -2.9802,2.9802 -1.3661,4.8431c1.6145,1.8625 -0.362,4.9661 1.8629,4.7185c3.3533,-0.3726 8.1964,0 8.1964,2.8565c0,2.856 -2.2355,1.9867 -3.4774,1.9867c-1.2416,0 -5.34,-0.248 -8.6928,2.3596c-3.3532,2.6081 -3.3532,4.2222 -2.3597,5.9609c0.9936,1.7387 0.7452,4.7189 0.7452,8.1963c0,1.8055 0.6294,3.5818 -2.1548,3.7144c-1.432,0.0685 -3.6722,-1.2161 -6.5383,-3.9628c-1.7223,-1.6504 0.3725,-0.7451 1.8629,-0.4967c1.4903,0.2484 4.7189,-0.3726 4.5947,-3.85c-0.1242,-3.477 -0.8693,-4.5948 -1.2419,-5.9609c-0.3726,-1.3657 -0.869,-1.8625 -4.719,-0.4963c-3.8496,1.3657 -5.2157,4.0979 -14.2814,1.3657c-1.8186,-0.5479 1.9871,-2.3593 8.5689,-4.5948c6.5819,-2.2354 9.3142,-3.1044 11.7976,-3.8495c2.4839,-0.7452 1.9871,-4.3468 -0.4963,-3.1049c-2.4839,1.242 -3.4775,2.9807 -6.0855,0.9936c-2.6077,-1.9871 -1.4904,-2.9807 2.2354,-4.9669c3.7254,-1.9871 14.2815,-10.4318 18.2553,-14.9024c1.7011,-1.9136 1.1177,-3.1048 -2.2355,-1.1177c-3.3528,1.9871 -8.4443,3.477 -12.7907,6.085c-3.3845,2.0306 -4.5952,3.9742 -7.948,1.242c-3.3532,-2.7323 -0.7452,-2.6081 0.9931,-2.6081c1.7387,0 6.2097,-2.2351 8.569,-4.4705c2.3597,-2.2355 1.6145,-3.3528 -0.621,-3.1049c-2.235,0.2484 -1.4899,-1.1173 -1.6145,-2.3592c-0.1238,-1.242 0.7452,-1.4904 2.4839,-1.4904c1.7387,0 1.718,-1.3661 2.8564,-2.7318c1.242,-1.4903 1.4904,-2.1113 2.6081,-2.608c1.1173,-0.4968 1.4899,-2.6081 -2.1113,-2.6081c-3.6016,0 -3.4774,0.3726 -3.85,-1.8625c-0.3726,-2.2355 -2.5291,-2.6026 -0.4968,-2.8564c0.9936,-0.1242 1.4904,3.477 3.3533,0.3725c1.1207,-1.8679 5.1443,-5.0522 6.5776,-7.8884c0.9492,-1.8781 0.3443,-3.0216 -0.9893,-5.0268c-1.3142,-1.9757 -0.8914,-3.27 0.4967,-1.7387zm-0.4967,24.3402c-0.621,1.6145 -1.3873,4.8249 -4.098,4.2226c-2.2355,-0.4968 -0.4968,-2.9807 1.2415,-4.719c1.7387,-1.7387 3.4774,-1.1177 2.8565,0.4964z"/>
  </g>
 </g>
</svg>