<svg width="326" height="318" xmlns="http://www.w3.org/2000/svg">
 <metadata id="metadata81">image/svg+xml</metadata>

 <g>
  <title>background</title>
  <rect x="-1" y="-1" width="328" height="320" id="canvas_background" fill="none"/>
 </g>
 <g>
  <title>Layer 1</title>
  <g stroke="null" id="Layer1000">
   <path stroke="null" d="m160.345985,4.754809c86.118143,0 156.355362,69.264675 156.355362,154.1902c0,84.925754 -70.23722,154.1902 -156.355362,154.1902c-86.118143,0 -156.355362,-69.264446 -156.355362,-154.1902c0,-84.925525 70.23722,-154.1902 156.355362,-154.1902zm-102.078418,206.958937l-16.305376,8.193467l2.435486,4.714502l-3.323254,1.670179l-6.515262,-12.610559l3.323254,-1.669949l2.428272,4.700504l16.306773,-8.19232l1.650108,3.194176zm-9.566485,-23.644569l1.225422,3.719693l-4.273154,3.006688l2.228612,6.762869l5.22096,-0.129199l1.197963,3.63662l-23.125016,0.117266l-1.19424,-3.621015l18.719454,-13.492922zm-6.213445,8.952597l-7.009527,4.820294l8.532346,-0.195749l-1.522819,-4.624545zm6.034262,-10.309302l-21.466531,4.886615l-0.817724,-3.49434l21.465135,-4.887762l0.81912,3.495488zm-2.228844,-11.457636l-9.204396,1.114829l-11.855367,8.004832l-0.520793,-4.177282l8.131628,-5.209268l-9.158786,-3.044553l-0.511252,-4.101553l13.501984,4.964868l9.174378,-1.111387l0.442604,3.559513zm-23.619281,-12.180967l0.126359,-3.584298l11.924015,0.410316c1.855819,0.064026 3.062159,0.065173 3.623676,-0.006884c0.978988,-0.123462 1.741561,-0.476866 2.294932,-1.054475c0.549648,-0.577609 0.844252,-1.356934 0.877994,-2.334073c0.030019,-0.827975 -0.135899,-1.512294 -0.491937,-2.050891c-0.354874,-0.533778 -0.86473,-0.910819 -1.525146,-1.125615c-0.654133,-0.214567 -2.082008,-0.360518 -4.275714,-0.4351l-12.178826,-0.419954l0.127522,-3.599673l11.564253,0.398383c2.952788,0.100973 5.08506,0.332062 6.386577,0.685696c1.306171,0.357994 2.347756,1.093487 3.123361,2.213136c0.781887,1.119648 1.135366,2.573883 1.073001,4.359951c-0.066321,1.855142 -0.455868,3.293772 -1.169108,4.31153c-0.708353,1.018676 -1.688737,1.738794 -2.929983,2.16701c-1.241246,0.427986 -3.510814,0.582199 -6.806143,0.469523l-11.744832,-0.404579zm25.868371,-32.910181l-0.756523,3.838106l-5.214909,0.587247l-1.375982,6.981107l4.629425,2.381806l-0.739768,3.753886l-20.284159,-10.953461l0.737441,-3.73851l23.004475,-2.850181zm-9.835957,4.859306l-8.499534,0.864693l7.559175,3.906951l0.940359,-4.771644zm10.216196,-6.671535l-20.830317,-7.072671l1.155844,-3.310295l16.31515,-2.168157l-13.908287,-4.722993l1.105114,-3.166868l20.830317,7.072671l-1.194473,3.420676l-15.951665,2.169304l13.583664,4.612612l-1.105347,3.16572zm-10.254592,-32.200849l1.818586,-3.106514l10.331385,5.883031c1.609385,0.915638 2.672612,1.4742 3.204109,1.671096c0.922441,0.345143 1.764366,0.385532 2.528102,0.131723c0.759082,-0.256103 1.39041,-0.807781 1.886071,-1.654574c0.42073,-0.717594 0.598749,-1.397094 0.542434,-2.037581c-0.06027,-0.635898 -0.330906,-1.205246 -0.811906,-1.700929c-0.475183,-0.492241 -1.665932,-1.280975 -3.567361,-2.363906l-10.554083,-6.008558l1.826964,-3.119365l10.021189,5.704952c2.558354,1.457677 4.331097,2.648465 5.311249,3.562956c0.983875,0.921604 1.552838,2.052038 1.705492,3.400482c0.156377,1.34982 -0.223629,2.798088 -1.129315,4.344575c-0.940592,1.608448 -1.970077,2.698493 -3.083801,3.266463c-1.111397,0.571643 -2.318901,0.753164 -3.619021,0.557415c-1.30012,-0.196897 -3.377241,-1.111158 -6.23369,-2.737275l-10.176403,-5.793991zm28.172844,-4.471709l-16.626509,-14.25297l2.328442,-2.641351l15.950735,4.015955l-11.101404,-9.517126l2.227448,-2.527528l16.626741,14.2532l-2.406863,2.730391l-15.613778,-3.882167l10.842637,9.294068l-2.227448,2.527528zm12.184877,-13.119094l-15.02457,-15.888726l2.659348,-2.446979l15.025734,15.889874l-2.660511,2.445832zm8.463698,-7.608744l-18.644755,-13.204691l3.116147,-2.400623l13.63672,9.900363l-6.559709,-15.352653l3.056109,-2.355645l8.474402,21.041082l-3.078914,2.372168zm9.454554,-7.286091l-10.681372,-19.002124l11.727845,-6.409465l1.807649,3.216436l-8.545377,4.672048l2.367071,4.210557l7.939182,-4.339756l1.798108,3.198766l-7.939182,4.339986l2.905782,5.171174l8.832767,-4.828555l1.801831,3.203585l-12.014304,6.567349zm14.567539,-7.963295l-7.894735,-20.281952l7.168231,-2.713638c1.834177,-0.695105 3.218537,-1.006972 4.145865,-0.940652c0.926164,0.066321 1.818586,0.454147 2.671448,1.161185c0.85868,0.71048 1.527473,1.692438 2.014523,2.942663c0.6169,1.586876 0.731158,3.012655 0.337887,4.272288c-0.399321,1.260781 -1.259164,2.285423 -2.580926,3.068419c0.929655,0.243023 1.752265,0.577609 2.465505,1.011562c0.718126,0.433035 1.796945,1.285794 3.239015,2.560803l3.585279,3.183391l-4.052085,1.533636l-4.189148,-3.478735c-1.505831,-1.257338 -2.498084,-2.030697 -2.975361,-2.309289c-0.472856,-0.282264 -0.91895,-0.427068 -1.335026,-0.449558c-0.411422,-0.016064 -1.011567,0.123462 -1.796945,0.419954l-0.703699,0.266889l3.295562,8.46724l-3.395392,1.285794zm-1.160498,-12.992419l2.528102,-0.956945c1.5419,-0.583576 2.49692,-1.02143 2.867386,-1.311955c0.370233,-0.292821 0.604799,-0.691433 0.71068,-1.195607c0.09983,-0.503945 0.022805,-1.099454 -0.238057,-1.768397c-0.251321,-0.648749 -0.589441,-1.115977 -0.999466,-1.410174c-0.414912,-0.29305 -0.875667,-0.428216 -1.382032,-0.403202c-0.356038,0.016064 -1.298957,0.317834 -2.821543,0.895443l-2.667725,1.009267l2.002656,5.14157zm15.486256,0.181521l3.373751,-1.19905c1.023435,2.617715 2.619555,3.681598 4.788129,3.18821c1.070441,-0.2444 1.850932,-0.711627 2.334492,-1.407879c0.490541,-0.693957 0.635051,-1.449416 0.443768,-2.266605c-0.113094,-0.48398 -0.313918,-0.869512 -0.607359,-1.155218c-0.294604,-0.290755 -0.689271,-0.491094 -1.179812,-0.607212c-0.48961,-0.117495 -1.633353,-0.236138 -3.443562,-0.36419c-1.620089,-0.108087 -2.844348,-0.343995 -3.668355,-0.716446c-0.827497,-0.367632 -1.551441,-0.935832 -2.167178,-1.703224c-0.617133,-0.767392 -1.038095,-1.64746 -1.270102,-2.637909c-0.269472,-1.154071 -0.248994,-2.254672 0.063761,-3.302033c0.318573,-1.042542 0.889862,-1.909529 1.713869,-2.594996c0.829824,-0.682024 1.929121,-1.182527 3.30743,-1.495771c2.069907,-0.472047 3.812632,-0.287083 5.23306,0.557415c1.421592,0.838761 2.40919,2.2868 2.955115,4.331724l-3.50965,0.996186c-0.425617,-1.101749 -0.946409,-1.818195 -1.573083,-2.153929c-0.61946,-0.332062 -1.412051,-0.390121 -2.367071,-0.171883c-0.953623,0.217091 -1.646385,0.582428 -2.068511,1.093487c-0.428176,0.512436 -0.575013,1.059294 -0.43539,1.651131c0.134736,0.577609 0.483327,1.006972 1.045076,1.294056c0.561749,0.291673 1.742725,0.474342 3.538506,0.564529c1.908643,0.104415 3.324417,0.348585 4.250349,0.729298c0.926164,0.382089 1.705492,0.97255 2.334492,1.76266c0.627837,0.796995 1.090919,1.828751 1.388083,3.100318c0.430503,1.83839 0.216415,3.51201 -0.633887,5.024305c-0.856353,1.514589 -2.505297,2.547722 -4.943343,3.103989c-4.31411,0.981958 -7.283653,-0.890854 -8.902579,-5.620961zm18.738535,3.240532l-2.68448,-21.564304l3.609481,-0.436477l2.685643,21.562927l-3.610644,0.437854zm10.989473,-0.805486l-0.318805,-18.043803l-5.365237,0.091334l-0.064925,-3.676779l14.348564,-0.246694l0.066088,3.676779l-5.349645,0.092482l0.319736,18.04495l-3.635776,0.061731zm15.832753,0.285936l1.130711,-9.078354l-5.009431,-13.28042l4.237085,0.513583l3.158499,9.041407l5.211419,-8.028469l4.159129,0.503945l-8.152106,11.718558l-1.125825,9.046227l-3.609481,-0.436477zm19.371259,-7.923136c0.811906,-2.464649 1.845115,-4.371884 3.111493,-5.726294c1.260561,-1.356934 2.618392,-2.235855 4.065116,-2.634237c1.446957,-0.397465 3.018876,-0.323801 4.717154,0.219386c2.458524,0.788734 4.154242,2.35312 5.095997,4.702799c0.934542,2.347154 0.843089,5.231757 -0.2839,8.652433c-1.137693,3.453951 -2.849235,5.894734 -5.128343,7.312252c-2.006146,1.261928 -4.239645,1.4921 -6.708873,0.701989c-2.487146,-0.798142 -4.167506,-2.277161 -5.046664,-4.43591c-0.999466,-2.469468 -0.939428,-5.402493 0.178019,-8.792418zm3.616694,1.00353c-0.783051,2.376757 -0.910573,4.304186 -0.38978,5.784582c0.52568,1.481314 1.461385,2.440783 2.816889,2.874965c1.361322,0.436477 2.682153,0.206305 3.969009,-0.684319c1.285693,-0.892001 2.326115,-2.558508 3.130575,-5.001815c0.790265,-2.395804 0.938265,-4.305334 0.444,-5.734555c-0.490774,-1.423484 -1.443466,-2.361611 -2.854122,-2.813464c-1.408561,-0.451852 -2.750801,-0.243252 -4.014852,0.627407c-1.268705,0.875249 -2.303077,2.524085 -3.101719,4.947198zm12.123443,15.764117l10.001875,-19.358053l11.032756,5.543854l-1.693391,3.27702l-7.791414,-3.915212l-2.366838,4.579566l6.736332,3.385106l-1.692228,3.275872l-6.736332,-3.385106l-4.249418,8.225365l-3.241342,-1.628413zm21.656418,12.462083l11.267322,-14.221072l-4.227777,-3.258202l2.296096,-2.897454l11.309209,8.712787l-2.297027,2.898831l-4.215676,-3.248564l-11.265926,14.221072l-2.866222,-2.207399zm8.516522,6.761951l15.02457,-15.888726l9.805938,9.017771l-2.543694,2.690002l-7.145426,-6.572168l-3.330468,3.521649l6.639061,6.105859l-2.529266,2.674626l-6.639061,-6.106088l-4.089317,4.32461l7.386043,6.792702l-2.532989,2.678069l-10.045391,-9.238304zm25.385043,15.987174l0.974101,3.609082c-2.322392,0.988155 -4.31667,1.303694 -5.990746,0.940652c-1.670586,-0.365337 -3.059832,-1.29635 -4.160292,-2.789597c-1.383196,-1.878779 -1.770416,-3.927145 -1.165384,-6.143953c0.701139,-2.558278 2.493197,-4.867567 5.36896,-6.927867c3.041681,-2.18009 5.917444,-3.208404 8.631943,-3.083795c2.35497,0.10671 4.263846,1.146957 5.724998,3.131298c1.188422,1.613037 1.622649,3.364912 1.30873,5.251952c-0.227352,1.345001 -0.986435,2.75747 -2.285159,4.240161l-2.970939,-2.2689c0.832384,-0.876626 1.30268,-1.769774 1.413215,-2.686559c0.110767,-0.917933 -0.109371,-1.748203 -0.654133,-2.489663c-0.784214,-1.062737 -1.893284,-1.595138 -3.329304,-1.591695c-1.431133,0.002295 -3.230405,0.778177 -5.396652,2.329484c-2.245366,1.608448 -3.602034,3.080353 -4.065116,4.412273c-0.467969,1.336739 -0.313918,2.527528 0.458195,3.574889c0.566403,0.768539 1.356668,1.214425 2.368234,1.340182c1.019944,0.126904 2.276781,-0.154213 3.769349,-0.84794zm-2.950461,10.175284l19.452008,-10.19915l1.706655,3.166868l-7.654351,4.013661l3.359323,6.230468l7.654119,-4.013661l1.715265,3.179948l-19.452008,10.200297l-1.715033,-3.181096l8.505817,-4.459776l-3.359323,-6.230468l-8.505817,4.459776l-1.706655,-3.166868zm8.20144,15.925443l20.830317,-7.072442l1.155844,3.309147l-11.503052,11.613914l13.909683,-4.722993l1.105347,3.166868l-20.830317,7.073819l-1.19424,-3.420676l11.216593,-11.394528l-13.584827,4.612612l-1.105347,-3.16572zm15.968886,13.970935c2.578599,-0.494766 4.771142,-0.527811 6.587168,-0.091334c1.815096,0.428216 3.252279,1.174265 4.307129,2.228511c1.053454,1.055623 1.751102,2.446979 2.091549,4.174987c0.493101,2.502743 -0.072138,4.722993 -1.699441,6.675436c-1.628467,1.943952 -4.232431,3.263939 -7.811892,3.949635c-3.615298,0.693728 -6.609042,0.400907 -8.971226,-0.877773c-2.091549,-1.119648 -3.379568,-2.933254 -3.873833,-5.446554c-0.499151,-2.532117 -0.001164,-4.697979 1.486517,-6.503324c1.705492,-2.058923 4.335752,-3.428938 7.884031,-4.109585zm0.863567,3.606787c-2.488543,0.476866 -4.258959,1.30117 -5.318696,2.468321c-1.059504,1.170594 -1.457661,2.443307 -1.185862,3.822731c0.274359,1.38516 1.118611,2.413704 2.531826,3.092056c1.414378,0.677205 3.397719,0.766244 5.954677,0.27515c2.507857,-0.480308 4.272223,-1.277303 5.300545,-2.397181c1.024598,-1.113682 1.395064,-2.389838 1.112561,-3.825025c-0.282736,-1.435188 -1.118611,-2.491958 -2.504134,-3.158606c-1.391573,-0.671238 -3.354436,-0.76372 -5.890916,-0.277445zm-8.574465,18.091306l21.836997,-0.752016l0.127289,3.584298l-18.125126,0.623965l0.316246,8.942959l-3.711638,0.128052l-0.443768,-12.527257zm11.026706,15.659702c2.607455,0.316687 4.702727,0.952585 6.29396,1.920315c1.591234,0.960617 2.724272,2.10895 3.396556,3.432609c0.672283,1.324806 0.899636,2.860737 0.681824,4.607793c-0.315082,2.531199 -1.549114,4.470332 -3.707915,5.830708c-2.159033,1.353492 -5.047827,1.814753 -8.666849,1.375981c-3.656487,-0.442444 -6.411942,-1.633232 -8.257987,-3.568922c-1.63824,-1.700929 -2.294932,-3.819288 -1.978687,-6.359897c0.318805,-2.560573 1.472322,-4.468955 3.453103,-5.73226c2.267241,-1.43863 5.196991,-1.94028 8.785994,-1.506328zm-0.310195,3.693532c-2.515071,-0.304754 -4.457456,-0.060584 -5.830878,0.727003c-1.374819,0.791258 -2.151819,1.879926 -2.324951,3.274725c-0.174296,1.400765 0.306705,2.636762 1.43858,3.711202c1.132806,1.075817 2.991185,1.763808 5.575834,2.076823c2.53648,0.307278 4.464437,0.086745 5.793413,-0.664124c1.323158,-0.747197 2.074794,-1.847798 2.256303,-3.299738c0.180579,-1.450563 -0.283667,-2.710196 -1.391341,-3.766966c-1.113957,-1.06136 -2.951625,-1.748203 -5.51696,-2.058923zm-8.242396,25.110507l3.532455,1.131352l-2.428272,7.369164l-8.347113,-2.674626c-0.643428,-1.023495 -1.05834,-2.320993 -1.247296,-3.887904c-0.19105,-1.565534 -0.057711,-3.033997 0.39583,-4.409749c0.549648,-1.670179 1.450448,-3.013802 2.703794,-4.021004c1.256837,-1.012709 2.839694,-1.628413 4.7495,-1.840684c1.908643,-0.212272 3.983437,0.037865 6.232526,0.75913c2.3068,0.738936 4.153078,1.750498 5.543488,3.030325c1.39041,1.280975 2.291209,2.654432 2.702398,4.121747c0.412585,1.467086 0.340447,3.044553 -0.212692,4.724141c-0.666466,2.019911 -1.721083,3.473916 -3.166876,4.356508c-1.445793,0.882363 -3.228078,1.172888 -5.366633,0.87043l0.328346,-3.634095c1.16073,0.096153 2.138555,-0.107857 2.93231,-0.602623c0.792592,-0.490864 1.347127,-1.206164 1.658485,-2.14911c0.478673,-1.452858 0.292277,-2.820348 -0.556862,-4.087095c-0.849139,-1.272714 -2.453404,-2.280833 -4.809771,-3.035374c-2.520889,-0.807551 -4.60406,-0.939275 -6.237181,-0.383007c-1.413215,0.473194 -2.352643,1.428074 -2.821776,2.851328c-0.220139,0.668943 -0.28739,1.413846 -0.208038,2.237002c0.085403,0.819484 0.309032,1.597662 0.67368,2.343712l2.657952,0.851612l1.291743,-3.921179zm-13.642538,11.91293l8.262641,4.151351l14.367878,-0.098448l-1.937498,3.750214l-9.695403,-0.165916l5.866948,7.575469l-1.901429,3.681598l-8.378295,-11.562051l-8.236345,-4.138041l1.651504,-3.194176zm-104.061759,-197.128567c82.81048,0 150.341578,66.595786 150.341578,148.259667c0,81.663881 -67.531098,148.259896 -150.341578,148.259896c-82.810713,0 -150.341811,-66.596016 -150.341811,-148.259896c0,-81.663881 67.531098,-148.259667 150.341811,-148.259667zm0,50.408273c54.658114,0 99.22546,43.950158 99.22546,97.851394c0,53.901466 -44.567346,97.851623 -99.22546,97.851623c-54.658347,0 -99.22546,-43.950158 -99.22546,-97.851623c0,-53.901236 44.567113,-97.851394 99.22546,-97.851394zm66.808085,33.860242c0.91895,9.869153 2.97443,48.057447 -15.227721,85.713111c-11.359706,28.257181 -29.216757,49.772605 -53.738,67.447398c0,0 -14.502614,-14.61716 -27.760491,-29.613885c-17.400949,-19.685296 -25.638691,-37.053041 -39.482053,-120.805677c-14.790004,16.2777 -23.811728,37.756407 -23.811728,61.250205c0,50.635002 41.865879,91.92109 93.211909,91.92109c51.345797,0 93.211909,-41.286087 93.211909,-91.92109c0,-24.837652 -10.0789,-47.421779 -26.403824,-63.991152zm-131.118319,-2.444684l60.911351,0l0,-25.416408c-23.556916,0.841056 -44.931761,10.362771 -60.911351,25.416408zm70.551138,-25.272981l0,25.272981l58.073985,0c-15.335929,-14.446424 -35.640566,-23.798552 -58.073985,-25.272981zm-66.358267,33.097669c39.166971,0 78.333942,0 117.502077,0c2.968379,21.10855 -2.259794,43.565773 -5.436211,63.327028l-101.487814,0l-10.578052,-63.327028zm31.459796,24.994159l0,19.792235c-0.088893,1.11001 0.32951,1.617627 1.264051,1.52285l2.389876,0l0,1.246553l-11.51143,0l0,-1.246553l2.246763,0c0.838202,0 1.262888,-0.460343 1.262888,-1.381718l0,-15.504571c-1.497454,0.921604 -2.904618,1.518261 -4.209626,1.795706l-0.564076,-0.967731c2.809675,-1.288089 5.193501,-3.042258 7.157527,-5.256771l1.964027,0zm12.916267,22.839083l-0.838435,-0.968878c4.114682,-1.292908 6.737728,-4.29363 7.857502,-9.001248c-1.215881,0.927571 -2.431995,1.341559 -3.647877,1.246553c-3.934103,-0.182669 -5.988419,-2.398099 -6.180866,-6.644456c0.28134,-4.612612 2.719386,-7.105717 7.30064,-7.471054c4.869808,0.365337 7.438867,3.502602 7.720207,9.408121c-0.466573,7.294352 -4.539135,11.771798 -12.211172,13.430961zm1.826731,-16.059462c-0.186396,3.969829 0.652038,5.859164 2.526939,5.676496c0.838435,0.093859 1.821146,-0.277445 2.946738,-1.104044c0.185233,-1.389062 0.281573,-2.634467 0.281573,-3.739887c-0.09634,-4.151121 -1.125825,-6.277742 -3.091015,-6.366781c-1.86792,0 -2.760342,1.843209 -2.664235,5.534216zm15.861841,4.707618c0.185233,-7.104569 2.665165,-10.938086 7.437703,-11.487239c4.678525,0.549153 7.157294,4.38267 7.438867,11.487239c-0.185233,7.199575 -2.665398,10.979393 -7.438867,11.351844c-4.772538,-0.277445 -7.252471,-4.063458 -7.437703,-11.351844zm4.629192,-4.842783l0,9.272726c-0.185233,4.057492 0.748145,6.000296 2.808511,5.811891c1.96519,0.277445 2.899732,-1.843209 2.809442,-6.367011l0,-7.891008c0,-4.152268 -0.934542,-6.225649 -2.809442,-6.225649c-1.964259,-0.093629 -2.898568,1.708043 -2.808511,5.399051zm15.304747,15.917182l0,-1.246553c0.556862,-0.55512 1.073001,-1.151776 1.539573,-1.801672c5.989583,-5.90552 8.660799,-9.915738 8.001779,-12.042359c-0.186396,-2.858442 -1.401114,-4.38244 -3.647877,-4.565109c-2.150423,0.182669 -3.50965,1.52285 -4.072563,4.015955l-1.401114,0c0.748145,-4.340904 3.131971,-6.644226 7.156364,-6.921901c3.929217,0.277675 6.037753,2.350826 6.319093,6.224501c0,2.309289 -1.682687,4.985063 -5.055041,8.033288c-2.060366,1.842061 -3.599707,3.366289 -4.629425,4.565338l6.737728,0c1.587743,0.182669 2.480165,-0.691433 2.665398,-2.628271l1.119542,0l-0.699975,6.366781l-14.033482,0zm-93.741079,87.609789c-0.028855,1.21213 -0.270403,3.117988 -1.598215,4.601826c-1.323158,1.482691 -2.122964,0.832565 -3.444726,2.318927c-1.321762,1.4742 -1.72946,1.859732 -0.021642,2.267753c1.710379,0.412611 2.40314,0.444738 1.438347,1.598809c-0.965724,1.162332 -1.054617,2.23333 -3.505927,2.178713c-2.462014,-0.050945 -4.927519,-0.729298 -8.30732,0.75913c-3.384455,1.488657 -3.384455,1.488657 -3.384455,1.488657c0,0 -4.158896,1.997192 -5.359419,2.260639c-1.191913,0.256103 -1.079982,1.405355 -0.7649,2.631942c0.322296,1.221539 1.057177,4.199771 -0.244107,5.435768c-1.297793,1.236914 -3.241342,-1.57173 -1.129315,-4.43132c1.018781,-1.376899 0.898472,-2.359087 -0.702535,-1.723419c-1.605429,0.63934 -2.202083,0.599181 -3.127084,-0.853907c-0.934542,-1.459972 1.415775,-2.019911 3.12243,-2.575031c1.716196,-0.553743 5.022463,-1.744531 6.32747,-2.449274c1.30012,-0.711627 1.932844,-1.686472 -0.103321,-2.456158c-2.033838,-0.765097 -6.750992,-1.858584 -10.463794,-5.216382c-1.167944,-1.053328 -0.214088,-2.639056 2.134832,-1.169676c2.34892,1.457907 9.947888,3.474146 15.760615,4.213082c1.178649,0.154213 1.375982,-0.469752 2.383826,-1.674768c1.004353,-1.208688 2.840857,-3.419529 7.558012,-6.728676c2.524379,-1.770692 3.458921,-1.690144 3.431229,-0.476637zm-15.934911,21.070686c-0.119145,0.536073 -0.279013,2.018534 -0.588044,3.293542c-0.393271,1.639198 -0.857749,3.140936 0.096107,4.045788c2.492033,2.369873 5.264475,2.153929 5.3294,-1.138695c0.060038,-3.298362 -3.65765,-11.583163 -4.837463,-6.200635zm33.925533,-1.641723c-0.197333,0.935832 0.601309,1.512294 2.258631,1.991455c1.661045,0.475719 2.11575,1.335592 0.19617,2.399476c-1.911203,1.070998 -2.855285,2.19776 -4.545186,3.869086c-1.691064,1.662835 -8.914679,9.560957 -15.752238,13.585174c-1.015057,0.59069 -2.131108,1.43404 -1.112561,2.618862c1.018781,1.182527 1.665932,1.10542 4.279437,-0.934455c2.617228,-2.029549 5.687765,-4.878353 9.641183,-8.648991c0.630164,-0.598951 1.506995,-0.039012 2.230939,0.105562c0.584554,0.118643 1.124661,-0.37727 3.279971,-2.523856c0.756523,-0.753164 0.449818,-0.808928 -0.916623,0.023637c-1.375982,0.827975 -2.580926,-0.807781 -0.528007,-2.196613c2.051989,-1.378276 9.134818,-4.590122 11.303392,-8.518415c0.661346,-1.202721 0.334396,-0.906229 0.096107,-2.133735c-0.23573,-1.232325 -0.739535,-0.497061 -1.905152,0.026161c-1.172598,0.51932 -2.245366,0.929866 -6.439401,-0.20883c-1.730624,-0.46608 -1.891888,-0.386679 -2.086662,0.545481zm5.763394,11.114788c0.67368,0.138837 1.010403,0.55512 0.040956,1.811081c-0.970611,1.263305 -1.068114,1.729385 -2.560681,1.423484c-1.482794,-0.303836 -2.045706,-0.973927 -2.092712,0.612032c-0.052824,1.586876 -0.413749,4.74663 -1.53236,4.269764c-0.325786,-0.128052 -0.390711,1.170594 -0.479837,1.917791c-0.084239,0.750869 0.098667,1.897826 -2.26119,2.386395c-2.354738,0.488799 -5.7983,-0.906 -6.577627,2.125473c-0.372793,1.454235 0.43539,1.903792 1.339913,1.890712c0.983642,-0.009179 1.973567,-0.747197 3.152216,-1.801672c0.701372,-0.634521 1.667096,-0.565676 2.492033,-0.46608c0.82517,0.098448 2.274454,-0.434182 3.217373,-1.564387c0.944082,-1.12332 1.953322,-0.442444 1.695951,0.97255c-0.405371,2.281981 -2.97792,2.452716 -1.15468,2.826315c1.822077,0.371304 2.474115,-0.054617 5.103211,-2.500219c1.205177,-1.121943 0.584554,-1.758988 0.178019,-2.535789c-0.39583,-0.772211 -2.59675,-0.637045 -5.218633,-0.303606c-1.664536,0.212272 -0.959906,-2.142225 0.24178,-3.491816c1.20634,-1.354639 1.289183,-2.100689 2.763832,-2.075675c1.478139,0.026161 3.899198,-2.810939 5.122293,-4.581861c1.218441,-1.764955 0.559422,-2.659251 -0.985038,-2.35312c-1.546555,0.313015 -1.668026,0.562234 -2.345197,0.423396c-1.347127,-0.276298 -1.223095,0.795848 -0.139623,1.015234zm25.228666,0.514731c-1.105347,0.752016 -3.722575,2.85959 -4.754387,3.815617c-1.039259,0.95006 -1.175158,1.356934 -0.348824,2.174124c0.830988,0.811223 2.21302,-0.610884 2.896241,2.035286c0.692761,2.653284 0.417239,2.924992 -0.965957,4.290188c-1.379473,1.360376 -2.066184,1.764726 -0.201988,4.624315c1.10651,1.694963 0.411422,2.448126 -0.417239,3.399334c-0.822843,0.95006 -2.818052,3.540466 -0.551044,4.692242c2.748241,1.393651 2.305637,0.458966 2.968379,-1.494394c0.690434,-2.04263 1.514209,-4.832227 2.614901,-8.160421c1.155611,-3.473916 5.384551,-10.544063 7.109357,-11.976956c1.724574,-1.423255 1.648945,0.752016 1.724574,2.521561c0.066088,1.76725 0.205711,3.5345 -0.692761,3.806208c-0.895913,0.274003 -0.27529,2.381576 -0.346264,3.676779c-0.065157,1.289236 -0.340447,2.78386 -1.24241,3.736215c-0.893818,0.954879 -0.686944,1.360376 0,2.043548c0.692761,0.682024 0.466573,1.090045 0.484491,1.90494c0.072371,2.990166 -2.410121,2.106426 -0.682988,3.399334c1.724574,1.291531 6.338407,1.154071 6.476634,0.136313c0.137063,-1.023495 -1.378309,-2.111245 -2.617228,-2.111245c-1.244737,0 -1.998932,-1.018905 -0.969215,-1.973555c1.040189,-0.951208 0.416076,-4.076539 -0.204547,-4.685128c-0.62295,-0.615474 -0.070975,-1.29635 0.414912,-2.044695c0.484724,-0.749722 -0.27529,-3.537024 1.929121,-6.121464c2.204643,-2.587882 3.789827,-1.497837 6.967407,-6.188932c1.059737,-1.564387 -0.070742,-3.199913 -3.242505,-2.922468c-3.175254,0.269184 -5.190941,0.31072 -8.071591,3.330489c-2.43665,2.558508 -4.154242,6.43815 -5.187218,8.007356c-0.508925,0.780243 -1.24846,0.330915 -1.710379,-0.388056c-1.513045,-2.382724 -2.274454,-3.399105 -0.822611,-4.760858c1.443234,-1.366343 4.1326,-2.858442 3.16804,-4.695685c-0.96107,-1.836095 -2.620952,-0.819484 -3.724902,-0.069992zm-1.926794,13.740764c0,0.608589 0.203151,2.446979 -0.482397,2.446979c-0.691598,0 -0.862403,-1.08775 -0.901963,-1.970113c-0.063761,-1.700929 1.384359,-1.428074 1.384359,-0.476866zm14.134475,-11.833529c0.950133,-0.295345 3.175254,-1.972408 3.175254,-0.408021c0,0.641635 -0.500315,1.419812 -0.793755,2.0603c-0.425849,0.908524 -0.810743,1.520555 -1.823473,1.001006c-1.72597,-0.882363 -1.86536,-2.247558 -0.558026,-2.653284zm26.566019,-0.579904c0.430503,0.648749 1.513045,1.766102 2.754291,2.041253c1.23985,0.272855 1.861869,0.336881 1.23985,2.789597c-0.62039,2.448126 -1.375749,5.573458 -1.722247,8.161339c-0.345101,2.583292 -0.898472,3.535877 -4.27199,6.660978c-3.380965,3.13015 -4.692022,4.082506 -5.792482,4.695685c-1.105347,0.612032 -1.936335,1.015463 0.822611,1.627495c1.287089,0.285707 1.598448,0.265512 2.462014,-0.333439c1.003189,-0.686614 2.513907,-2.036434 3.402606,-2.725572c1.650108,-1.289236 7.034892,-5.101181 8.138842,-6.117792c1.104183,-1.017528 1.167944,2.104131 3.449613,-0.072287c2.269335,-2.174124 4.614764,-4.418239 5.37501,-5.846313c0.76234,-1.426697 -0.822843,-2.720752 -4.000424,-0.749492c-3.172694,1.973555 -5.418293,4.561666 -5.307526,1.568058c0.137063,-3.879642 2.964656,-7.146106 2.964656,-9.591938c0,-2.448126 -4.345525,-3.743329 -6.625797,-2.991313c-2.272127,0.747197 -3.860801,-0.545481 -2.889027,0.88374zm35.809044,-14.578148c0.597585,1.010644 1.912366,2.92614 2.000096,5.71459c0.096107,2.800383 0.185233,4.802394 -0.146837,6.448707c-0.336724,1.639198 -1.437183,2.044695 -3.199222,3.415857c-1.769253,1.370015 -4.511443,3.462213 -5.763394,2.685183c-1.247296,-0.775653 -1.509555,-0.104185 -0.185233,1.447121c1.312221,1.554978 3.086128,2.934401 5.266802,0.320129c2.181605,-2.609224 4.096299,-2.804973 4.173324,-1.230948c0.069811,1.570353 -0.258535,7.799444 -2.512511,10.343724c-1.701769,1.928577 -3.443329,5.108525 -0.116585,3.385106c2.371725,-1.234849 5.737098,-5.07525 6.08825,-16.448665c0.062598,-1.859732 1.037862,-2.914207 2.660511,-4.674343c1.618693,-1.751875 2.58465,-2.208317 3.110097,-4.039822c0.353711,-1.214425 -0.504969,-0.755459 -2.640033,-2.731538c-1.105114,-1.019823 -0.715567,0.262299 -0.559189,1.075817c0.158705,0.807781 0.169642,3.917737 -1.768089,3.114775c-1.396227,-0.583576 -0.37768,-0.810076 -0.933145,-5.609028c-0.257371,-2.229888 -0.356038,-1.539603 -1.757385,-2.914207c-1.398554,-1.370015 -1.710146,-1.621299 -2.625373,-2.085084c-0.911736,-0.464933 -1.695951,0.764867 -1.092083,1.782625zm7.615722,19.845475c1.108837,0.585871 3.093342,4.273436 6.4273,5.916076c2.012196,0.981041 4.082104,-2.122949 4.907274,-3.539089c0.785378,-1.328478 -0.433063,-0.563381 -1.20285,-0.283641c-0.783051,0.287083 -4.389972,1.244258 -8.006666,-2.296209c-1.095573,-1.07444 -3.870342,-0.71507 -2.125058,0.202863zm25.241697,-24.321774c-0.103554,0.544564 -0.318805,2.863262 -0.633887,4.28055c-0.228516,1.022348 -0.633887,1.12791 -0.504038,1.8338c0.332069,1.692438 0.124032,4.307858 -3.612971,-0.660682c-0.844252,-1.120796 0.715799,-2.062595 1.457894,-1.823014c0.747912,0.240728 1.670586,-0.444738 2.269335,-3.629506c0.203384,-1.09234 1.191913,-0.931013 1.023667,-0.001147zm-2.322392,-20.576149c0.828661,0.641864 2.222561,2.250082 2.561612,2.991313c0.348824,0.744902 -0.52917,1.346378 -0.921277,0.693957c-0.388384,-0.65701 -1.516536,-2.348531 -2.253744,-2.959185c-0.730227,-0.614556 -0.206874,-1.372309 0.613409,-0.726085zm0.038396,9.316787c0.304378,0.832565 0.962233,2.835953 1.48768,3.661404c0.519629,0.826598 1.77763,-0.340324 1.019944,-1.009267c-0.75885,-0.678582 -1.066718,-0.925276 -1.428806,-2.314108c-0.364415,-1.388832 -1.386687,-1.169446 -1.078818,-0.338029zm1.770416,-1.571501c0.494265,0.544334 1.232869,1.369785 1.38785,2.393509c0.158937,1.035428 0.67112,1.653197 1.378309,0.167064c0.419799,-0.87043 -1.642894,-1.622446 -1.790662,-2.90824c-0.138459,-1.177708 -1.470926,-0.204011 -0.975498,0.347667zm4.187984,-15.226897c2.625373,1.380571 4.336915,0.843121 0.996906,7.740238c-0.780491,1.609595 -0.135899,1.646312 0.902196,1.273861c1.040189,-0.368779 2.452241,-0.511059 2.904618,0.335734c0.464246,0.843351 1.23985,1.583434 1.633121,-0.141132c0.394667,-1.738794 0.76746,-2.245263 0.092616,-2.567917c-0.753963,-0.361665 0.323692,-1.923757 1.688737,-1.397094c1.369932,0.528959 1.039259,2.235625 -0.058874,6.461558c-0.410258,1.601334 -0.047006,1.67844 2.214184,2.242968c2.265844,0.5682 2.945574,1.632084 1.280806,4.103848c-1.663372,2.471763 -3.131738,4.072867 -4.412777,4.966016c-1.28802,0.892001 -0.998303,2.091051 0.200824,2.751733c1.190749,0.658387 0.744655,2.622534 1.864196,2.083937c1.675473,-0.811223 4.278273,-1.521703 4.813494,-0.04865c0.539875,1.470758 -0.791428,1.440007 -1.44463,1.673621c-0.639705,0.224205 -2.834807,0.856431 -4.093971,2.821725c-1.260561,1.968966 -0.953856,2.799006 -0.108208,3.510863c0.849139,0.713922 1.277315,2.291389 1.935171,4.082276c0.34161,0.931243 1.005516,1.735352 -0.430503,2.318927c-0.734881,0.291673 -2.145769,0.054617 -4.160292,-0.825451c-1.211227,-0.53263 0.053987,-0.459196 0.877994,-0.60377c0.828661,-0.149394 2.393366,-1.070998 1.678963,-2.84192c-0.718126,-1.763578 -1.319435,-2.201432 -1.776467,-2.840543c-0.448654,-0.632226 -0.804692,-0.792405 -2.559518,0.619146c-1.748775,1.423255 -1.951926,3.083795 -7.201974,3.364912c-1.048567,0.05324 0.596655,-1.5894 3.617858,-3.956749c3.012826,-2.376987 4.27455,-3.328194 5.426903,-4.182331c1.161661,-0.845645 0.222466,-2.60211 -0.839598,-1.503803c-1.066718,1.098306 -1.25451,2.182385 -2.988857,1.643788c-1.739001,-0.544334 -1.345731,-1.26537 0.231076,-2.980527c1.573083,-1.711485 5.495318,-8.023879 6.726791,-11.067285c0.530334,-1.30117 -0.001164,-1.811081 -1.378309,-0.161327c-1.372259,1.64746 -3.757248,3.36124 -5.536274,5.515169c-1.389014,1.674768 -1.648945,2.898831 -3.914789,2.113769c-2.271895,-0.780472 -0.881718,-1.203869 0.025132,-1.526522c0.908246,-0.324948 2.825266,-2.304699 3.633449,-3.899837c0.811906,-1.588253 0.214088,-2.025877 -0.90685,-1.481543c-1.122101,0.545711 -0.993416,-0.299935 -1.286856,-0.916785c-0.302981,-0.615474 0.105881,-0.906229 1.016221,-1.227505c0.908246,-0.322653 0.637611,-1.022348 0.979221,-1.935691c0.365579,-1.001006 0.372793,-1.365195 0.865894,-1.8338c0.491937,-0.457819 0.28995,-1.619004 -1.59007,-0.948683c-1.882115,0.667567 -1.747611,0.838531 -2.365675,-0.2444c-0.612246,-1.084078 -1.810209,-0.874101 -0.796315,-1.379423c0.500315,-0.247842 1.433693,1.516884 1.820913,-0.424544c0.233403,-1.180232 1.73807,-3.566627 1.949599,-5.286374c0.145673,-1.148104 -0.386057,-1.623823 -1.462316,-2.412557c-1.05741,-0.770834 -1.084869,-1.516884 -0.063761,-0.987925zm4.322487,12.631672c-0.016289,0.951208 0.184069,2.745766 -1.344567,2.934401c-1.259397,0.164769 -0.820284,-1.443449 -0.23573,-2.661546c0.573617,-1.214654 1.598448,-1.218097 1.580297,-0.272855z" id="path2" fill-rule="evenodd" fill="#0076be"/>
   <path stroke="null" d="m711.645977,396.564958l-1.264852,0c-0.112632,-0.453 -0.307034,-0.982876 -0.594694,-1.601334c-0.288337,-0.612261 -0.607084,-1.19905 -0.964576,-1.747973c-0.369431,-0.574167 -0.769724,-1.072375 -1.201778,-1.50541c-0.43228,-0.427757 -0.85217,-0.676287 -1.258545,-0.734117c-0.376415,-0.050716 -0.85217,-0.089498 -1.428168,-0.114971c-0.575998,-0.025243 -1.108519,-0.037865 -1.596664,-0.037865l-1.065269,0l0,21.211359c0,0.414906 0.087853,0.791258 0.257476,1.135712c0.168722,0.338029 0.469448,0.606753 0.901728,0.791028c0.219181,0.089498 0.676465,0.20447 1.383791,0.357305c0.701244,0.147328 1.246155,0.229483 1.64014,0.242334l0,1.327331l-12.29283,0l0,-1.327331c0.345328,-0.025473 0.86456,-0.075959 1.571886,-0.14664c0.702145,-0.075959 1.184208,-0.171653 1.452947,-0.280199c0.407501,-0.166375 0.701244,-0.396088 0.895646,-0.70176c0.188095,-0.30636 0.282255,-0.71507 0.282255,-1.225211l0,-21.38393l-1.065044,0c-0.381596,0 -0.851269,0.011474 -1.414877,0.031669c-0.557301,0.018359 -1.09613,0.05783 -1.609955,0.121167c-0.4066,0.051404 -0.826265,0.293738 -1.258545,0.734117c-0.43228,0.446804 -0.832572,0.944094 -1.201778,1.50541c-0.370107,0.561545 -0.688854,1.154759 -0.971109,1.785838c-0.281354,0.631997 -0.475756,1.148334 -0.588387,1.563469l-1.284225,0l0,-7.196592l22.675429,0l0,7.196592z" id="path4" fill-rule="evenodd" fill="#0076be"/>
   <path stroke="null" d="m741.21423,415.888359l-10.839658,0l0,-1.327331c0.951511,-0.063337 1.740382,-0.184504 2.373371,-0.376123c0.632764,-0.184504 0.945204,-0.414217 0.945204,-0.689138c0,-0.114742 -0.013516,-0.24853 -0.037394,-0.407792c-0.024779,-0.166375 -0.061947,-0.30659 -0.112632,-0.433953l-2.160273,-5.939713l-9.117972,0c-0.344427,0.868135 -0.619473,1.626806 -0.83888,2.27762c-0.212874,0.644848 -0.407276,1.244258 -0.575998,1.793181c-0.157008,0.535155 -0.269865,0.975533 -0.331812,1.307366c-0.056992,0.338258 -0.088078,0.612261 -0.088078,0.822927c0,0.49729 0.381821,0.886952 1.15222,1.160955c0.7704,0.274691 1.641041,0.433953 2.604942,0.484668l0,1.327331l-9.794212,0l0,-1.327331c0.319423,-0.025473 0.714534,-0.095006 1.190065,-0.216173c0.475756,-0.114742 0.870867,-0.274921 1.176999,-0.472965c0.489046,-0.337111 0.86456,-0.688908 1.133524,-1.058835c0.26964,-0.369697 0.532522,-0.873413 0.788871,-1.524457c1.309229,-3.323834 2.755868,-7.061656 4.334061,-11.215531c1.578193,-4.146531 2.980455,-7.840063 4.220303,-11.080824l1.465336,0l8.67961,22.876948c0.182013,0.484668 0.388804,0.880756 0.620374,1.180002c0.237878,0.300164 0.557526,0.586788 0.97629,0.874331c0.282255,0.178079 0.645379,0.325407 1.09613,0.440378c0.457284,0.121167 0.832572,0.184275 1.139606,0.197126l0,1.327331zm-10.495456,-10.83849l-3.945032,-10.284288l-3.869794,10.284288l7.814826,0z" id="path6" fill-rule="evenodd" fill="#0076be"/>
   <path stroke="null" d="m756.729898,415.888359l-11.729222,0l0,-1.327331c0.332038,-0.025473 0.807793,-0.063337 1.43425,-0.114971c0.625781,-0.04429 1.064368,-0.121167 1.320717,-0.222369c0.401193,-0.15995 0.694937,-0.383466 0.883256,-0.663665c0.181787,-0.281117 0.268739,-0.670091 0.268739,-1.167381l0,-19.215773c0,-0.433035 -0.061947,-0.797454 -0.199583,-1.090504c-0.131328,-0.293738 -0.450977,-0.536073 -0.952412,-0.740542c-0.369206,-0.14641 -0.826265,-0.286624 -1.383566,-0.420413c-0.557526,-0.127363 -1.014585,-0.20424 -1.371401,-0.229713l0,-1.327331l11.729222,0l0,1.327331c-0.382497,0.011474 -0.833473,0.057141 -1.359012,0.140214c-0.526214,0.076877 -0.983273,0.185422 -1.377484,0.30659c-0.464042,0.152836 -0.776482,0.39517 -0.933715,0.727003c-0.162415,0.338029 -0.237878,0.714152 -0.237878,1.122861l0,19.196038c0,0.407792 0.088078,0.772211 0.262882,1.090504c0.175705,0.318982 0.482739,0.573937 0.908711,0.75936c0.256575,0.10212 0.676465,0.210666 1.25877,0.325637c0.575998,0.121167 1.070225,0.184275 1.477726,0.197126l0,1.327331z" id="path8" fill-rule="evenodd" fill="#0076be"/>
   <path stroke="null" d="m785.509055,390.695696c-0.212874,0.011474 -0.538604,0.095924 -0.995663,0.24876c-0.450977,0.159032 -0.776707,0.312786 -0.971109,0.459196c-0.475756,0.300393 -0.801486,0.529877 -0.969983,0.695334c-0.169623,0.159261 -0.501661,0.580592 -0.989806,1.269501c-0.958494,1.371621 -1.834542,2.756093 -2.643011,4.165578c-0.807793,1.410633 -1.816071,3.196471 -3.030239,5.365546c-0.450977,0.797454 -0.751703,1.434958 -0.895646,1.926741c-0.150701,0.484668 -0.219181,1.186428 -0.219181,2.111475l0,5.065153c0,0.446574 0.086952,0.835548 0.262882,1.167381c0.175705,0.325407 0.481838,0.593902 0.90781,0.791028c0.256575,0.102349 0.713633,0.223517 1.377484,0.363501c0.657768,0.147328 1.19029,0.223287 1.59689,0.236138l0,1.327331l-12.18628,0l0,-1.327331c0.345103,-0.025473 0.858252,-0.069763 1.546881,-0.140214c0.682547,-0.069763 1.158303,-0.159261 1.428168,-0.267577c0.438362,-0.191848 0.74472,-0.446804 0.908035,-0.772211c0.162415,-0.319211 0.250267,-0.720807 0.250267,-1.192624l0,-6.449624c0,-0.198044 -0.118939,-0.561545 -0.356817,-1.091422c-0.244185,-0.528959 -0.52644,-1.122861 -0.858252,-1.766791c-0.73233,-1.448498 -1.546206,-3.010819 -2.435544,-4.68903c-0.895421,-1.684636 -1.672128,-3.12579 -2.329896,-4.319332c-0.407276,-0.714381 -0.764092,-1.24334 -1.076532,-1.607759c-0.313341,-0.363501 -0.670158,-0.681565 -1.071351,-0.956486c-0.294644,-0.184504 -0.645153,-0.325637 -1.057835,-0.427757c-0.407501,-0.101202 -0.776707,-0.159032 -1.108745,-0.184504l0,-1.327331l11.10254,0l0,1.327331c-1.252237,0.025473 -2.129186,0.108546 -2.64211,0.261381c-0.51405,0.14641 -0.7704,0.357076 -0.7704,0.631997c0,0.075959 0.037168,0.209748 0.106324,0.39517c0.075463,0.185422 0.182013,0.421331 0.313341,0.707956c0.156333,0.325637 0.350735,0.695334 0.569916,1.116665c0.219181,0.415135 0.425972,0.816501 0.619473,1.205246c0.575998,1.104044 1.165286,2.214513 1.766288,3.317638c0.594694,1.097618 1.377484,2.532576 2.348367,4.306481c1.916313,-3.151951 3.381649,-5.614076 4.389926,-7.374442c1.008277,-1.761513 1.515119,-2.820119 1.515119,-3.170998c0,-0.280428 -0.106549,-0.517255 -0.313341,-0.689138c-0.206791,-0.172571 -0.481838,-0.312786 -0.826265,-0.40871c-0.350509,-0.101202 -0.739313,-0.165457 -1.151995,-0.196897c-0.41989,-0.032587 -0.801486,-0.064255 -1.159204,-0.102349l0,-1.327331l9.049492,0l0,1.327331z" id="path10" fill-rule="evenodd" fill="#0076be"/>
   <path stroke="null" d="m815.840724,390.695696c-0.33812,0.011474 -0.844962,0.083302 -1.502505,0.223517c-0.657768,0.133789 -1.196597,0.344454 -1.615361,0.618457c-0.413583,0.287542 -0.702145,0.874331 -0.86456,1.773905c-0.156107,0.898886 -0.237878,1.990078 -0.237878,3.291248l0,11.528316c0,1.473052 -0.294644,2.748749 -0.895646,3.833975c-0.600777,1.084078 -1.389873,1.971031 -2.367064,2.67279c-0.964802,0.669861 -1.985469,1.15453 -3.055919,1.448498c-1.071126,0.292821 -2.092018,0.440149 -3.07439,0.440149c-1.565803,0 -2.956577,-0.210666 -4.183135,-0.631997c-1.221376,-0.414906 -2.248125,-0.975533 -3.081598,-1.690832c-0.820183,-0.707956 -1.433574,-1.518031 -1.853239,-2.436652c-0.413583,-0.918621 -0.620374,-1.86914 -0.620374,-2.870834l0,-15.680585c0,-0.433953 -0.074562,-0.797454 -0.213099,-1.091192c-0.137636,-0.29305 -0.425071,-0.561545 -0.851269,-0.816501c-0.307034,-0.171883 -0.701019,-0.313015 -1.177675,-0.414217c-0.475756,-0.108546 -0.863659,-0.172571 -1.170692,-0.198044l0,-1.327331l10.839883,0l0,1.327331c-0.338345,0.011474 -0.7704,0.069763 -1.289631,0.165457c-0.520132,0.102349 -0.901953,0.191848 -1.145913,0.281346c-0.41989,0.152836 -0.695838,0.401366 -0.839555,0.74582c-0.137636,0.35088 -0.207017,0.734346 -0.207017,1.142138l0,14.654107c0,0.707956 0.075463,1.454005 0.225488,2.232412c0.157234,0.778636 0.457059,1.50541 0.908035,2.1755c0.476657,0.688908 1.127216,1.250454 1.9483,1.684636c0.819957,0.433035 1.941092,0.649896 3.37444,0.649896c1.346397,0 2.473614,-0.216862 3.381649,-0.649896c0.915018,-0.434182 1.634959,-1.008349 2.161174,-1.722501c0.500534,-0.670091 0.851269,-1.37185 1.064143,-2.112163c0.206791,-0.733428 0.307259,-1.47397 0.307259,-2.219791l0,-10.877502c0,-1.384242 -0.09416,-2.513529 -0.294869,-3.393368c-0.194177,-0.880756 -0.481838,-1.454923 -0.857351,-1.728926c-0.43228,-0.312786 -1.01436,-0.55512 -1.753673,-0.727921c-0.739539,-0.178079 -1.303147,-0.273773 -1.697132,-0.299246l0,-1.327331l10.639174,0l0,1.327331z" id="path12" fill-rule="evenodd" fill="#0076be"/>
   <path stroke="null" d="m845.409202,415.888359l-10.839883,0l0,-1.327331c0.951511,-0.063337 1.740608,-0.184504 2.373371,-0.376123c0.632764,-0.184504 0.945204,-0.414217 0.945204,-0.689138c0,-0.114742 -0.011263,-0.24853 -0.037168,-0.407792c-0.025004,-0.166375 -0.062173,-0.30659 -0.112857,-0.433953l-2.160273,-5.939713l-9.117972,0c-0.344427,0.868135 -0.619473,1.626806 -0.838654,2.27762c-0.213099,0.644848 -0.407501,1.244258 -0.575998,1.793181c-0.157234,0.535155 -0.269865,0.975533 -0.332038,1.307366c-0.056766,0.338258 -0.087853,0.612261 -0.087853,0.822927c0,0.49729 0.381596,0.886952 1.151995,1.160955c0.7704,0.274691 1.641041,0.433953 2.604942,0.484668l0,1.327331l-9.794212,0l0,-1.327331c0.319648,-0.025473 0.714534,-0.095006 1.19029,-0.216173c0.475756,-0.114742 0.870642,-0.274921 1.176774,-0.472965c0.489046,-0.337111 0.86456,-0.688908 1.133524,-1.058835c0.269865,-0.369697 0.532522,-0.873413 0.789096,-1.524457c1.309004,-3.323834 2.755868,-7.061656 4.333836,-11.215531c1.578193,-4.146531 2.980455,-7.840063 4.220528,-11.080824l1.465336,0l8.679385,22.876948c0.182013,0.484668 0.388804,0.880756 0.620374,1.180002c0.237878,0.300164 0.557526,0.586788 0.976515,0.874331c0.282255,0.178079 0.645153,0.325407 1.09613,0.440378c0.457059,0.121167 0.832572,0.184275 1.139606,0.197126l0,1.327331zm-10.495456,-10.83849l-3.945257,-10.284288l-3.869794,10.284288l7.815051,0z" id="path14" fill-rule="evenodd" fill="#0076be"/>
   <path stroke="null" d="m876.261004,390.695696c-0.344427,0.011474 -0.870867,0.108546 -1.578193,0.299246c-0.708227,0.185422 -1.221376,0.37727 -1.522102,0.574167c-0.444669,0.313015 -0.738412,0.912425 -0.889339,1.799378c-0.156333,0.880756 -0.231796,2.003847 -0.231796,3.361928l0,19.419095l-1.596664,0l-15.774721,-21.696027l0,13.677656c0,1.530882 0.09416,2.710885 0.282255,3.533582c0.187419,0.822927 0.482063,1.410633 0.870642,1.755087c0.281354,0.274003 0.863659,0.528959 1.740608,0.765097c0.883031,0.242105 1.465336,0.363272 1.74669,0.376123l0,1.327331l-10.676567,0l0,-1.327331c0.32573,-0.025473 0.883256,-0.14664 1.666045,-0.363501c0.782789,-0.217091 1.270934,-0.414217 1.471643,-0.586788c0.425071,-0.35088 0.719715,-0.887182 0.876048,-1.601334c0.163316,-0.714381 0.238779,-1.939592 0.238779,-3.674714l0,-13.058281c0,-0.574167 -0.09416,-1.148334 -0.294869,-1.722501c-0.194177,-0.574167 -0.457059,-1.014545 -0.788871,-1.327331c-0.438587,-0.407792 -1.033282,-0.765785 -1.784984,-1.058835c-0.751703,-0.287542 -1.358787,-0.446574 -1.82846,-0.472047l0,-1.327331l7.433455,0l14.641197,20.223204l0,-12.618821c0,-1.543504 -0.100242,-2.729932 -0.294644,-3.559972c-0.194402,-0.829123 -0.475756,-1.377817 -0.845863,-1.65182c-0.344427,-0.236138 -0.901728,-0.465621 -1.677534,-0.695334c-0.776482,-0.223287 -1.36577,-0.344454 -1.77237,-0.369927l0,-1.327331l10.589616,0l0,1.327331z" id="path16" fill-rule="evenodd" fill="#0076be"/>
   <path stroke="null" d="m920.190902,390.695696c-0.33812,0.011474 -0.844962,0.083302 -1.502505,0.223517c-0.657768,0.133789 -1.196597,0.344454 -1.615361,0.618457c-0.413808,0.287542 -0.702145,0.874331 -0.86456,1.773905c-0.156333,0.898886 -0.237878,1.990078 -0.237878,3.291248l0,11.528316c0,1.473052 -0.294644,2.748749 -0.895646,3.833975c-0.600777,1.084078 -1.389873,1.971031 -2.367064,2.67279c-0.964802,0.669861 -1.985469,1.15453 -3.055919,1.448498c-1.071351,0.292821 -2.092018,0.440149 -3.07439,0.440149c-1.565803,0 -2.956577,-0.210666 -4.183135,-0.631997c-1.221376,-0.414906 -2.24835,-0.975533 -3.081598,-1.690832c-0.820183,-0.707956 -1.433574,-1.518031 -1.853239,-2.436652c-0.413583,-0.918621 -0.6206,-1.86914 -0.6206,-2.870834l0,-15.680585c0,-0.433953 -0.074337,-0.797454 -0.212874,-1.091192c-0.137636,-0.29305 -0.425071,-0.561545 -0.851269,-0.816501c-0.307034,-0.171883 -0.701019,-0.313015 -1.177675,-0.414217c-0.475756,-0.108546 -0.863659,-0.172571 -1.170692,-0.198044l0,-1.327331l10.839658,0l0,1.327331c-0.33812,0.011474 -0.7704,0.069763 -1.289631,0.165457c-0.519907,0.102349 -0.901728,0.191848 -1.145688,0.281346c-0.41989,0.152836 -0.695838,0.401366 -0.839781,0.74582c-0.13741,0.35088 -0.206791,0.734346 -0.206791,1.142138l0,14.654107c0,0.707956 0.075463,1.454005 0.225488,2.232412c0.157234,0.778636 0.457059,1.50541 0.908035,2.1755c0.476657,0.688908 1.127216,1.250454 1.948075,1.684636c0.820183,0.433035 1.941317,0.649896 3.374666,0.649896c1.346397,0 2.473614,-0.216862 3.381649,-0.649896c0.915018,-0.434182 1.634734,-1.008349 2.161174,-1.722501c0.500534,-0.670091 0.851269,-1.37185 1.064143,-2.112163c0.206791,-0.733428 0.307034,-1.47397 0.307034,-2.219791l0,-10.877502c0,-1.384242 -0.093935,-2.513529 -0.294644,-3.393368c-0.194402,-0.880756 -0.481838,-1.454923 -0.857351,-1.728926c-0.43228,-0.312786 -1.01436,-0.55512 -1.753898,-0.727921c-0.739313,-0.178079 -1.302921,-0.273773 -1.696907,-0.299246l0,-1.327331l10.639174,0l0,1.327331z" id="path18" fill-rule="evenodd" fill="#0076be"/>
   <path stroke="null" d="m951.089784,390.695696c-0.344427,0.011474 -0.870642,0.108546 -1.578193,0.299246c-0.708227,0.185422 -1.221151,0.37727 -1.522102,0.574167c-0.444669,0.313015 -0.738412,0.912425 -0.889339,1.799378c-0.156107,0.880756 -0.23157,2.003847 -0.23157,3.361928l0,19.419095l-1.59689,0l-15.774721,-21.696027l0,13.677656c0,1.530882 0.09416,2.710885 0.282255,3.533582c0.187419,0.822927 0.482063,1.410633 0.870867,1.755087c0.281354,0.274003 0.863433,0.528959 1.740382,0.765097c0.883256,0.242105 1.465336,0.363272 1.74669,0.376123l0,1.327331l-10.676342,0l0,-1.327331c0.32573,-0.025473 0.883031,-0.14664 1.66582,-0.363501c0.782789,-0.217091 1.271159,-0.414217 1.471643,-0.586788c0.425071,-0.35088 0.719715,-0.887182 0.876048,-1.601334c0.163316,-0.714381 0.238779,-1.939592 0.238779,-3.674714l0,-13.058281c0,-0.574167 -0.09416,-1.148334 -0.294644,-1.722501c-0.194402,-0.574167 -0.457059,-1.014545 -0.789096,-1.327331c-0.438362,-0.407792 -1.033056,-0.765785 -1.784984,-1.058835c-0.751703,-0.287542 -1.358787,-0.446574 -1.828235,-0.472047l0,-1.327331l7.43323,0l14.641422,20.223204l0,-12.618821c0,-1.543504 -0.100467,-2.729932 -0.294869,-3.559972c-0.194177,-0.829123 -0.47553,-1.377817 -0.845637,-1.65182c-0.344427,-0.236138 -0.901953,-0.465621 -1.677534,-0.695334c-0.776707,-0.223287 -1.365995,-0.344454 -1.772595,-0.369927l0,-1.327331l10.589616,0l0,1.327331z" id="path20" fill-rule="evenodd" fill="#0076be"/>
   <path stroke="null" d="m966.670103,415.888359l-11.729222,0l0,-1.327331c0.332038,-0.025473 0.807793,-0.063337 1.43425,-0.114971c0.625781,-0.04429 1.064368,-0.121167 1.320717,-0.222369c0.401193,-0.15995 0.694937,-0.383466 0.883256,-0.663665c0.181787,-0.281117 0.268964,-0.670091 0.268964,-1.167381l0,-19.215773c0,-0.433035 -0.062173,-0.797454 -0.199808,-1.090504c-0.131328,-0.293738 -0.450977,-0.536073 -0.952412,-0.740542c-0.369206,-0.14641 -0.826265,-0.286624 -1.383566,-0.420413c-0.557526,-0.127363 -1.014585,-0.20424 -1.371401,-0.229713l0,-1.327331l11.729222,0l0,1.327331c-0.382497,0.011474 -0.833473,0.057141 -1.358787,0.140214c-0.52644,0.076877 -0.983498,0.185422 -1.377709,0.30659c-0.464042,0.152836 -0.776482,0.39517 -0.933715,0.727003c-0.162415,0.338029 -0.237653,0.714152 -0.237653,1.122861l0,19.196038c0,0.407792 0.087853,0.772211 0.262657,1.090504c0.175705,0.318982 0.482739,0.573937 0.908711,0.75936c0.256575,0.10212 0.676465,0.210666 1.25877,0.325637c0.575998,0.121167 1.070225,0.184275 1.477726,0.197126l0,1.327331z" id="path22" fill-rule="evenodd" fill="#0076be"/>
   <path stroke="null" d="m996.040575,390.695696c-0.319648,0.011474 -0.701244,0.083302 -1.15222,0.210666c-0.457059,0.134018 -0.827166,0.29305 -1.120909,0.478472c-0.41989,0.261152 -0.751703,0.59941 -1.00197,1.00812c-0.250493,0.413988 -0.495353,0.898656 -0.745621,1.460201c-0.813875,1.978374 -2.047641,5.065382 -3.681699,9.263547c-1.641041,4.190822 -3.331866,8.56087 -5.066166,13.109685l-1.522102,0c-1.759304,-4.822818 -3.463419,-9.473065 -5.10356,-13.945233c-1.634959,-4.472168 -2.748885,-7.496527 -3.338173,-9.065503c-0.143718,-0.383237 -0.33812,-0.721495 -0.588387,-1.014316c-0.244185,-0.293968 -0.563608,-0.574167 -0.971109,-0.835548c-0.330911,-0.210666 -0.694937,-0.370845 -1.101311,-0.472047c-0.401193,-0.108546 -0.776707,-0.172571 -1.114827,-0.198044l0,-1.327331l10.76442,0l0,1.327331c-0.914343,0.050716 -1.690824,0.140214 -2.316605,0.280428c-0.632764,0.133789 -0.946105,0.377041 -0.946105,0.727921c0,0.133789 0.02568,0.299246 0.075463,0.484439c0.043476,0.184504 0.087853,0.338258 0.125021,0.446804c0.450977,1.224293 1.19029,3.215289 2.204875,5.971152c1.01436,2.762289 2.454016,6.691959 4.326853,11.789009c0.932814,-2.309519 1.997858,-5.027517 3.212026,-8.172125c1.208762,-3.138412 2.022862,-5.294865 2.436445,-6.462246c0.407276,-1.135712 0.645153,-1.920545 0.707326,-2.354497c0.069156,-0.43946 0.100242,-0.79034 0.100242,-1.065261c0,-0.286624 -0.125021,-0.528959 -0.375514,-0.720577c-0.250267,-0.191618 -0.58208,-0.357076 -0.995663,-0.49729c-0.407501,-0.122085 -0.813875,-0.217091 -1.233766,-0.281117c-0.413583,-0.063337 -0.832572,-0.108546 -1.264852,-0.14664l0,-1.327331l9.687888,0l0,1.327331z" id="path24" fill-rule="evenodd" fill="#0076be"/>
   <path stroke="null" d="m1021.045899,408.073309l-0.494452,7.815049l-21.611286,0l0,-1.327331c0.369206,-0.025473 0.858252,-0.075959 1.465336,-0.159261c0.613391,-0.083073 1.008277,-0.165457 1.196597,-0.24853c0.387678,-0.191848 0.662949,-0.434182 0.813875,-0.733428c0.156107,-0.300164 0.23157,-0.676287 0.23157,-1.135712l0,-19.068445c0,-0.40871 -0.069156,-0.771981 -0.200484,-1.091192c-0.137636,-0.319211 -0.41989,-0.574167 -0.844962,-0.778636c-0.332038,-0.159032 -0.776707,-0.305442 -1.334233,-0.426609c-0.557301,-0.127593 -0.995663,-0.198044 -1.3277,-0.223517l0,-1.327331l20.14595,0l0,6.392713l-1.378385,0c-0.24396,-0.95029 -0.776707,-1.952213 -1.584275,-3.017245c-0.813875,-1.066179 -1.590582,-1.652967 -2.322687,-1.748891c-0.382722,-0.050486 -0.833473,-0.088581 -1.359012,-0.114742c-0.526214,-0.025243 -1.120909,-0.037865 -1.797149,-0.037865l-4.090101,0l0,10.54544l2.937881,0c0.939122,0 1.627751,-0.095924 2.060031,-0.274921c0.43228,-0.178079 0.813875,-0.484668 1.145913,-0.905082c0.268964,-0.364419 0.500534,-0.842662 0.688854,-1.448498c0.188095,-0.605836 0.313116,-1.173577 0.375288,-1.709879l1.378385,0l0,10.372869l-1.378385,0c-0.049558,-0.59941 -0.181111,-1.230489 -0.393985,-1.90058c-0.213099,-0.663665 -0.438587,-1.148334 -0.670158,-1.448498c-0.375514,-0.484668 -0.807793,-0.80365 -1.290532,-0.95029c-0.481838,-0.14641 -1.127216,-0.223287 -1.915412,-0.223287l-2.937881,0l0,7.96146c0,0.797454 0.056992,1.429451 0.163316,1.888876c0.112857,0.459196 0.32573,0.810076 0.645379,1.045984c0.31244,0.236138 0.750802,0.388974 1.30202,0.459425c0.551219,0.063337 1.334008,0.10212 2.348593,0.10212c0.401193,0 0.932814,0 1.596664,0c0.657768,0 1.215069,-0.026161 1.666045,-0.076877c0.463141,-0.050486 0.945204,-0.140214 1.440332,-0.267577c0.494452,-0.133789 0.844962,-0.312786 1.058061,-0.536302c0.557301,-0.59941 1.151995,-1.50541 1.766288,-2.717999c0.619473,-1.217867 1.01436,-2.111245 1.183082,-2.685412l1.321618,0z" id="path26" fill-rule="evenodd" fill="#0076be"/>
   <path stroke="null" d="m1051.155684,415.888359l-7.007483,0c-1.553189,-2.48209 -2.956352,-4.625004 -4.214897,-6.430577c-1.252463,-1.805803 -2.611249,-3.668288 -4.076585,-5.588833l-2.661933,0l0,8.415148c0,0.433264 0.069381,0.816501 0.200709,1.148334c0.131328,0.324719 0.419665,0.580592 0.864334,0.752475c0.219406,0.089498 0.601002,0.172571 1.15222,0.242105c0.551219,0.076877 1.01436,0.121167 1.39618,0.134018l0,1.327331l-11.008605,0l0,-1.327331c0.294644,-0.025473 0.719941,-0.069763 1.277241,-0.134018c0.557301,-0.056912 0.946105,-0.139985 1.165286,-0.242105c0.363124,-0.159261 0.632088,-0.39517 0.795404,-0.708185c0.168497,-0.312786 0.250267,-0.707956 0.250267,-1.192624l0,-19.176761c0,-0.440378 -0.063074,-0.822927 -0.188095,-1.161185c-0.118939,-0.338029 -0.4066,-0.592985 -0.857576,-0.765785c-0.307034,-0.114742 -0.708227,-0.216862 -1.196372,-0.30636c-0.488145,-0.095006 -0.901728,-0.152836 -1.246155,-0.178308l0,-1.327331l12.016883,0c1.102212,0 2.135494,0.114971 3.10007,0.344454c0.963901,0.229713 1.84085,0.59964 2.623639,1.110469c0.75801,0.49729 1.365094,1.148334 1.816071,1.952213c0.450977,0.80365 0.682547,1.772987 0.682547,2.908699c0,1.020741 -0.156333,1.926741 -0.463366,2.711573c-0.307034,0.784832 -0.75801,1.461349 -1.352705,2.035286c-0.550993,0.535384 -1.215069,1.001006 -1.984567,1.390668c-0.7704,0.39517 -1.622344,0.727003 -2.549077,1.001006c1.283549,1.735122 2.348593,3.190046 3.199636,4.376244c0.85217,1.18092 1.891534,2.622304 3.131382,4.313136c0.538829,0.752246 1.020667,1.30094 1.459254,1.658245c0.43228,0.35065 0.864334,0.644618 1.290532,0.867905c0.318522,0.159261 0.713633,0.286624 1.195471,0.376123c0.475756,0.083302 0.870642,0.133789 1.19029,0.14664l0,1.327331zm-9.650494,-19.776401c0,-1.607759 -0.450977,-2.87726 -1.359012,-3.821124c-0.901728,-0.937668 -2.185052,-1.410633 -3.8324,-1.410633l-3.118992,0l0,11.380988l2.405359,0c1.684517,0 3.093087,-0.547776 4.214221,-1.65182c1.127216,-1.104044 1.690824,-2.603257 1.690824,-4.497411z" id="path28" fill-rule="evenodd" fill="#0076be"/>
   <path stroke="null" d="m1070.456673,403.722308c0.550318,0.619375 0.957593,1.30117 1.22025,2.048137c0.263783,0.739624 0.395111,1.601334 0.395111,2.583292c0,2.348072 -0.85217,4.275042 -2.549077,5.799499c-1.703214,1.518031 -3.813929,2.27762 -6.331018,2.27762c-1.16461,0 -2.322687,-0.185422 -3.488198,-0.548924c-1.158303,-0.369697 -2.160273,-0.816501 -3.005234,-1.339952l-0.789096,1.365195l-1.471643,0l-0.25725,-9.084321l1.490115,0c0.307034,1.123091 0.66385,2.137636 1.071351,3.03721c0.413583,0.905082 0.951511,1.747744 1.621669,2.532576c0.638846,0.733428 1.384467,1.320217 2.229428,1.760595c0.85217,0.433953 1.84085,0.650814 2.961759,0.650814c0.845863,0 1.584275,-0.114742 2.210957,-0.338029c0.632989,-0.223287 1.145913,-0.542498 1.534717,-0.951208c0.393985,-0.414217 0.682547,-0.89246 0.869741,-1.44758c0.194402,-0.55512 0.288562,-1.193542 0.288562,-1.914119c0,-1.058835 -0.294869,-2.048137 -0.883256,-2.966758c-0.588387,-0.912425 -1.459029,-1.60753 -2.623639,-2.079576c-0.795179,-0.325637 -1.703214,-0.682712 -2.730188,-1.077882c-1.02765,-0.389662 -1.916087,-0.765785 -2.661708,-1.11024c-1.471643,-0.676287 -2.611249,-1.556125 -3.425125,-2.647547c-0.808694,-1.090504 -1.215069,-2.513529 -1.215069,-4.267698c0,-1.00812 0.200484,-1.952213 0.600777,-2.826544c0.407501,-0.867217 0.983498,-1.645624 1.728218,-2.334532c0.708227,-0.64393 1.546881,-1.154759 2.511683,-1.524457c0.963901,-0.363501 1.972178,-0.548924 3.024832,-0.548924c1.201778,0 2.273129,0.185422 3.224641,0.561545c0.945204,0.369697 1.809763,0.810076 2.592552,1.307366l0.751703,-1.269501l1.471643,0l0.143718,8.804122l-1.484033,0c-0.268964,-1.014545 -0.575998,-1.977456 -0.90781,-2.896078c-0.338345,-0.925047 -0.776707,-1.761283 -1.315536,-2.507333c-0.525313,-0.720577 -1.164385,-1.30117 -1.922395,-1.728697c-0.75801,-0.427757 -1.690824,-0.644848 -2.793262,-0.644848c-1.158303,0 -2.147883,0.376123 -2.967841,1.142138c-0.820183,0.75936 -1.233766,1.684406 -1.233766,2.781107c0,1.148334 0.263558,2.099542 0.789096,2.851787c0.526214,0.753393 1.290532,1.37185 2.298584,1.856519c0.888663,0.440149 1.765387,0.816272 2.629946,1.135483c0.86456,0.313015 1.697132,0.657469 2.5047,1.014545c0.733231,0.325637 1.440557,0.695334 2.116797,1.104044c0.682547,0.414217 1.271159,0.89246 1.772595,1.441154z" id="path30" fill-rule="evenodd" fill="#0076be"/>
   <path stroke="null" d="m1088.805249,415.888359l-11.729222,0l0,-1.327331c0.332038,-0.025473 0.807793,-0.063337 1.43425,-0.114971c0.625781,-0.04429 1.064368,-0.121167 1.320717,-0.222369c0.401193,-0.15995 0.695162,-0.383466 0.883256,-0.663665c0.182013,-0.281117 0.268964,-0.670091 0.268964,-1.167381l0,-19.215773c0,-0.433035 -0.062173,-0.797454 -0.199808,-1.090504c-0.131328,-0.293738 -0.450751,-0.536073 -0.952412,-0.740542c-0.369206,-0.14641 -0.826265,-0.286624 -1.383566,-0.420413c-0.557526,-0.127363 -1.014585,-0.20424 -1.371401,-0.229713l0,-1.327331l11.729222,0l0,1.327331c-0.382497,0.011474 -0.833473,0.057141 -1.358787,0.140214c-0.52644,0.076877 -0.983498,0.185422 -1.377484,0.30659c-0.464267,0.152836 -0.776707,0.39517 -0.933715,0.727003c-0.162415,0.338029 -0.237878,0.714152 -0.237878,1.122861l0,19.196038c0,0.407792 0.087853,0.772211 0.262657,1.090504c0.175705,0.318982 0.482739,0.573937 0.908936,0.75936c0.256349,0.10212 0.67624,0.210666 1.258545,0.325637c0.575998,0.121167 1.07045,0.184275 1.477726,0.197126l0,1.327331z" id="path32" fill-rule="evenodd" fill="#0076be"/>
   <path stroke="null" d="m1115.313304,396.564958l-1.264852,0c-0.112632,-0.453 -0.307034,-0.982876 -0.594694,-1.601334c-0.288337,-0.612261 -0.607084,-1.19905 -0.964802,-1.747973c-0.369206,-0.574167 -0.769499,-1.072375 -1.201778,-1.50541c-0.432055,-0.427757 -0.851945,-0.676287 -1.258545,-0.734117c-0.376189,-0.050716 -0.851945,-0.089498 -1.427942,-0.114971c-0.575998,-0.025243 -1.108745,-0.037865 -1.59689,-0.037865l-1.065044,0l0,21.211359c0,0.414906 0.087853,0.791258 0.257476,1.135712c0.168722,0.338029 0.469448,0.606753 0.901728,0.791028c0.219181,0.089498 0.67624,0.20447 1.383791,0.357305c0.701019,0.147328 1.246155,0.229483 1.64014,0.242334l0,1.327331l-12.29283,0l0,-1.327331c0.345328,-0.025473 0.86456,-0.075959 1.571886,-0.14664c0.702145,-0.075959 1.183983,-0.171653 1.452947,-0.280199c0.407501,-0.166375 0.701244,-0.396088 0.895646,-0.70176c0.188095,-0.30636 0.282255,-0.71507 0.282255,-1.225211l0,-21.38393l-1.065044,0c-0.381821,0 -0.851269,0.011474 -1.414877,0.031669c-0.557301,0.018359 -1.09613,0.05783 -1.609955,0.121167c-0.4066,0.051404 -0.82649,0.293738 -1.258545,0.734117c-0.43228,0.446804 -0.832572,0.944094 -1.201778,1.50541c-0.370107,0.561545 -0.688854,1.154759 -0.971109,1.785838c-0.281354,0.631997 -0.475756,1.148334 -0.588387,1.563469l-1.284225,0l0,-7.196592l22.675429,0l0,7.196592z" id="path34" fill-rule="evenodd" fill="#0076be"/>
   <path stroke="null" d="m1141.809869,390.695696c-0.213099,0.011474 -0.538829,0.095924 -0.995888,0.24876c-0.450977,0.159032 -0.776707,0.312786 -0.971109,0.459196c-0.475756,0.300393 -0.801486,0.529877 -0.969983,0.695334c-0.169623,0.159261 -0.501661,0.580592 -0.989806,1.269501c-0.958494,1.371621 -1.834542,2.756093 -2.643011,4.165578c-0.807793,1.410633 -1.816071,3.196471 -3.030239,5.365546c-0.450751,0.797454 -0.751703,1.434958 -0.895421,1.926741c-0.150926,0.484668 -0.219406,1.186428 -0.219406,2.111475l0,5.065153c0,0.446574 0.086952,0.835548 0.262882,1.167381c0.175705,0.325407 0.481838,0.593902 0.90781,0.791028c0.256575,0.102349 0.713633,0.223517 1.377484,0.363501c0.657768,0.147328 1.19029,0.223287 1.59689,0.236138l0,1.327331l-12.18628,0l0,-1.327331c0.345103,-0.025473 0.858252,-0.069763 1.546881,-0.140214c0.682547,-0.069763 1.158303,-0.159261 1.428168,-0.267577c0.438362,-0.191848 0.74472,-0.446804 0.908035,-0.772211c0.162415,-0.319211 0.250267,-0.720807 0.250267,-1.192624l0,-6.449624c0,-0.198044 -0.118939,-0.561545 -0.356817,-1.091422c-0.244185,-0.528959 -0.52644,-1.122861 -0.858252,-1.766791c-0.73233,-1.448498 -1.546206,-3.010819 -2.435544,-4.68903c-0.895421,-1.684636 -1.672128,-3.12579 -2.329896,-4.319332c-0.407276,-0.714381 -0.764092,-1.24334 -1.076532,-1.607759c-0.313341,-0.363501 -0.670158,-0.681565 -1.071351,-0.956486c-0.294644,-0.184504 -0.645153,-0.325637 -1.057835,-0.427757c-0.407501,-0.101202 -0.776707,-0.159032 -1.108745,-0.184504l0,-1.327331l11.10254,0l0,1.327331c-1.252237,0.025473 -2.129186,0.108546 -2.64211,0.261381c-0.51405,0.14641 -0.7704,0.357076 -0.7704,0.631997c0,0.075959 0.037168,0.209748 0.106324,0.39517c0.075463,0.185422 0.182013,0.421331 0.313341,0.707956c0.156333,0.325637 0.350735,0.695334 0.569916,1.116665c0.219181,0.415135 0.425972,0.816501 0.619473,1.205246c0.575998,1.104044 1.165286,2.214513 1.766288,3.317638c0.594694,1.097618 1.377484,2.532576 2.348593,4.306481c1.916087,-3.151951 3.381424,-5.614076 4.389701,-7.374442c1.008277,-1.761513 1.515119,-2.820119 1.515119,-3.170998c0,-0.280428 -0.106549,-0.517255 -0.313341,-0.689138c-0.206791,-0.172571 -0.481838,-0.312786 -0.826265,-0.40871c-0.350509,-0.101202 -0.739313,-0.165457 -1.151995,-0.196897c-0.41989,-0.032587 -0.801486,-0.064255 -1.159204,-0.102349l0,-1.327331l9.049718,0l0,1.327331z" id="path36" fill-rule="evenodd" fill="#0076be"/>
   <path stroke="null" d="m1183.093152,392.507695c1.145688,1.218097 2.047641,2.691838 2.692794,4.420764c0.651461,1.722271 0.971109,3.63662 0.971109,5.728818c0,2.105049 -0.325956,4.019168 -0.989806,5.735243c-0.657543,1.722501 -1.577968,3.182702 -2.74866,4.395291c-1.139606,1.192624 -2.461224,2.117671 -3.963954,2.762289c-1.503406,0.651044 -3.106377,0.976451 -4.809591,0.976451c-1.809763,0 -3.482116,-0.351568 -5.016608,-1.039788c-1.533816,-0.688908 -2.849127,-1.652738 -3.951564,-2.89057c-1.101311,-1.205246 -1.965871,-2.67279 -2.598635,-4.401717c-0.625781,-1.722501 -0.945204,-3.572364 -0.945204,-5.537199c0,-2.156453 0.331812,-4.076998 0.995663,-5.766912c0.657768,-1.690832 1.571886,-3.151951 2.730188,-4.38267c1.151995,-1.218785 2.486228,-2.156453 4.008331,-2.807497c1.521201,-0.6437 3.117866,-0.969337 4.777829,-0.969337c1.727993,0 3.356645,0.331833 4.884153,0.988384c1.52841,0.663665 2.849127,1.588712 3.963954,2.78845zm-2.736496,18.79995c0.682547,-1.135712 1.183983,-2.417835 1.496422,-3.846367c0.313341,-1.435876 0.463366,-3.03721 0.463366,-4.804001c0,-1.818425 -0.168722,-3.489292 -0.519231,-5.008241c-0.350509,-1.524457 -0.858252,-2.819201 -1.534492,-3.891576c-0.670158,-1.058835 -1.515119,-1.881762 -2.529704,-2.474976c-1.01436,-0.592985 -2.179871,-0.886952 -3.487973,-0.886952c-1.465561,0 -2.711717,0.344454 -3.738466,1.027167c-1.026974,0.682712 -1.86653,1.601334 -2.51799,2.749667c-0.607084,1.097618 -1.064368,2.37974 -1.365094,3.847285c-0.30005,1.473052 -0.450977,3.017245 -0.450977,4.637625c0,1.792034 0.163316,3.413333 0.482739,4.854716c0.31244,1.448498 0.814101,2.73062 1.50273,3.853481c0.657768,1.09693 1.49034,1.952213 2.49231,2.57067c1.00197,0.618457 2.204649,0.925047 3.594748,0.925047c1.308103,0 2.492085,-0.313015 3.543838,-0.937668c1.052654,-0.618457 1.910231,-1.492788 2.567773,-2.615879z" id="path38" fill-rule="evenodd" fill="#0076be"/>
   <path stroke="null" d="m1211.100107,396.003412l-1.377484,0c-0.25725,-0.982876 -0.788871,-2.041712 -1.602972,-3.157459c-0.814776,-1.123091 -1.597566,-1.742466 -2.342285,-1.851011c-0.376189,-0.050486 -0.827166,-0.088581 -1.346397,-0.114742c-0.520132,-0.025243 -1.108519,-0.037865 -1.77237,-0.037865l-4.365147,0l0,10.653986l2.987664,0c0.908035,0 1.609054,-0.095924 2.110489,-0.287542c0.50076,-0.197126 0.932814,-0.490864 1.283549,-0.886035c0.24396,-0.274921 0.469448,-0.702677 0.670158,-1.28304c0.200484,-0.580592 0.331812,-1.19905 0.393985,-1.862715l1.397081,0l0,10.411651l-1.397081,0c-0.037168,-0.548694 -0.162415,-1.167151 -0.375514,-1.868911c-0.212874,-0.696252 -0.444669,-1.199738 -0.688629,-1.512753c-0.363124,-0.459196 -0.826265,-0.777489 -1.383791,-0.943864c-0.557301,-0.165457 -1.227458,-0.254956 -2.010247,-0.254956l-2.987664,0l0,9.141233c0,0.415135 0.075463,0.778636 0.238779,1.104044c0.156333,0.325637 0.437686,0.586788 0.844962,0.784832c0.182013,0.089498 0.575998,0.191848 1.19029,0.319211c0.613391,0.121167 1.076532,0.190701 1.39618,0.203552l0,1.327331l-11.284552,0l0,-1.327331c0.369206,-0.025473 0.858252,-0.063337 1.465336,-0.121167c0.613391,-0.057141 1.008277,-0.127593 1.196372,-0.216173c0.363124,-0.15995 0.632088,-0.402284 0.795404,-0.721495c0.168497,-0.312097 0.250267,-0.695334 0.250267,-1.148334l0,-19.138208c0,-0.40871 -0.069156,-0.771981 -0.200709,-1.091192c-0.13741,-0.319211 -0.419665,-0.574167 -0.844962,-0.778636c-0.331812,-0.159032 -0.776482,-0.305442 -1.334008,-0.426609c-0.557301,-0.127593 -0.995663,-0.198044 -1.3277,-0.223517l0,-1.327331l20.420996,0l0,6.635047z" id="path40" fill-rule="evenodd" fill="#0076be"/>
   <path stroke="null" d="m1251.382321,396.564958l-1.264852,0c-0.112632,-0.453 -0.307034,-0.982876 -0.594469,-1.601334c-0.288562,-0.612261 -0.607309,-1.19905 -0.964802,-1.747973c-0.369431,-0.574167 -0.769724,-1.072375 -1.201778,-1.50541c-0.43228,-0.427757 -0.85217,-0.676287 -1.258545,-0.734117c-0.376415,-0.050716 -0.85217,-0.089498 -1.428168,-0.114971c-0.575998,-0.025243 -1.108519,-0.037865 -1.596664,-0.037865l-1.065269,0l0,21.211359c0,0.414906 0.088078,0.791258 0.257476,1.135712c0.168722,0.338029 0.469448,0.606753 0.901728,0.791028c0.219181,0.089498 0.676465,0.20447 1.383791,0.357305c0.701244,0.147328 1.246155,0.229483 1.64014,0.242334l0,1.327331l-12.292605,0l0,-1.327331c0.345103,-0.025473 0.864334,-0.075959 1.57166,-0.14664c0.702145,-0.075959 1.184208,-0.171653 1.452947,-0.280199c0.407501,-0.166375 0.701244,-0.396088 0.895646,-0.70176c0.188095,-0.30636 0.282255,-0.71507 0.282255,-1.225211l0,-21.38393l-1.065044,0c-0.381596,0 -0.851269,0.011474 -1.414877,0.031669c-0.557301,0.018359 -1.09613,0.05783 -1.609955,0.121167c-0.4066,0.051404 -0.826265,0.293738 -1.258545,0.734117c-0.43228,0.446804 -0.832572,0.944094 -1.201778,1.50541c-0.370107,0.561545 -0.688854,1.154759 -0.971109,1.785838c-0.281354,0.631997 -0.475756,1.148334 -0.588387,1.563469l-1.284225,0l0,-7.196592l22.675429,0l0,7.196592z" id="path42" fill-rule="evenodd" fill="#0076be"/>
   <path stroke="null" d="m1277.635603,408.073309l-0.494452,7.815049l-21.611286,0l0,-1.327331c0.369206,-0.025473 0.858252,-0.075959 1.465336,-0.159261c0.613391,-0.083073 1.008277,-0.165457 1.196597,-0.24853c0.387903,-0.191848 0.662949,-0.434182 0.813875,-0.733428c0.156107,-0.300164 0.23157,-0.676287 0.23157,-1.135712l0,-19.068445c0,-0.40871 -0.069156,-0.771981 -0.200484,-1.091192c-0.137636,-0.319211 -0.41989,-0.574167 -0.844962,-0.778636c-0.332038,-0.159032 -0.776707,-0.305442 -1.334008,-0.426609c-0.557526,-0.127593 -0.995888,-0.198044 -1.327926,-0.223517l0,-1.327331l20.14595,0l0,6.392713l-1.378385,0c-0.24396,-0.95029 -0.776482,-1.952213 -1.584275,-3.017245c-0.813875,-1.066179 -1.590582,-1.652967 -2.322687,-1.748891c-0.382497,-0.050486 -0.833473,-0.088581 -1.358787,-0.114742c-0.52644,-0.025243 -1.121134,-0.037865 -1.797374,-0.037865l-4.089876,0l0,10.54544l2.937655,0c0.939122,0 1.627976,-0.095924 2.060256,-0.274921c0.432055,-0.178079 0.813875,-0.484668 1.145688,-0.905082c0.268964,-0.364419 0.500534,-0.842662 0.688854,-1.448498c0.188095,-0.605836 0.313341,-1.173577 0.375288,-1.709879l1.378385,0l0,10.372869l-1.378385,0c-0.049558,-0.59941 -0.180886,-1.230489 -0.393985,-1.90058c-0.213099,-0.663665 -0.438362,-1.148334 -0.670158,-1.448498c-0.375288,-0.484668 -0.807568,-0.80365 -1.290532,-0.95029c-0.481838,-0.14641 -1.127216,-0.223287 -1.915412,-0.223287l-2.937655,0l0,7.96146c0,0.797454 0.056766,1.429451 0.163316,1.888876c0.112632,0.459196 0.32573,0.810076 0.645153,1.045984c0.31244,0.236138 0.750802,0.388974 1.30202,0.459425c0.551219,0.063337 1.334008,0.10212 2.348593,0.10212c0.401193,0 0.932814,0 1.596664,0c0.657768,0 1.215069,-0.026161 1.666045,-0.076877c0.463366,-0.050486 0.945204,-0.140214 1.440557,-0.267577c0.494227,-0.133789 0.844962,-0.312786 1.057835,-0.536302c0.557526,-0.59941 1.151995,-1.50541 1.766288,-2.717999c0.619473,-1.217867 1.014585,-2.111245 1.183082,-2.685412l1.321618,0z" id="path44" fill-rule="evenodd" fill="#0076be"/>
   <path stroke="null" d="m1294.038807,416.506816c-1.553414,0 -3.043529,-0.312097 -4.465389,-0.937668c-1.428168,-0.618457 -2.686712,-1.518261 -3.78915,-2.691838c-1.088922,-1.167381 -1.959563,-2.596832 -2.604942,-4.286746c-0.65056,-1.690832 -0.969983,-3.59233 -0.969983,-5.71c0,-2.118359 0.31244,-4.037986 0.951286,-5.766912c0.632989,-1.722501 1.51602,-3.208863 2.643237,-4.459317c1.107618,-1.231636 2.423155,-2.181926 3.945257,-2.858213c1.515119,-0.670091 3.136563,-1.00812 4.859374,-1.00812c1.283549,0 2.447934,0.15995 3.488198,0.484668c1.039364,0.325407 2.028043,0.778407 2.968066,1.365195l0.750802,-1.269501l1.472545,0l0.162415,9.455166l-1.50273,0c-0.194402,-0.918621 -0.489046,-1.920545 -0.883031,-2.999116c-0.388804,-1.077882 -0.85217,-1.990308 -1.371401,-2.736128c-0.589288,-0.849088 -1.290532,-1.512753 -2.092018,-1.990996c-0.807568,-0.478472 -1.7343,-0.720807 -2.773664,-0.720807c-1.183983,0 -2.292502,0.267807 -3.313169,0.80388c-1.020667,0.536302 -1.903923,1.327331 -2.648418,2.373544c-0.708452,1.007202 -1.265753,2.290242 -1.672353,3.852793c-0.401193,1.557043 -0.600777,3.292166 -0.600777,5.21271c0,1.69611 0.20589,3.246728 0.631863,4.662869c0.41989,1.415911 1.020667,2.653743 1.803681,3.726118c0.782789,1.058835 1.709296,1.887958 2.780647,2.487368c1.07045,0.59941 2.266822,0.899804 3.58844,0.899804c0.98868,0 1.903022,-0.159261 2.730188,-0.478472c0.832572,-0.319211 1.559496,-0.740542 2.16658,-1.263075c0.613166,-0.548924 1.151995,-1.167381 1.615361,-1.868911c0.463141,-0.695334 0.845863,-1.454923 1.139606,-2.27762l1.372077,0.669861c-1.052654,2.627582 -2.442527,4.510033 -4.184036,5.639549c-1.7343,1.121943 -3.800413,1.689914 -6.198563,1.689914z" id="path46" fill-rule="evenodd" fill="#0076be"/>
   <path stroke="null" d="m1335.928273,415.888359l-10.808797,0l0,-1.327331c0.294644,-0.025473 0.719715,-0.063337 1.277241,-0.114971c0.557301,-0.04429 0.939797,-0.121167 1.145913,-0.222369c0.370107,-0.147328 0.638846,-0.377041 0.808469,-0.682712c0.168722,-0.30659 0.256575,-0.702448 0.256575,-1.187116l0,-9.4352l-12.236965,0l0,9.230731c0,0.434182 0.069156,0.80388 0.206791,1.104044c0.144619,0.300164 0.41989,0.561545 0.839781,0.784832c0.206791,0.114971 0.575998,0.223287 1.108519,0.338258c0.531621,0.108546 0.951511,0.171653 1.258545,0.184504l0,1.327331l-10.808797,0l0,-1.327331c0.294644,-0.025473 0.719715,-0.063337 1.277241,-0.114971c0.557301,-0.04429 0.939797,-0.121167 1.145913,-0.222369c0.3638,-0.147328 0.632764,-0.377041 0.808469,-0.682712c0.168722,-0.30659 0.256575,-0.702448 0.256575,-1.187116l0,-19.138208c0,-0.395858 -0.08177,-0.75936 -0.237878,-1.091192c-0.163316,-0.331833 -0.438587,-0.586788 -0.827166,-0.778636c-0.332038,-0.159032 -0.73233,-0.305442 -1.201778,-0.426609c-0.469673,-0.127593 -0.876949,-0.198044 -1.221376,-0.223517l0,-1.327331l10.808797,0l0,1.327331c-0.344427,0.011474 -0.764318,0.069763 -1.258545,0.165457c-0.495353,0.102349 -0.86456,0.191848 -1.108519,0.281346c-0.41989,0.152836 -0.695162,0.401366 -0.839781,0.74582c-0.137636,0.35088 -0.206791,0.734346 -0.206791,1.142138l0,8.223529l12.236965,0l0,-8.038336c0,-0.395858 -0.08177,-0.75936 -0.237878,-1.091192c-0.163316,-0.331833 -0.438587,-0.586788 -0.827166,-0.778636c-0.331137,-0.159032 -0.73233,-0.305442 -1.201778,-0.426609c-0.469673,-0.127593 -0.876949,-0.198044 -1.221376,-0.223517l0,-1.327331l10.808797,0l0,1.327331c-0.344427,0.011474 -0.764318,0.069763 -1.258545,0.165457c-0.495353,0.102349 -0.86456,0.191848 -1.108519,0.281346c-0.41989,0.152836 -0.695162,0.401366 -0.833473,0.74582c-0.143943,0.35088 -0.212198,0.734346 -0.212198,1.142138l0,19.118931c0,0.434182 0.068255,0.80388 0.212198,1.104044c0.138312,0.300164 0.413583,0.561545 0.833473,0.784832c0.206791,0.114971 0.575998,0.223287 1.108519,0.338258c0.531621,0.108546 0.951511,0.171653 1.258545,0.184504l0,1.327331z" id="path48" fill-rule="evenodd" fill="#0076be"/>
   <path stroke="null" d="m1368.587135,390.695696c-0.344427,0.011474 -0.870642,0.108546 -1.578193,0.299246c-0.708227,0.185422 -1.221151,0.37727 -1.522102,0.574167c-0.444669,0.313015 -0.738412,0.912425 -0.889339,1.799378c-0.156333,0.880756 -0.23157,2.003847 -0.23157,3.361928l0,19.419095l-1.59689,0l-15.774721,-21.696027l0,13.677656c0,1.530882 0.09416,2.710885 0.282255,3.533582c0.187419,0.822927 0.482063,1.410633 0.870867,1.755087c0.281354,0.274003 0.863433,0.528959 1.740382,0.765097c0.883256,0.242105 1.465336,0.363272 1.74669,0.376123l0,1.327331l-10.676342,0l0,-1.327331c0.32573,-0.025473 0.883031,-0.14664 1.66582,-0.363501c0.782789,-0.217091 1.270934,-0.414217 1.471643,-0.586788c0.425071,-0.35088 0.719715,-0.887182 0.876048,-1.601334c0.163316,-0.714381 0.238779,-1.939592 0.238779,-3.674714l0,-13.058281c0,-0.574167 -0.09416,-1.148334 -0.294644,-1.722501c-0.194402,-0.574167 -0.457284,-1.014545 -0.789096,-1.327331c-0.438587,-0.407792 -1.033056,-0.765785 -1.784984,-1.058835c-0.751703,-0.287542 -1.358787,-0.446574 -1.828235,-0.472047l0,-1.327331l7.43323,0l14.641197,20.223204l0,-12.618821c0,-1.543504 -0.100242,-2.729932 -0.294644,-3.559972c-0.194402,-0.829123 -0.475756,-1.377817 -0.845863,-1.65182c-0.344202,-0.236138 -0.901728,-0.465621 -1.677309,-0.695334c-0.776707,-0.223287 -1.365995,-0.344454 -1.772595,-0.369927l0,-1.327331l10.589616,0l0,1.327331z" id="path50" fill-rule="evenodd" fill="#0076be"/>
   <path stroke="null" d="m1393.999961,392.507695c1.145688,1.218097 2.047416,2.691838 2.692794,4.420764c0.651461,1.722271 0.970884,3.63662 0.970884,5.728818c0,2.105049 -0.32573,4.019168 -0.989581,5.735243c-0.657768,1.722501 -1.577968,3.182702 -2.74866,4.395291c-1.139831,1.192624 -2.461224,2.117671 -3.963954,2.762289c-1.503631,0.651044 -3.106377,0.976451 -4.809817,0.976451c-1.809763,0 -3.481891,-0.351568 -5.016383,-1.039788c-1.533816,-0.688908 -2.849127,-1.652738 -3.951564,-2.89057c-1.101311,-1.205246 -1.965871,-2.67279 -2.598635,-4.401717c-0.625781,-1.722501 -0.945429,-3.572364 -0.945429,-5.537199c0,-2.156453 0.332038,-4.076998 0.995888,-5.766912c0.657768,-1.690832 1.571886,-3.151951 2.730188,-4.38267c1.151995,-1.218785 2.486003,-2.156453 4.008331,-2.807497c1.521201,-0.6437 3.117866,-0.969337 4.777604,-0.969337c1.728218,0 3.35687,0.331833 4.884379,0.988384c1.52841,0.663665 2.849127,1.588712 3.963954,2.78845zm-2.736496,18.79995c0.682547,-1.135712 1.183983,-2.417835 1.496422,-3.846367c0.313341,-1.435876 0.463366,-3.03721 0.463366,-4.804001c0,-1.818425 -0.168722,-3.489292 -0.519231,-5.008241c-0.350509,-1.524457 -0.858252,-2.819201 -1.534717,-3.891576c-0.669932,-1.058835 -1.514894,-1.881762 -2.529479,-2.474976c-1.01436,-0.592985 -2.179871,-0.886952 -3.488198,-0.886952c-1.465336,0 -2.711491,0.344454 -3.73824,1.027167c-1.026974,0.682712 -1.866755,1.601334 -2.518216,2.749667c-0.607084,1.097618 -1.064143,2.37974 -1.364869,3.847285c-0.30005,1.473052 -0.450977,3.017245 -0.450977,4.637625c0,1.792034 0.163316,3.413333 0.482739,4.854716c0.31244,1.448498 0.813875,2.73062 1.50273,3.853481c0.657768,1.09693 1.490115,1.952213 2.49231,2.57067c1.00197,0.618457 2.204649,0.925047 3.594522,0.925047c1.308328,0 2.49231,-0.313015 3.544064,-0.937668c1.052654,-0.618457 1.910005,-1.492788 2.567773,-2.615879z" id="path52" fill-rule="evenodd" fill="#0076be"/>
   <path stroke="null" d="m1424.10434,408.002858l-0.551219,7.885501l-20.345758,0l0,-1.327331c0.294869,-0.025473 0.719941,-0.069763 1.277241,-0.134018c0.557526,-0.056912 0.946105,-0.139985 1.165511,-0.242105c0.362899,-0.159261 0.631863,-0.39517 0.795179,-0.708185c0.168722,-0.312786 0.250267,-0.707956 0.250267,-1.192624l0,-18.992486c0,-0.420413 -0.069156,-0.797454 -0.213099,-1.121943c-0.13741,-0.325637 -0.419665,-0.586788 -0.832347,-0.784832c-0.282255,-0.14664 -0.676465,-0.293968 -1.183983,-0.440378c-0.506842,-0.140214 -0.926732,-0.223287 -1.25877,-0.24876l0,-1.327331l10.989908,0l0,1.327331c-0.344427,0.011474 -0.782789,0.069763 -1.326799,0.184504c-0.545137,0.114742 -0.940023,0.210666 -1.184208,0.300164c-0.419665,0.14664 -0.701019,0.402513 -0.858252,0.765785c-0.150025,0.363501 -0.225263,0.74605 -0.225263,1.161185l0,17.811566c0,0.822697 0.038069,1.460201 0.119615,1.913201c0.080869,0.453 0.262882,0.80388 0.556625,1.059753c0.282255,0.223287 0.702145,0.369697 1.259446,0.433035c0.557301,0.070681 1.333107,0.10212 2.335077,0.10212c0.457284,0 0.927633,-0.006884 1.415778,-0.031439c0.488145,-0.025473 0.951511,-0.076877 1.39618,-0.152836c0.425972,-0.076877 0.820859,-0.178997 1.183983,-0.30659c0.356817,-0.133789 0.625781,-0.300164 0.795179,-0.49729c0.500534,-0.574167 1.082839,-1.442302 1.752997,-2.603257c0.66385,-1.167151 1.127216,-2.111245 1.384692,-2.83274l1.30202,0z" id="path54" fill-rule="evenodd" fill="#0076be"/>
   <path stroke="null" d="m1449.186028,392.507695c1.145913,1.218097 2.047641,2.691838 2.692794,4.420764c0.651461,1.722271 0.971109,3.63662 0.971109,5.728818c0,2.105049 -0.32573,4.019168 -0.989806,5.735243c-0.657543,1.722501 -1.577968,3.182702 -2.74866,4.395291c-1.139606,1.192624 -2.461224,2.117671 -3.963954,2.762289c-1.503406,0.651044 -3.106377,0.976451 -4.809591,0.976451c-1.809763,0 -3.481891,-0.351568 -5.016608,-1.039788c-1.533591,-0.688908 -2.849127,-1.652738 -3.951339,-2.89057c-1.101536,-1.205246 -1.966096,-2.67279 -2.59886,-4.401717c-0.625781,-1.722501 -0.945204,-3.572364 -0.945204,-5.537199c0,-2.156453 0.331812,-4.076998 0.995888,-5.766912c0.657543,-1.690832 1.571886,-3.151951 2.729963,-4.38267c1.15222,-1.218785 2.486228,-2.156453 4.008331,-2.807497c1.521201,-0.6437 3.118091,-0.969337 4.777829,-0.969337c1.727993,0 3.356645,0.331833 4.884153,0.988384c1.52841,0.663665 2.849127,1.588712 3.963954,2.78845zm-2.736496,18.79995c0.682547,-1.135712 1.184208,-2.417835 1.496422,-3.846367c0.313341,-1.435876 0.463366,-3.03721 0.463366,-4.804001c0,-1.818425 -0.168497,-3.489292 -0.519231,-5.008241c-0.350509,-1.524457 -0.858252,-2.819201 -1.534492,-3.891576c-0.670158,-1.058835 -1.515119,-1.881762 -2.529704,-2.474976c-1.01436,-0.592985 -2.179871,-0.886952 -3.487973,-0.886952c-1.465336,0 -2.711491,0.344454 -3.738466,1.027167c-1.026974,0.682712 -1.86653,1.601334 -2.51799,2.749667c-0.607084,1.097618 -1.064143,2.37974 -1.365094,3.847285c-0.30005,1.473052 -0.450977,3.017245 -0.450977,4.637625c0,1.792034 0.163316,3.413333 0.482964,4.854716c0.31244,1.448498 0.813875,2.73062 1.502505,3.853481c0.657768,1.09693 1.49034,1.952213 2.49231,2.57067c1.002195,0.618457 2.204649,0.925047 3.594748,0.925047c1.308103,0 2.49231,-0.313015 3.544064,-0.937668c1.052654,-0.618457 1.910005,-1.492788 2.567548,-2.615879z" id="path56" fill-rule="evenodd" fill="#0076be"/>
   <path stroke="null" d="m1483.586174,405.292203c-0.293743,0.037865 -0.688629,0.095694 -1.183082,0.178079c-0.495128,0.076877 -0.895421,0.191618 -1.202679,0.344454c-0.369206,0.185422 -0.625781,0.453 -0.782789,0.791258c-0.150025,0.344454 -0.225488,0.746738 -0.225488,1.206164l0,2.060529c0,1.492788 0.006758,2.500219 0.025004,3.02367c0.020274,0.523451 0.038069,0.956486 0.062848,1.288548c-1.628652,0.753164 -3.244013,1.320905 -4.859374,1.722271c-1.615361,0.396088 -3.200537,0.59964 -4.752825,0.59964c-1.666045,0 -3.26271,-0.318293 -4.803509,-0.956715c-1.547107,-0.631079 -2.886521,-1.537078 -4.039417,-2.711573c-1.164385,-1.180002 -2.08481,-2.621386 -2.767357,-4.312218c-0.688854,-1.697028 -1.026974,-3.591412 -1.026974,-5.68361c0,-2.016469 0.32573,-3.891576 0.97629,-5.614076c0.657768,-1.728926 1.584275,-3.22814 2.780872,-4.497411c1.164385,-1.244258 2.549077,-2.214513 4.158131,-2.903421c1.609279,-0.695334 3.324883,-1.039788 5.160326,-1.039788c1.471643,0 2.748885,0.178997 3.838708,0.542498c1.089147,0.363501 2.047641,0.797454 2.880213,1.307366l0.751703,-1.269501l1.465336,0l0.168722,9.269743l-1.508812,0c-0.256575,-1.020741 -0.575998,-2.028861 -0.952412,-3.017245c-0.381596,-0.995498 -0.869741,-1.88245 -1.465336,-2.667283c-0.601002,-0.783915 -1.333107,-1.409715 -2.197666,-1.875336c-0.858252,-0.465621 -1.891309,-0.70176 -3.087005,-0.70176c-1.309004,0 -2.479696,0.267807 -3.50667,0.810305c-1.027875,0.542498 -1.916313,1.352574 -2.674323,2.424031c-0.751703,1.033592 -1.321618,2.321911 -1.727993,3.866332c-0.401193,1.543504 -0.607985,3.272201 -0.607985,5.180124c0,1.677292 0.200484,3.266004 0.600777,4.752367c0.395111,1.492788 0.971109,2.77491 1.735201,3.860136c0.75801,1.109322 1.703214,1.983653 2.843045,2.622075c1.133298,0.631079 2.42383,0.95029 3.869569,0.95029c1.077658,0 2.05485,-0.166375 2.943287,-0.503716c0.889339,-0.338029 1.51602,-0.696252 1.878919,-1.065949c0.100242,-0.650126 0.150025,-1.30117 0.156333,-1.964835c0.006758,-0.65724 0.013516,-1.217867 0.013516,-1.677292l0,-1.461119c0,-0.523451 -0.075463,-0.989302 -0.213099,-1.390668c-0.144619,-0.40871 -0.43228,-0.70153 -0.870642,-0.886952c-0.407501,-0.191618 -0.951511,-0.331833 -1.641041,-0.421331c-0.695162,-0.095006 -1.232865,-0.152836 -1.627976,-0.178079l0,-1.365425l11.415881,0l-0.000225,1.365425z" id="path58" fill-rule="evenodd" fill="#0076be"/>
   <path stroke="null" d="m1510.227358,390.695696c-0.212874,0.011474 -0.538604,0.095924 -0.995888,0.24876c-0.450751,0.159032 -0.776482,0.312786 -0.970884,0.459196c-0.475756,0.300393 -0.801486,0.529877 -0.970208,0.695334c-0.169398,0.159261 -0.501436,0.580592 -0.989581,1.269501c-0.958494,1.371621 -1.834542,2.756093 -2.643237,4.165578c-0.807568,1.410633 -1.815845,3.196471 -3.030013,5.365546c-0.450977,0.797454 -0.751928,1.434958 -0.895646,1.926741c-0.150926,0.484668 -0.219181,1.186428 -0.219181,2.111475l0,5.065153c0,0.446574 0.086952,0.835548 0.262657,1.167381c0.175705,0.325407 0.482063,0.593902 0.908035,0.791028c0.256575,0.102349 0.713633,0.223517 1.377484,0.363501c0.657768,0.147328 1.19029,0.223287 1.596664,0.236138l0,1.327331l-12.18628,0l0,-1.327331c0.345328,-0.025473 0.858252,-0.069763 1.547107,-0.140214c0.682547,-0.069763 1.158303,-0.159261 1.428168,-0.267577c0.438362,-0.191848 0.744494,-0.446804 0.90781,-0.772211c0.162415,-0.319211 0.250493,-0.720807 0.250493,-1.192624l0,-6.449624c0,-0.198044 -0.118939,-0.561545 -0.356817,-1.091422c-0.244185,-0.528959 -0.52644,-1.122861 -0.858252,-1.766791c-0.73233,-1.448498 -1.546206,-3.010819 -2.435544,-4.68903c-0.895646,-1.684636 -1.672128,-3.12579 -2.329896,-4.319332c-0.407501,-0.714381 -0.764092,-1.24334 -1.076532,-1.607759c-0.313341,-0.363501 -0.670158,-0.681565 -1.071351,-0.956486c-0.294644,-0.184504 -0.645379,-0.325637 -1.058061,-0.427757c-0.407276,-0.101202 -0.776482,-0.159032 -1.108519,-0.184504l0,-1.327331l11.10254,0l0,1.327331c-1.252237,0.025473 -2.129186,0.108546 -2.642336,0.261381c-0.513825,0.14641 -0.7704,0.357076 -0.7704,0.631997c0,0.075959 0.037394,0.209748 0.106549,0.39517c0.075463,0.185422 0.182013,0.421331 0.313341,0.707956c0.156107,0.325637 0.350509,0.695334 0.569916,1.116665c0.219181,0.415135 0.425972,0.816501 0.619473,1.205246c0.575998,1.104044 1.165286,2.214513 1.766288,3.317638c0.594469,1.097618 1.377484,2.532576 2.348367,4.306481c1.916313,-3.151951 3.381649,-5.614076 4.389926,-7.374442c1.008277,-1.761513 1.515119,-2.820119 1.515119,-3.170998c0,-0.280428 -0.106549,-0.517255 -0.313341,-0.689138c-0.206791,-0.172571 -0.482063,-0.312786 -0.826265,-0.40871c-0.350735,-0.101202 -0.739313,-0.165457 -1.15222,-0.196897c-0.419665,-0.032587 -0.801261,-0.064255 -1.158978,-0.102349l0,-1.327331l9.049492,0l0,1.327331z" id="path60" fill-rule="evenodd" fill="#0076be"/>
   <path stroke="null" d="m761.175915,218.936265c3.077544,3.988876 7.273068,10.829081 6.994192,19.094147c-0.279777,8.264148 -4.476202,8.264148 -4.755979,16.528296c-0.279777,8.265066 -0.559553,10.544981 5.873959,7.410012c6.434639,-3.13497 8.672853,-4.845078 8.672853,1.42509c0,6.269939 2.517765,9.974027 -5.315532,16.244196c-7.832396,6.269021 -17.343453,10.544063 -24.057868,24.223325c-6.71419,13.678115 -6.71419,13.678115 -6.71419,13.678115c0,0 -7.832396,17.384268 -10.90994,21.374292c-3.077318,3.990024 0.279777,7.409094 4.476202,10.544063c4.196651,3.13497 14.267035,10.830229 13.427705,18.239322c-0.839105,7.410012 -14.26681,3.419988 -15.10614,-11.399117c-0.402545,-7.113519 -3.357095,-9.975174 -6.714416,-3.705235c-3.356194,6.270169 -5.314406,7.695259 -12.028821,5.415114c-6.713289,-2.279915 -0.83933,-10.259963 3.077318,-16.529214c3.916874,-6.269939 11.189717,-18.809129 13.427705,-24.509261c2.238214,-5.698067 1.67866,-10.543145 -6.71419,-7.693194c-8.39195,2.850181 -26.01608,11.683218 -46.436851,10.543145c-6.425178,-0.358453 -7.553746,-7.977982 3.635971,-9.403073c11.190392,-1.42509 40.284016,-14.819105 60.42501,-27.643313c4.081316,-2.598897 3.077318,-5.130096 3.077318,-11.685053c0,-6.554269 0,-18.523422 6.154862,-41.607593c3.292445,-12.351014 6.433513,-14.534317 9.510831,-10.544063zm5.035755,110.003216c1.034408,2.05135 4.395333,7.267732 6.764875,12.221356c3.028887,6.333965 5.50205,12.420777 10.859256,12.857024c13.987258,1.140072 22.099431,-6.839975 13.707482,-17.669286c-8.392851,-10.829081 -41.682674,-27.927184 -31.331612,-7.409094z" id="path62" fill-rule="evenodd" fill="#0076be"/>
   <path stroke="null" d="m895.453641,234.040388c0,3.990024 3.637097,5.698985 10.630163,6.269021c6.993967,0.570036 9.511957,3.705006 2.797542,9.690156c-6.713289,5.984003 -9.510831,11.399117 -14.826363,19.664183c-5.314631,8.264148 -27.414963,46.735624 -51.19283,68.96497c-3.52852,3.297903 -7.273969,7.694112 -2.238214,11.684136c5.034854,3.990024 7.552619,3.13497 16.225247,-7.409094c8.671726,-10.545211 18.496799,-24.813786 31.051835,-43.602491c1.994479,-2.984888 5.946494,-1.405814 8.947674,-1.42509c2.439824,-0.016064 4.141236,-2.502973 10.913769,-13.109226c2.388239,-3.738969 1.118882,-3.704088 -3.635971,0.855054c-4.755979,4.56006 -10.910841,-1.140072 -3.916874,-8.549166c6.994192,-7.409094 32.450719,-26.503241 37.76535,-44.457545c1.626174,-5.490614 0.559328,-3.990024 -1.397982,-8.835102c-1.959338,-4.843931 -3.357095,-1.424861 -7.553521,1.710109c-4.196425,3.13497 -8.112173,5.700132 -25.736303,4.56006c-7.264283,-0.469293 -7.833522,0 -7.833522,3.990024zm32.170942,40.752539c2.797542,0 4.476202,1.424861 1.67866,7.409094c-2.797767,5.984921 -2.797767,7.980048 -8.952404,7.980048c-6.153961,0 -8.951503,-2.279915 -7.832396,4.275042c1.118882,6.554039 2.342736,19.797972 -2.51799,18.808211c-1.398884,-0.285018 -0.559553,5.129178 -0.279777,8.264148c0.279777,3.13497 1.958437,7.694112 -6.993066,11.684136c-8.952404,3.990024 -23.778993,1.140072 -24.338546,14.249298c-0.267387,6.272004 3.313394,7.448794 6.890346,6.645144c3.898628,-0.876396 7.221483,-4.733549 11.013561,-10.064214c2.260965,-3.177653 6.154862,-3.705006 9.511957,-3.990024c3.356194,-0.285018 8.671726,-3.705235 11.469268,-9.12012c2.797767,-5.414196 7.378716,-3.470474 7.552845,2.564933c0.279777,9.690156 -9.790833,12.53919 -2.238214,12.53919c7.553521,0 9.791734,-2.278997 18.182783,-14.534087c3.848169,-5.618666 0.83933,-7.694112 -1.397982,-10.544293c-2.237988,-2.849951 -10.853624,-0.453688 -20.980324,3.135199c-6.434414,2.279915 -5.595309,-7.980277 -1.958212,-14.533399c3.636872,-6.554957 3.357095,-9.689927 9.231054,-10.829081c5.875086,-1.14099 13.147928,-14.820253 16.504122,-23.084171c3.35732,-8.264148 0,-11.399347 -5.873959,-8.835102c-5.874184,2.564933 -6.153961,3.705006 -8.951503,3.705006c-5.597111,0 -4.198227,4.275042 0.279777,4.275042z" id="path64" fill-rule="evenodd" fill="#0076be"/>
   <path stroke="null" d="m1012.386112,244.014415c-4.475301,3.135199 -15.10614,11.969154 -19.301664,15.959178c-4.196425,3.990253 -4.755979,5.700132 -1.398884,9.119202c3.356194,3.419988 8.951503,-2.564015 11.749045,8.550084c2.797767,11.114099 1.67866,12.254172 -3.916649,17.954304c-5.594183,5.698985 -8.39195,7.409094 -0.83933,19.378247c4.490619,7.115355 1.67866,10.259045 -1.677534,14.248151c-3.357095,3.990024 -11.439759,14.836546 -2.238214,19.664183c11.136329,5.842641 9.35112,1.91366 12.029047,-6.269021c2.797542,-8.550084 6.154637,-20.234219 10.629938,-34.197352c4.663621,-14.550839 21.820556,-44.172756 28.813622,-50.157677c6.994192,-5.985151 6.714416,3.13497 6.994192,10.544981c0.279777,7.409094 0.83933,14.819335 -2.797767,15.95826c-3.636872,1.140072 -1.118882,9.975174 -1.398658,15.389141c-0.279777,5.415114 -1.398884,11.685283 -5.035755,15.674389c-3.636872,3.988876 -2.797767,5.698985 0,8.548936c2.797542,2.850181 1.882298,4.561207 1.958212,7.97913c0.279777,12.540108 -9.790608,8.835102 -2.796641,14.250216c6.993291,5.414196 25.736303,4.84416 26.295857,0.569118c0.559553,-4.274124 -5.595309,-8.834184 -10.631064,-8.834184c-5.034629,0 -8.112173,-4.275042 -3.915522,-8.265066c4.195299,-3.989106 1.677534,-17.098332 -0.83933,-19.662347c-2.51799,-2.564933 -0.279777,-5.415114 1.678435,-8.550084c1.957536,-3.134052 -1.118882,-14.819105 7.832396,-25.648416c8.952404,-10.829081 15.386142,-6.269939 28.254294,-25.933204c4.292613,-6.559088 -0.279777,-13.395162 -13.147928,-12.254172c-12.868152,1.138925 -21.059392,1.330084 -32.730496,13.964051c-9.886795,10.703324 -16.87423,26.95624 -21.047678,33.565585c-2.060256,3.263021 -5.058732,1.379423 -6.926613,-1.648148c-6.154862,-9.974027 -9.23128,-14.248151 -3.357095,-19.948054c5.87486,-5.700132 16.7848,-11.969383 12.868152,-19.664413c-3.915748,-7.694112 -10.630163,-3.419988 -15.106365,-0.285018zm-7.832396,57.566771c0,2.565163 0.83933,10.260192 -1.958437,10.260192c-2.797542,0 -3.491127,-4.563043 -3.636872,-8.265066c-0.279777,-7.124076 5.595309,-5.985151 5.595309,-1.995127zm57.347692,-49.586723c3.847268,-1.237832 12.868152,-8.265066 12.868152,-1.709879c0,2.695968 -2.013626,5.969546 -3.224866,8.632468c-1.732949,3.812633 -3.287714,6.372748 -7.405297,4.19174c-6.993967,-3.705006 -7.553521,-9.405138 -2.237988,-11.114329z" id="path66" fill-rule="evenodd" fill="#0076be"/>
   <path stroke="null" d="m1154.776912,243.729397c1.768991,2.703771 6.154862,7.410241 11.189717,8.549166c5.035755,1.14099 7.553521,1.42509 5.035755,11.685283c-2.51799,10.259045 -5.595309,23.368271 -6.993291,34.19827c-1.398658,10.829081 -3.636872,14.818187 -17.344354,27.927413c-13.707256,13.109226 -19.022789,17.09925 -23.498991,19.664183c-4.476202,2.564015 -7.832396,4.274124 3.357095,6.839057c5.206955,1.193542 6.465951,1.096471 9.991542,-1.417059c4.049779,-2.888964 10.196982,-8.512449 13.786324,-11.40692c6.714416,-5.415114 28.53407,-21.374292 33.010272,-25.648416c4.476202,-4.274124 4.755979,8.834184 13.987258,-0.285936c9.231054,-9.118284 18.743012,-18.522275 21.820556,-24.507426c3.077318,-5.984003 -3.35732,-11.399117 -16.225472,-3.13497c-12.868152,8.265066 -21.972833,19.100114 -21.540779,6.554957c0.559553,-16.244196 12.029948,-29.923228 12.029948,-40.182503c0,-10.259963 -17.62413,-15.675077 -26.856311,-12.540108c-9.23128,3.135199 -15.665919,-2.279915 -11.74927,3.705006z" id="path68" fill-rule="evenodd" fill="#0076be"/>
   <path stroke="null" d="m1316.749377,223.210159c0.83933,4.845078 3.077318,14.250216 -0.559553,25.364316c-3.635971,11.114099 -6.153736,19.093229 -9.790833,25.07838c-3.636872,5.985151 -8.392851,5.985151 -17.064577,8.835102c-8.671726,2.849034 -22.099206,7.124076 -25.736303,2.278997c-3.636872,-4.843931 -5.595084,-2.564933 -2.797542,5.415114c2.797542,7.980048 7.553521,15.959178 19.582342,8.835102c12.029047,-7.124993 19.582567,-5.130096 17.623229,1.138925c-1.957311,6.270169 -12.143931,30.272502 -24.33742,37.047533c-9.23128,5.130096 -20.420771,15.104353 -5.314631,13.109226c10.822313,-1.428992 29.092497,-11.684136 46.717529,-55.855744c2.876834,-7.211279 8.112398,-9.975174 16.783899,-14.534087c8.672853,-4.56006 12.989118,-4.960508 17.62413,-11.400265c3.077544,-4.274124 -0.839105,-3.704088 -6.154637,-14.534087c-2.743479,-5.589522 -3.076417,0 -3.635971,3.419988c-0.559553,3.419988 -4.959617,15.640196 -11.190618,9.690156c-4.475301,-4.275042 -0.279777,-3.705006 4.476202,-23.369419c2.208704,-9.131594 0.83933,-6.554039 -2.517765,-13.964051c-3.356194,-7.410012 -4.195524,-8.834184 -6.993291,-11.969154c-2.797542,-3.13497 -7.553521,0.570036 -6.71419,5.413967zm0.559553,88.916237c3.376243,3.889051 5.663789,21.251059 16.006291,32.477606c6.226271,6.758738 18.548159,-2.482549 23.718172,-6.830337c4.88145,-4.105454 -0.83933,-2.849951 -4.196425,-2.849951c-3.35732,0 -18.46346,-1.42509 -27.135187,-20.51832c-2.639632,-5.811661 -13.698021,-8.394035 -8.392851,-2.278997z" id="path70" fill-rule="evenodd" fill="#0076be"/>
   <path stroke="null" d="m1434.801856,303.291294c-1.138254,1.988242 -5.20245,10.853406 -8.39195,15.987174c-2.298134,3.699269 -4.007204,3.542302 -4.476202,6.526042c-1.118206,7.124076 -5.53246,17.141016 -12.868152,-7.69503c-1.64442,-5.567262 5.595084,-7.123158 8.113074,-5.129178c2.516864,1.995127 6.993066,0.570036 13.707482,-11.114099c2.317056,-4.033626 5.873959,-1.994897 3.915748,1.42509zm19.862119,-84.35503c2.238214,3.705006 5.315532,11.969154 5.595309,15.389141c0.279777,3.41907 -3.916649,4.56006 -4.476202,1.424861c-0.559553,-3.13497 -2.51799,-11.400035 -4.476202,-14.819105c-1.957536,-3.419988 1.119107,-5.700132 3.357095,-1.994897zm-12.868152,36.762286c0,3.705235 -0.279777,12.540337 0.559553,16.529214c0.83933,3.990024 7.273744,1.140072 5.315532,-2.564015c-1.958437,-3.705006 -2.797767,-5.130096 -2.238214,-11.115017c0.559553,-5.984233 -3.636872,-6.554269 -3.636872,-2.850181zm8.951503,-3.704088c1.119107,2.849263 2.797542,7.124305 1.958437,11.399347c-0.83933,4.273895 0.247339,7.443057 5.03553,2.564933c2.797767,-2.849951 -4.014638,-8.693511 -2.797542,-13.96428c1.119107,-4.844849 -5.314631,-2.849951 -4.196425,0zm37.206472,-54.147472c8.112173,9.118973 15.386142,9.404909 -6.993967,31.918355c-5.208983,5.240478 -2.796641,6.269021 1.67866,6.269021c4.476202,0 10.071286,1.426008 10.630839,5.415114c0.559553,3.990024 2.517089,7.980048 6.433738,1.710109c3.916649,-6.270169 6.037725,-7.776726 3.916649,-9.974256c-2.393195,-2.480713 3.916649,-7.124993 8.39195,-3.13497c4.476202,3.990024 0.83933,10.259045 -9.23128,25.363168c-3.837807,5.755438 -2.517765,6.555187 5.315532,11.970301c7.832396,5.413967 8.951503,10.544063 -0.840231,17.953157c-9.790833,7.410012 -17.623229,11.685053 -23.778092,13.395162c-6.153736,1.710109 -6.713289,6.839057 -3.077318,11.114099c3.636872,4.274124 -0.815452,11.396364 4.196425,10.828163c7.553746,-0.855054 18.46346,0 18.46346,6.555187c0,6.554039 -5.035755,4.559142 -7.833297,4.559142c-2.796866,0 -12.029047,-0.569118 -19.581666,5.414885c-7.553521,5.985151 -7.553521,9.689238 -5.315532,13.679262c2.238214,3.990024 1.67866,10.829081 1.67866,18.809129c0,4.143319 1.417806,8.219628 -4.853968,8.523923c-3.225767,0.157196 -8.27211,-2.790745 -14.728374,-9.093959c-3.879705,-3.78739 0.839105,-1.709879 4.196425,-1.139843c3.357095,0.570036 10.629938,-0.855054 10.350161,-8.835102c-0.279777,-7.97913 -1.958212,-10.544293 -2.797542,-13.679262c-0.83933,-3.134052 -1.957536,-4.274124 -10.630163,-1.138925c-8.671726,3.134052 -11.749045,9.403991 -32.170717,3.134052c-4.096634,-1.257338 4.476202,-5.414196 19.302565,-10.544293c14.826589,-5.129867 20.981451,-7.124076 26.575633,-8.833955c5.595309,-1.710109 4.476202,-9.975174 -1.117981,-7.125223c-5.595309,2.850181 -7.833522,6.840205 -13.708383,2.280145c-5.874184,-4.56006 -3.35732,-6.840205 5.03553,-11.3982c8.39195,-4.56006 32.170942,-23.939225 41.122445,-34.1985c3.83195,-4.39139 2.517765,-7.124993 -5.035755,-2.564933c-7.552619,4.56006 -19.021888,7.97913 -28.812721,13.964051c-7.624028,4.659885 -10.351288,9.12012 -17.903907,2.850181c-7.553521,-6.270169 -1.67866,-5.985151 2.237087,-5.985151c3.916649,0 13.988159,-5.129178 19.302791,-10.259045c5.315532,-5.130096 3.636872,-7.694112 -1.398884,-7.125223c-5.034629,0.570036 -3.356194,-2.564015 -3.636872,-5.413967c-0.278876,-2.850181 1.67866,-3.420217 5.595309,-3.420217c3.916649,0 3.870019,-3.13497 6.434414,-6.269021c2.797767,-3.419988 3.35732,-4.845078 5.875086,-5.984921c2.516864,-1.140072 3.356194,-5.985151 -4.755979,-5.985151c-8.113074,0 -7.833297,0.855054 -8.672627,-4.274124c-0.83933,-5.130096 -5.697128,-5.972529 -1.119107,-6.554957c2.238214,-0.285018 3.35732,7.97913 7.553746,0.854825c2.524523,-4.286516 11.588207,-11.593949 14.816902,-18.10255c2.138197,-4.309923 0.775581,-6.934063 -2.228527,-11.53566c-2.960407,-4.533899 -2.007995,-7.5041 1.118882,-3.990024zm-1.118882,55.856662c-1.398884,3.705006 -3.125074,11.072333 -9.23128,9.690156c-5.035755,-1.140072 -1.119107,-6.840205 2.796641,-10.829311c3.916649,-3.990024 7.833297,-2.564933 6.434639,1.139154z" id="path72" fill-rule="evenodd" fill="#0076be"/>
  </g>
 </g>
</svg>